STARTFONT 2.1
COMMENT
COMMENT Converted from OpenType font "Q:\font stuff\winfont\Risk Bold.ttf" by "otf2bdf 3.0".
COMMENT
FONT -FreeType-Risk Bold-Medium-R-Normal--38-380-72-72-P-189-ISO10646-1
SIZE 38 72 72
FONTBOUNDINGBOX 66 51 -6 -8
STARTPROPERTIES 19
FOUNDRY "FreeType"
FAMILY_NAME "Risk Bold"
WEIGHT_NAME "Medium"
SLANT "R"
SETWIDTH_NAME "Normal"
ADD_STYLE_NAME ""
PIXEL_SIZE 30
POINT_SIZE 380
RESOLUTION_X 72
RESOLUTION_Y 72
SPACING "P"
AVERAGE_WIDTH 189
CHARSET_REGISTRY "ISO10646"
CHARSET_ENCODING "1"
FONT_ASCENT 28
FONT_DESCENT 9
COPYRIGHT "Copyright (c) 2007 by Victor Carbajo. All rights reserved. www.carbajo.net"
_OTF_FONTFILE "Q:\font stuff\winfont\Risk Bold.ttf"
_OTF_PSNAME "RiskBold"
ENDPROPERTIES
CHARS 471
STARTCHAR 0020
ENCODING 32
SWIDTH 210 0
DWIDTH 8 0
BBX 0 0 0 0
BITMAP
ENDCHAR
STARTCHAR 0021
ENCODING 33
SWIDTH 184 0
DWIDTH 7 0
BBX 5 27 1 0
BITMAP
F8
F8
F8
F8
F8
F8
F8
F8
F8
F8
F8
F8
F8
F8
F8
F8
F8
F8
F8
00
00
00
F8
F8
F8
F8
F8
ENDCHAR
STARTCHAR 0022
ENCODING 34
SWIDTH 473 0
DWIDTH 18 0
BBX 16 11 1 16
BITMAP
F81F
F81F
F81F
F81F
F81F
F81F
F81F
F81F
F81F
F81F
F81F
ENDCHAR
STARTCHAR 0023
ENCODING 35
SWIDTH 578 0
DWIDTH 22 0
BBX 20 27 1 0
BITMAP
1F0F80
1F0F80
1F0F80
1F0F80
1F0F80
1F0F80
FFFFF0
FFFFF0
FFFFF0
FFFFF0
FFFFF0
1F0F80
1F0F80
1F0F80
1F0F80
1F0F80
1F0F80
FFFFF0
FFFFF0
FFFFF0
FFFFF0
FFFFF0
1F0F80
1F0F80
1F0F80
1F0F80
1F0F80
ENDCHAR
STARTCHAR 0024
ENCODING 36
SWIDTH 447 0
DWIDTH 17 0
BBX 15 32 1 -3
BITMAP
07C0
07C0
07C0
07C0
07C0
1FFE
7FFE
7FFE
FFFE
FFFE
F800
F800
F800
FFF0
FFFC
7FFC
7FFE
1FFE
003E
003E
003E
FFFE
FFFE
FFFC
FFFC
FFF0
07C0
07C0
07C0
07C0
07C0
07C0
ENDCHAR
STARTCHAR 0025
ENCODING 37
SWIDTH 1184 0
DWIDTH 45 0
BBX 43 27 1 0
BITMAP
1FC0001F0000
3FE0001F0000
7FF0001F0000
FFF8001F0000
FFF8001F0000
F8F8001F0000
F8F8001F0000
F8F8001F0000
F8F8003F0000
FFF8007E0000
FFF800FE0000
7FF03FFC0000
3FE0FFF80000
1FC1FFF00000
0003FFE07F00
0007FF80FF80
000FE001FFC0
000FC003FFE0
001F8003FFE0
001F0003E3E0
001F0003E3E0
001F0003E3E0
001F0003FFE0
001F0003FFE0
001F0001FFC0
001F0000FF80
001F00007F00
ENDCHAR
STARTCHAR 0026
ENCODING 38
SWIDTH 763 0
DWIDTH 29 0
BBX 26 27 1 0
BITMAP
07F00000
1FF00000
3FF00000
7FF00000
7FF00000
FC00F800
F800F800
F800F800
F800F800
F800F800
FC00F800
7FFFFFC0
7FFFFFC0
3FFFFFC0
7FFFFFC0
7FFFFFC0
FC00F800
F800F800
F800F800
F800F800
F800F800
FC01FC00
7FFFFFC0
7FFFFFC0
3FFFFFC0
1FFFDFC0
07FF07C0
ENDCHAR
STARTCHAR 0027
ENCODING 39
SWIDTH 184 0
DWIDTH 7 0
BBX 5 11 1 16
BITMAP
F8
F8
F8
F8
F8
F8
F8
F8
F8
F8
F8
ENDCHAR
STARTCHAR 0028
ENCODING 40
SWIDTH 342 0
DWIDTH 13 0
BBX 10 37 1 -5
BITMAP
01C0
07C0
0FC0
1FC0
3FC0
7F00
7E00
FC00
F800
F800
F800
F800
F800
F800
F800
F800
F800
F800
F800
F800
F800
F800
F800
F800
F800
F800
F800
F800
F800
FC00
7E00
7F00
3FC0
1FC0
1FC0
07C0
01C0
ENDCHAR
STARTCHAR 0029
ENCODING 41
SWIDTH 342 0
DWIDTH 13 0
BBX 10 37 2 -5
BITMAP
E000
F800
FC00
FE00
FF00
3F80
1F80
0FC0
07C0
07C0
07C0
07C0
07C0
07C0
07C0
07C0
07C0
07C0
07C0
07C0
07C0
07C0
07C0
07C0
07C0
07C0
07C0
07C0
07C0
0FC0
1F80
3F80
FF00
FE00
FC00
F800
E000
ENDCHAR
STARTCHAR 002A
ENCODING 42
SWIDTH 473 0
DWIDTH 18 0
BBX 16 16 1 11
BITMAP
F01F
FC1F
FE3F
FF3E
FFFE
FFFE
1FFC
0FF8
0FF0
1FF0
3FFC
7FFF
7EFF
7C7F
FC1F
FC07
ENDCHAR
STARTCHAR 002B
ENCODING 43
SWIDTH 500 0
DWIDTH 19 0
BBX 15 16 2 5
BITMAP
07C0
07C0
07C0
07C0
07C0
FFFE
FFFE
FFFE
FFFE
FFFE
07C0
07C0
07C0
07C0
07C0
07C0
ENDCHAR
STARTCHAR 002C
ENCODING 44
SWIDTH 210 0
DWIDTH 8 0
BBX 8 13 -1 -8
BITMAP
1F
1F
1F
1F
1F
1F
1F
7F
FE
FE
FC
F8
E0
ENDCHAR
STARTCHAR 002D
ENCODING 45
SWIDTH 500 0
DWIDTH 19 0
BBX 16 5 1 11
BITMAP
FFFF
FFFF
FFFF
FFFF
FFFF
ENDCHAR
STARTCHAR 002E
ENCODING 46
SWIDTH 184 0
DWIDTH 7 0
BBX 5 5 1 0
BITMAP
F8
F8
F8
F8
F8
ENDCHAR
STARTCHAR 002F
ENCODING 47
SWIDTH 605 0
DWIDTH 23 0
BBX 21 27 1 0
BITMAP
0000F8
0000F8
0000F8
0000F8
0000F8
0000F8
0000F8
0000F8
0001F8
0003F0
0007F0
01FFE0
07FFC0
0FFF80
1FFF00
3FFC00
7F0000
7E0000
FC0000
F80000
F80000
F80000
F80000
F80000
F80000
F80000
F80000
ENDCHAR
STARTCHAR 0030
ENCODING 48
SWIDTH 552 0
DWIDTH 21 0
BBX 19 27 1 0
BITMAP
03F800
0FFE00
1FFF00
3FFF80
7FFFC0
7E0FC0
FC07E0
F803E0
F803E0
F803E0
F803E0
F803E0
F803E0
F803E0
F803E0
F803E0
F803E0
F803E0
F803E0
F803E0
FC07E0
7E0FC0
7FFFC0
3FFF80
1FFF00
0FFE00
03F800
ENDCHAR
STARTCHAR 0031
ENCODING 49
SWIDTH 552 0
DWIDTH 21 0
BBX 15 27 3 0
BITMAP
FFC0
FFC0
FFC0
FFC0
FFC0
07C0
07C0
07C0
07C0
07C0
07C0
07C0
07C0
07C0
07C0
07C0
07C0
07C0
07C0
07C0
07C0
07C0
FFFE
FFFE
FFFE
FFFE
FFFE
ENDCHAR
STARTCHAR 0032
ENCODING 50
SWIDTH 552 0
DWIDTH 21 0
BBX 19 27 1 0
BITMAP
FFFC00
FFFF00
FFFF80
FFFFC0
FFFFC0
0007E0
0003E0
0003E0
0003E0
0003E0
0007E0
00FFC0
07FFC0
0FFF80
1FFE00
3FF800
7F0000
7E0000
FC0000
FC0000
F80000
F80000
FFFFE0
FFFFE0
FFFFE0
FFFFE0
FFFFE0
ENDCHAR
STARTCHAR 0033
ENCODING 51
SWIDTH 552 0
DWIDTH 21 0
BBX 18 27 2 0
BITMAP
FFF800
FFFE00
FFFF00
FFFF80
FFFF80
000FC0
0007C0
0007C0
0007C0
0007C0
000FC0
FFFF80
FFFF80
FFFF00
FFFF80
FFFF80
000FC0
0007C0
0007C0
0007C0
0007C0
000FC0
FFFF80
FFFF80
FFFF00
FFFE00
FFF800
ENDCHAR
STARTCHAR 0034
ENCODING 52
SWIDTH 552 0
DWIDTH 21 0
BBX 19 27 1 0
BITMAP
F803E0
F803E0
F803E0
F803E0
F803E0
F803E0
F803E0
F803E0
FC03E0
7E03E0
7F83E0
3FFFE0
1FFFE0
0FFFE0
07FFE0
00FFE0
0003E0
0003E0
0003E0
0003E0
0003E0
0003E0
0003E0
0003E0
0003E0
0003E0
0003E0
ENDCHAR
STARTCHAR 0035
ENCODING 53
SWIDTH 552 0
DWIDTH 21 0
BBX 19 27 1 0
BITMAP
FFFFE0
FFFFE0
FFFFE0
FFFFE0
FFFFE0
F80000
F80000
F80000
F80000
F80000
F80000
FFF800
FFFE00
FFFF80
FFFFC0
FFFFC0
0007E0
0003E0
0003E0
0003E0
0003E0
0007E0
FFFFC0
FFFFC0
FFFF80
FFFF00
FFFC00
ENDCHAR
STARTCHAR 0036
ENCODING 54
SWIDTH 552 0
DWIDTH 21 0
BBX 19 27 1 0
BITMAP
00FFE0
07FFE0
0FFFE0
1FFFE0
3FFFE0
7F0000
7E0000
FC0000
FC0000
F80000
F80000
FFF800
FFFE00
FFFF80
FFFFC0
FFFFC0
F807E0
F803E0
F803E0
F803E0
F803E0
FC07E0
7FFFC0
7FFFC0
3FFF80
1FFF00
07FC00
ENDCHAR
STARTCHAR 0037
ENCODING 55
SWIDTH 552 0
DWIDTH 21 0
BBX 19 27 1 0
BITMAP
FFFFE0
FFFFE0
FFFFE0
FFFFE0
FFFFE0
0003E0
0003E0
0007E0
0007C0
000FC0
01FFC0
0FFF80
1FFF00
3FFC00
7FF000
7E0000
FC0000
F80000
F80000
F80000
F80000
F80000
F80000
F80000
F80000
F80000
F80000
ENDCHAR
STARTCHAR 0038
ENCODING 56
SWIDTH 552 0
DWIDTH 21 0
BBX 19 27 1 0
BITMAP
07FC00
1FFF00
3FFF80
7FFFC0
7FFFC0
FC07E0
F803E0
F803E0
F803E0
F803E0
FC07E0
7FFFC0
7FFFC0
3FFF80
7FFFC0
7FFFC0
FC07E0
F803E0
F803E0
F803E0
F803E0
FC07E0
7FFFC0
7FFFC0
3FFF80
1FFF00
07FC00
ENDCHAR
STARTCHAR 0039
ENCODING 57
SWIDTH 552 0
DWIDTH 21 0
BBX 19 27 1 0
BITMAP
07FC00
1FFF00
3FFF80
7FFFC0
7FFFC0
FC07E0
F803E0
F803E0
F803E0
F803E0
FC03E0
7FFFE0
7FFFE0
3FFFE0
1FFFE0
03FFE0
0003E0
0003E0
0007E0
0007C0
000FC0
001FC0
FFFF80
FFFF00
FFFE00
FFFC00
FFE000
ENDCHAR
STARTCHAR 003A
ENCODING 58
SWIDTH 184 0
DWIDTH 7 0
BBX 5 21 1 0
BITMAP
F8
F8
F8
F8
F8
00
00
00
00
00
00
00
00
00
00
00
F8
F8
F8
F8
F8
ENDCHAR
STARTCHAR 003B
ENCODING 59
SWIDTH 210 0
DWIDTH 8 0
BBX 8 29 -1 -8
BITMAP
1F
1F
1F
1F
1F
00
00
00
00
00
00
00
00
00
00
00
1F
1F
1F
1F
1F
1F
3F
7F
FE
FE
FC
F8
E0
ENDCHAR
STARTCHAR 003C
ENCODING 60
SWIDTH 473 0
DWIDTH 18 0
BBX 16 21 1 3
BITMAP
001F
001F
003F
003E
007E
00FE
1FFC
3FF8
7FF0
7FE0
FF80
FF80
7FE0
7FF0
3FF8
1FFC
00FE
007E
003F
001F
001F
ENDCHAR
STARTCHAR 003D
ENCODING 61
SWIDTH 500 0
DWIDTH 19 0
BBX 16 16 1 5
BITMAP
FFFF
FFFF
FFFF
FFFF
FFFF
0000
0000
0000
0000
0000
0000
FFFF
FFFF
FFFF
FFFF
FFFF
ENDCHAR
STARTCHAR 003E
ENCODING 62
SWIDTH 500 0
DWIDTH 19 0
BBX 16 21 1 3
BITMAP
F800
F800
F800
7C00
7E00
7F00
3FF8
1FFC
0FFE
07FE
01FF
01FF
07FE
0FFE
1FFC
3FF8
7F00
7E00
FC00
F800
F800
ENDCHAR
STARTCHAR 003F
ENCODING 63
SWIDTH 552 0
DWIDTH 21 0
BBX 19 29 1 0
BITMAP
03F800
0FFE00
1FFF00
3FFF80
7FFFC0
7E0FC0
FC07E0
F803E0
F803E0
0003E0
0003E0
0007E0
000FC0
01FFC0
01FF80
01FF00
01FE00
01F800
01F000
01F000
01F000
000000
000000
000000
01F000
01F000
01F000
01F000
01F000
ENDCHAR
STARTCHAR 0040
ENCODING 64
SWIDTH 815 0
DWIDTH 31 0
BBX 29 29 1 -1
BITMAP
01FFFC00
07FFFF00
0FFFFF80
1FFFFFC0
3FFFFFE0
7F0007F0
7E0003F0
FC0001F8
F81FC0F8
F83FE0F8
F87FF0F8
F8FFF8F8
F8FFF8F8
F8F8F8F8
F8F8F8F8
F8F8F8F8
F8FFFFF8
F8FFFFF8
F87FFFF8
F83FFFF8
F81FFFF8
FC000000
7E000000
7F000000
3FFFFFF8
1FFFFFF8
0FFFFFF8
07FFFFF8
01FFFFF8
ENDCHAR
STARTCHAR 0041
ENCODING 65
SWIDTH 605 0
DWIDTH 23 0
BBX 21 27 1 0
BITMAP
01FC00
07FF00
0FFF80
1FFFC0
3FFFE0
7F07F0
7E03F0
FC01F0
FC01F8
F800F8
F800F8
FFFFF8
FFFFF8
FFFFF8
FFFFF8
FFFFF8
F800F8
F800F8
F800F8
F800F8
F800F8
F800F8
F800F8
F800F8
F800F8
F800F8
F800F8
ENDCHAR
STARTCHAR 0042
ENCODING 66
SWIDTH 552 0
DWIDTH 21 0
BBX 19 27 1 0
BITMAP
FFFC00
FFFF00
FFFF80
FFFFC0
FFFFC0
F807E0
F803E0
F803E0
F803E0
F803E0
F807E0
FFFFC0
FFFFC0
FFFF80
FFFFC0
FFFFC0
F807E0
F803E0
F803E0
F803E0
F803E0
F807E0
FFFFC0
FFFFC0
FFFF80
FFFF00
FFFC00
ENDCHAR
STARTCHAR 0043
ENCODING 67
SWIDTH 605 0
DWIDTH 23 0
BBX 21 27 1 0
BITMAP
01FC00
07FF00
0FFF80
1FFFC0
3FFFE0
7F07F0
7E03F0
FC01F8
F800F8
F800F8
F80000
F80000
F80000
F80000
F80000
F80000
F80000
F800F8
F800F8
7C01F8
7E03F0
7F07F0
3FFFE0
1FFFC0
0FFF80
07FF00
01FC00
ENDCHAR
STARTCHAR 0044
ENCODING 68
SWIDTH 552 0
DWIDTH 21 0
BBX 19 27 1 0
BITMAP
FFE000
FFFC00
FFFE00
FFFF00
FFFF80
F83FC0
F80FC0
F807C0
F803E0
F803E0
F803E0
F803E0
F803E0
F803E0
F803E0
F803E0
F803E0
F803E0
F803E0
F807C0
F80FC0
F83FC0
FFFF80
FFFF00
FFFE00
FFFC00
FFE000
ENDCHAR
STARTCHAR 0045
ENCODING 69
SWIDTH 500 0
DWIDTH 19 0
BBX 16 27 1 0
BITMAP
FFFF
FFFF
FFFF
FFFF
FFFF
F800
F800
F800
F800
F800
F800
FFFF
FFFF
FFFF
FFFF
FFFF
F800
F800
F800
F800
F800
F800
FFFF
FFFF
FFFF
FFFF
FFFF
ENDCHAR
STARTCHAR 0046
ENCODING 70
SWIDTH 500 0
DWIDTH 19 0
BBX 16 27 1 0
BITMAP
FFFF
FFFF
FFFF
FFFF
FFFF
F800
F800
F800
F800
F800
F800
FFFF
FFFF
FFFF
FFFF
FFFF
F800
F800
F800
F800
F800
F800
F800
F800
F800
F800
F800
ENDCHAR
STARTCHAR 0047
ENCODING 71
SWIDTH 605 0
DWIDTH 23 0
BBX 21 27 1 0
BITMAP
01FFF8
07FFF8
0FFFF8
1FFFF8
3FFFF8
7F0000
7E0000
FC0000
F80000
F80000
F80000
F81FF8
F81FF8
F81FF8
F81FF8
F81FF8
F800F8
F800F8
F801F8
7C01F8
7E03F0
7F07F0
3FFFE0
1FFFC0
0FFF80
07FF00
01FC00
ENDCHAR
STARTCHAR 0048
ENCODING 72
SWIDTH 552 0
DWIDTH 21 0
BBX 19 27 1 0
BITMAP
F803E0
F803E0
F803E0
F803E0
F803E0
F803E0
F803E0
F803E0
F803E0
F803E0
F803E0
FFFFE0
FFFFE0
FFFFE0
FFFFE0
FFFFE0
F803E0
F803E0
F803E0
F803E0
F803E0
F803E0
F803E0
F803E0
F803E0
F803E0
F803E0
ENDCHAR
STARTCHAR 0049
ENCODING 73
SWIDTH 500 0
DWIDTH 19 0
BBX 15 27 2 0
BITMAP
FFFE
FFFE
FFFE
FFFE
FFFE
07C0
07C0
07C0
07C0
07C0
07C0
07C0
07C0
07C0
07C0
07C0
07C0
07C0
07C0
07C0
07C0
07C0
FFFE
FFFE
FFFE
FFFE
FFFE
ENDCHAR
STARTCHAR 004A
ENCODING 74
SWIDTH 605 0
DWIDTH 23 0
BBX 21 27 1 0
BITMAP
001FF8
001FF8
001FF8
001FF8
001FF8
0000F8
0000F8
0000F8
0000F8
0000F8
0000F8
0000F8
0000F8
0000F8
F800F8
F800F8
F800F8
F800F8
F800F8
FC01F8
7E03F0
7F07F0
3FFFE0
1FFFC0
0FFF80
07FF00
01FC00
ENDCHAR
STARTCHAR 004B
ENCODING 75
SWIDTH 552 0
DWIDTH 21 0
BBX 19 27 1 0
BITMAP
F803E0
F803E0
F803E0
F803E0
F803E0
F803E0
F803E0
F803E0
F807E0
F80FC0
F83FC0
FFFF80
FFFF00
FFFE00
FFFF00
FFFF80
F83FC0
F80FC0
F807E0
F803E0
F803E0
F803E0
F803E0
F803E0
F803E0
F803E0
F803E0
ENDCHAR
STARTCHAR 004C
ENCODING 76
SWIDTH 552 0
DWIDTH 21 0
BBX 18 27 1 0
BITMAP
F80000
F80000
F80000
F80000
F80000
F80000
F80000
F80000
F80000
F80000
F80000
F80000
F80000
F80000
F80000
F80000
F80000
F80000
F80000
F80000
F80000
F80000
FFFFC0
FFFFC0
FFFFC0
FFFFC0
FFFFC0
ENDCHAR
STARTCHAR 004D
ENCODING 77
SWIDTH 763 0
DWIDTH 29 0
BBX 27 27 1 0
BITMAP
FF001FE0
FFE0FFE0
FFF1FFE0
FFFBFFE0
FFFFFFE0
F9FFF3E0
F87FC3E0
F83F83E0
F81F03E0
F81F03E0
F81F03E0
F81F03E0
F81F03E0
F81F03E0
F81F03E0
F81F03E0
F81F03E0
F81F03E0
F81F03E0
F81F03E0
F81F03E0
F81F03E0
F81F03E0
F81F03E0
F81F03E0
F81F03E0
F81F03E0
ENDCHAR
STARTCHAR 004E
ENCODING 78
SWIDTH 657 0
DWIDTH 25 0
BBX 23 27 1 0
BITMAP
FF003E
FFC03E
FFE03E
FFF03E
FFF83E
F9F83E
F8F83E
F87C3E
F87C3E
F87C3E
F87C3E
F87C3E
F87C3E
F87C3E
F87C3E
F87C3E
F87C3E
F87C3E
F87C3E
F87C3E
F87E3E
F83F3E
F83FFE
F81FFE
F80FFE
F807FE
F801FE
ENDCHAR
STARTCHAR 004F
ENCODING 79
SWIDTH 605 0
DWIDTH 23 0
BBX 21 27 1 0
BITMAP
01FC00
07FF00
0FFF80
1FFFC0
3FFFE0
7F07F0
7E03F0
FC01F0
F800F8
F800F8
F800F8
F800F8
F800F8
F800F8
F800F8
F800F8
F800F8
F800F8
F800F8
7C01F8
7E03F0
7F07F0
3FFFE0
1FFFC0
0FFF80
07FF00
01FC00
ENDCHAR
STARTCHAR 0050
ENCODING 80
SWIDTH 552 0
DWIDTH 21 0
BBX 19 27 1 0
BITMAP
FFFC00
FFFF00
FFFF80
FFFFC0
FFFFC0
F807E0
F803E0
F803E0
F803E0
F803E0
F807E0
FFFFC0
FFFFC0
FFFF80
FFFE00
FFF800
F80000
F80000
F80000
F80000
F80000
F80000
F80000
F80000
F80000
F80000
F80000
ENDCHAR
STARTCHAR 0051
ENCODING 81
SWIDTH 605 0
DWIDTH 23 0
BBX 21 35 1 -8
BITMAP
01FC00
07FF00
0FFF80
1FFFC0
3FFFE0
7F07F0
7E03F0
FC01F0
F800F8
F800F8
F800F8
F800F8
F800F8
F800F8
F800F8
F800F8
F800F8
F800F8
FC01F8
7E03F8
7F07F0
7FFFF0
3FFFE0
1FFFC0
0FFF80
07FF00
01FC00
00FC00
007E00
007F00
003FF8
001FF8
000FF8
0007F8
0001F8
ENDCHAR
STARTCHAR 0052
ENCODING 82
SWIDTH 552 0
DWIDTH 21 0
BBX 19 27 1 0
BITMAP
FFFC00
FFFF00
FFFF80
FFFFC0
FFFFC0
F807E0
F803E0
F803E0
F803E0
F803E0
F807E0
FFFFC0
FFFFC0
FFFF80
FFFF00
FFFF80
F83FC0
F80FC0
F807E0
F803E0
F803E0
F803E0
F803E0
F803E0
F803E0
F803E0
F803E0
ENDCHAR
STARTCHAR 0053
ENCODING 83
SWIDTH 552 0
DWIDTH 21 0
BBX 19 27 1 0
BITMAP
07FFE0
1FFFE0
3FFFE0
7FFFE0
7FFFE0
FC0000
F80000
F80000
F80000
F80000
FC0000
7FF800
7FFE00
3FFF80
1FFFC0
03FFC0
0007E0
0003E0
0003E0
0003E0
0003E0
0007E0
FFFFC0
FFFFC0
FFFF80
FFFF00
FFFC00
ENDCHAR
STARTCHAR 0054
ENCODING 84
SWIDTH 631 0
DWIDTH 24 0
BBX 21 27 1 0
BITMAP
FFFFF8
FFFFF8
FFFFF8
FFFFF8
FFFFF8
00F800
00F800
00F800
00F800
00F800
00F800
00F800
00F800
00F800
00F800
00F800
00F800
00F800
00F800
00F800
00F800
00F800
00F800
00F800
00F800
00F800
00F800
ENDCHAR
STARTCHAR 0055
ENCODING 85
SWIDTH 605 0
DWIDTH 23 0
BBX 21 27 1 0
BITMAP
F800F8
F800F8
F800F8
F800F8
F800F8
F800F8
F800F8
F800F8
F800F8
F800F8
F800F8
F800F8
F800F8
F800F8
F800F8
F800F8
F800F8
F800F8
F800F8
7C01F8
7E03F0
7F07F0
3FFFE0
1FFFC0
0FFF80
07FF00
01FC00
ENDCHAR
STARTCHAR 0056
ENCODING 86
SWIDTH 552 0
DWIDTH 21 0
BBX 19 27 1 0
BITMAP
F803E0
F803E0
F803E0
F803E0
F803E0
F803E0
F803E0
F803E0
F803E0
F803E0
F803E0
F803E0
F803E0
F803E0
F803E0
F803E0
F803E0
F803E0
F803E0
F807C0
F80FC0
F83FC0
FFFF80
FFFF00
FFFE00
FFFC00
FFE000
ENDCHAR
STARTCHAR 0057
ENCODING 87
SWIDTH 763 0
DWIDTH 29 0
BBX 27 27 1 0
BITMAP
F81F03E0
F81F03E0
F81F03E0
F81F03E0
F81F03E0
F81F03E0
F81F03E0
F81F03E0
F81F03E0
F81F03E0
F81F03E0
F81F03E0
F81F03E0
F81F03E0
F81F03E0
F81F03E0
F81F03E0
F81F03E0
F81F03E0
F83F83E0
F87FC3E0
F9FFF3E0
FFFFFFE0
FFFBFFE0
FFF1FFE0
FFE0FFE0
FF001FE0
ENDCHAR
STARTCHAR 0058
ENCODING 88
SWIDTH 605 0
DWIDTH 23 0
BBX 21 27 1 0
BITMAP
FC00F8
FF00F8
FF80F8
FFE0F8
FFE0F8
07F1F8
03F3F0
01FFF0
00FFE0
00FFE0
00FFC0
00FF80
00FE00
00F800
03F800
0FF800
1FF800
3FF800
3FF800
7FFC00
7EFE00
FC7F00
F83FF8
F83FF8
F81FF8
F807F8
F801F8
ENDCHAR
STARTCHAR 0059
ENCODING 89
SWIDTH 605 0
DWIDTH 23 0
BBX 21 27 1 0
BITMAP
F800F8
F800F8
F800F8
F800F8
F800F8
FC01F8
7E03F0
7F07F0
3FFFE0
3FFFE0
1FFFC0
0FFF80
03FE00
00F800
00F800
00F800
00F800
00F800
00F800
00F800
00F800
00F800
00F800
00F800
00F800
00F800
00F800
ENDCHAR
STARTCHAR 005A
ENCODING 90
SWIDTH 605 0
DWIDTH 23 0
BBX 21 27 1 0
BITMAP
FFFFF8
FFFFF8
FFFFF8
FFFFF8
FFFFF8
0000F8
0000F8
0001F8
0001F8
0003F0
0007F0
01FFE0
07FFC0
0FFF80
1FFF00
3FFC00
7F0000
7E0000
FC0000
F80000
F80000
F80000
FFFFF8
FFFFF8
FFFFF8
FFFFF8
FFFFF8
ENDCHAR
STARTCHAR 005B
ENCODING 91
SWIDTH 342 0
DWIDTH 13 0
BBX 10 37 1 -5
BITMAP
FFC0
FFC0
FFC0
FFC0
FFC0
F800
F800
F800
F800
F800
F800
F800
F800
F800
F800
F800
F800
F800
F800
F800
F800
F800
F800
F800
F800
F800
F800
F800
F800
F800
F800
F800
FFC0
FFC0
FFC0
FFC0
FFC0
ENDCHAR
STARTCHAR 005C
ENCODING 92
SWIDTH 605 0
DWIDTH 23 0
BBX 21 37 1 -5
BITMAP
F80000
F80000
F80000
F80000
F80000
F80000
F80000
F80000
F80000
F80000
F80000
F80000
F80000
FC0000
7E0000
7F0000
3FFC00
1FFF00
0FFF80
07FFC0
01FFE0
0007F0
0003F0
0001F8
0000F8
0000F8
0000F8
0000F8
0000F8
0000F8
0000F8
0000F8
0000F8
0000F8
0000F8
0000F8
0000F8
ENDCHAR
STARTCHAR 005D
ENCODING 93
SWIDTH 342 0
DWIDTH 13 0
BBX 10 37 2 -5
BITMAP
FFC0
FFC0
FFC0
FFC0
FFC0
07C0
07C0
07C0
07C0
07C0
07C0
07C0
07C0
07C0
07C0
07C0
07C0
07C0
07C0
07C0
07C0
07C0
07C0
07C0
07C0
07C0
07C0
07C0
07C0
07C0
07C0
07C0
FFC0
FFC0
FFC0
FFC0
FFC0
ENDCHAR
STARTCHAR 005E
ENCODING 94
SWIDTH 500 0
DWIDTH 19 0
BBX 16 10 1 22
BITMAP
03C0
0FF0
1FF8
1FF8
1FF8
FFFF
FFFF
FE7F
FC3F
F81F
ENDCHAR
STARTCHAR 005F
ENCODING 95
SWIDTH 710 0
DWIDTH 27 0
BBX 24 5 1 -5
BITMAP
FFFFFF
FFFFFF
FFFFFF
FFFFFF
FFFFFF
ENDCHAR
STARTCHAR 0060
ENCODING 96
SWIDTH 289 0
DWIDTH 11 0
BBX 8 11 1 24
BITMAP
F8
F8
F8
F8
FC
FF
7F
7F
3F
1F
07
ENDCHAR
STARTCHAR 0061
ENCODING 97
SWIDTH 473 0
DWIDTH 18 0
BBX 16 21 1 0
BITMAP
FFE0
FFF8
FFFC
FFFE
FFFE
003F
001F
001F
1FFF
7FFF
7FFF
FFFF
FFFF
F81F
F81F
F81F
FFFF
FFFF
7FFF
7FFF
1FFF
ENDCHAR
STARTCHAR 0062
ENCODING 98
SWIDTH 473 0
DWIDTH 18 0
BBX 16 29 1 0
BITMAP
F800
F800
F800
F800
F800
F800
F800
F800
FFE0
FFF8
FFFC
FFFE
FFFE
F83F
F81F
F81F
F81F
F81F
F81F
F81F
F81F
F81F
F81F
FC3F
7FFE
7FFE
3FFC
1FF8
07E0
ENDCHAR
STARTCHAR 0063
ENCODING 99
SWIDTH 473 0
DWIDTH 18 0
BBX 16 21 1 0
BITMAP
07E0
1FF8
3FFC
7FFE
7FFE
FC3F
F81F
F81F
F800
F800
F800
F800
F800
F81F
F81F
FC3F
7FFE
7FFE
3FFC
1FF8
07E0
ENDCHAR
STARTCHAR 0064
ENCODING 100
SWIDTH 473 0
DWIDTH 18 0
BBX 16 29 1 0
BITMAP
001F
001F
001F
001F
001F
001F
001F
001F
07FF
1FFF
3FFF
7FFF
7FFF
FC1F
F81F
F81F
F81F
F81F
F81F
F81F
F81F
F81F
F81F
FC3F
7FFE
7FFE
3FFC
1FF8
07E0
ENDCHAR
STARTCHAR 0065
ENCODING 101
SWIDTH 473 0
DWIDTH 18 0
BBX 16 21 1 0
BITMAP
07E0
1FF8
3FFC
7FFE
7FFE
FC3F
F81F
F81F
FFFF
FFFF
FFFE
FFFE
FFF8
F800
F800
FC00
7FFF
7FFF
3FFF
1FFF
07FF
ENDCHAR
STARTCHAR 0066
ENCODING 102
SWIDTH 421 0
DWIDTH 16 0
BBX 13 29 1 0
BITMAP
00F8
03F8
07F8
0FF8
0FF8
1F80
1F00
1F00
FFF8
FFF8
FFF8
FFF8
FFF8
1F00
1F00
1F00
1F00
1F00
1F00
1F00
1F00
1F00
1F00
1F00
1F00
1F00
1F00
1F00
1F00
ENDCHAR
STARTCHAR 0067
ENCODING 103
SWIDTH 473 0
DWIDTH 18 0
BBX 16 29 1 -8
BITMAP
07E0
1FF8
3FFC
7FFE
7FFE
FC3F
F81F
F81F
F81F
F81F
F81F
F81F
F81F
F81F
F81F
FC1F
7FFF
7FFF
3FFF
1FFF
07FF
003F
007E
01FE
FFFC
FFF8
FFF0
FFE0
FF00
ENDCHAR
STARTCHAR 0068
ENCODING 104
SWIDTH 473 0
DWIDTH 18 0
BBX 16 29 1 0
BITMAP
F800
F800
F800
F800
F800
F800
F800
F800
FFE0
FFF8
FFFC
FFFE
FFFE
F83F
F81F
F81F
F81F
F81F
F81F
F81F
F81F
F81F
F81F
F81F
F81F
F81F
F81F
F81F
F81F
ENDCHAR
STARTCHAR 0069
ENCODING 105
SWIDTH 184 0
DWIDTH 7 0
BBX 5 29 1 0
BITMAP
F8
F8
F8
F8
F8
00
00
00
F8
F8
F8
F8
F8
F8
F8
F8
F8
F8
F8
F8
F8
F8
F8
F8
F8
F8
F8
F8
F8
ENDCHAR
STARTCHAR 006A
ENCODING 106
SWIDTH 184 0
DWIDTH 7 0
BBX 10 37 -4 -8
BITMAP
07C0
07C0
07C0
07C0
07C0
0000
0000
0000
07C0
07C0
07C0
07C0
07C0
07C0
07C0
07C0
07C0
07C0
07C0
07C0
07C0
07C0
07C0
07C0
07C0
07C0
07C0
07C0
07C0
0FC0
1F80
3F80
FF00
FE00
FC00
F800
E000
ENDCHAR
STARTCHAR 006B
ENCODING 107
SWIDTH 473 0
DWIDTH 18 0
BBX 16 29 1 0
BITMAP
F800
F800
F800
F800
F800
F800
F800
F800
F81F
F81F
F81F
F81F
F81F
F81F
F81F
F83F
FFFE
FFFE
FFFC
FFFE
FFFE
F83F
F81F
F81F
F81F
F81F
F81F
F81F
F81F
ENDCHAR
STARTCHAR 006C
ENCODING 108
SWIDTH 184 0
DWIDTH 7 0
BBX 5 29 1 0
BITMAP
F8
F8
F8
F8
F8
F8
F8
F8
F8
F8
F8
F8
F8
F8
F8
F8
F8
F8
F8
F8
F8
F8
F8
F8
F8
F8
F8
F8
F8
ENDCHAR
STARTCHAR 006D
ENCODING 109
SWIDTH 763 0
DWIDTH 29 0
BBX 27 21 1 0
BITMAP
FFFFFC00
FFFFFF00
FFFFFF80
FFFFFFC0
FFFFFFC0
F81F07E0
F81F03E0
F81F03E0
F81F03E0
F81F03E0
F81F03E0
F81F03E0
F81F03E0
F81F03E0
F81F03E0
F81F03E0
F81F03E0
F81F03E0
F81F03E0
F81F03E0
F81F03E0
ENDCHAR
STARTCHAR 006E
ENCODING 110
SWIDTH 473 0
DWIDTH 18 0
BBX 16 21 1 0
BITMAP
FFE0
FFF8
FFFC
FFFE
FFFE
F83F
F81F
F81F
F81F
F81F
F81F
F81F
F81F
F81F
F81F
F81F
F81F
F81F
F81F
F81F
F81F
ENDCHAR
STARTCHAR 006F
ENCODING 111
SWIDTH 473 0
DWIDTH 18 0
BBX 16 21 1 0
BITMAP
07E0
1FF8
3FFC
7FFE
7FFE
FC3F
F81F
F81F
F81F
F81F
F81F
F81F
F81F
F81F
F81F
FC3F
7FFE
7FFE
3FFC
1FF8
07E0
ENDCHAR
STARTCHAR 0070
ENCODING 112
SWIDTH 473 0
DWIDTH 18 0
BBX 16 29 1 -8
BITMAP
07E0
1FF8
3FFC
7FFE
7FFE
FC3F
F81F
F81F
F81F
F81F
F81F
F81F
F81F
F81F
F81F
F83F
FFFE
FFFE
FFFC
FFF8
FFE0
F800
F800
F800
F800
F800
F800
F800
F800
ENDCHAR
STARTCHAR 0071
ENCODING 113
SWIDTH 473 0
DWIDTH 18 0
BBX 16 29 1 -8
BITMAP
07E0
1FF8
3FFC
7FFE
7FFE
FC3F
F81F
F81F
F81F
F81F
F81F
F81F
F81F
F81F
F81F
FC1F
7FFF
7FFF
3FFF
1FFF
07FF
001F
001F
001F
001F
001F
001F
001F
001F
ENDCHAR
STARTCHAR 0072
ENCODING 114
SWIDTH 500 0
DWIDTH 19 0
BBX 16 21 1 0
BITMAP
FFC0
FFF0
FFF8
FFFC
FFFE
F87E
F83E
F83F
F800
F800
F800
F800
F800
F800
F800
F800
F800
F800
F800
F800
F800
ENDCHAR
STARTCHAR 0073
ENCODING 115
SWIDTH 473 0
DWIDTH 18 0
BBX 16 21 1 0
BITMAP
1FFF
7FFF
7FFF
FFFF
FFFF
F800
F800
F800
FFF8
FFFC
7FFE
7FFF
1FFF
001F
001F
001F
FFFF
FFFF
FFFE
FFFE
FFF8
ENDCHAR
STARTCHAR 0074
ENCODING 116
SWIDTH 342 0
DWIDTH 13 0
BBX 10 29 1 0
BITMAP
F800
F800
F800
F800
F800
F800
F800
F800
FFC0
FFC0
FFC0
FFC0
FFC0
F800
F800
F800
F800
F800
F800
F800
F800
F800
F800
FC00
7FC0
7FC0
3FC0
1FC0
07C0
ENDCHAR
STARTCHAR 0075
ENCODING 117
SWIDTH 473 0
DWIDTH 18 0
BBX 16 21 1 0
BITMAP
F81F
F81F
F81F
F81F
F81F
F81F
F81F
F81F
F81F
F81F
F81F
F81F
F81F
F81F
F81F
FC3F
7FFE
7FFE
3FFC
1FF8
07E0
ENDCHAR
STARTCHAR 0076
ENCODING 118
SWIDTH 473 0
DWIDTH 18 0
BBX 16 21 1 0
BITMAP
F81F
F81F
F81F
F81F
F81F
F81F
F81F
F81F
F81F
F81F
F81F
F81F
F81F
F83F
F87E
F9FE
FFFC
FFF8
FFF0
FFE0
FF00
ENDCHAR
STARTCHAR 0077
ENCODING 119
SWIDTH 763 0
DWIDTH 29 0
BBX 27 21 1 0
BITMAP
F81F03E0
F81F03E0
F81F03E0
F81F03E0
F81F03E0
F81F03E0
F81F03E0
F81F03E0
F81F03E0
F81F03E0
F81F03E0
F81F03E0
F81F03E0
F81F03E0
F81F03E0
F81F07E0
FFFFFFC0
FFFFFFC0
FFFFFF80
FFFFFF00
FFFFFC00
ENDCHAR
STARTCHAR 0078
ENCODING 120
SWIDTH 552 0
DWIDTH 21 0
BBX 19 21 1 0
BITMAP
F803E0
FE03E0
FF83E0
FFC7E0
FFE7E0
0FEFC0
07FFC0
03FF80
03FF00
01FE00
07FC00
0FF000
1FF800
3FF800
7FFC00
7EFE00
FCFFE0
F87FE0
F83FE0
F80FE0
F803E0
ENDCHAR
STARTCHAR 0079
ENCODING 121
SWIDTH 473 0
DWIDTH 18 0
BBX 16 29 1 -8
BITMAP
F81F
F81F
F81F
F81F
F81F
F81F
F81F
F81F
F81F
F81F
F81F
F81F
F81F
F81F
F81F
FC1F
7FFF
7FFF
3FFF
1FFF
07FF
003F
007E
01FE
FFFC
FFF8
FFF0
FFE0
FF00
ENDCHAR
STARTCHAR 007A
ENCODING 122
SWIDTH 473 0
DWIDTH 18 0
BBX 16 21 1 0
BITMAP
FFFF
FFFF
FFFF
FFFF
FFFF
001F
001F
001F
1FFF
7FFF
7FFE
FFFE
FFF8
F800
F800
F800
FFFF
FFFF
FFFF
FFFF
FFFF
ENDCHAR
STARTCHAR 007B
ENCODING 123
SWIDTH 500 0
DWIDTH 19 0
BBX 15 37 2 -5
BITMAP
000E
003E
007E
00FE
01FE
03F8
03F0
07E0
07C0
07C0
07C0
07C0
07C0
07C0
07C0
07C0
FFC0
FFC0
FFC0
FFC0
FFC0
07C0
07C0
07C0
07C0
07C0
07C0
07C0
07C0
07E0
03F0
03F8
01FE
00FE
007E
003E
000E
ENDCHAR
STARTCHAR 007C
ENCODING 124
SWIDTH 184 0
DWIDTH 7 0
BBX 5 37 1 -5
BITMAP
F8
F8
F8
F8
F8
F8
F8
F8
F8
F8
F8
F8
F8
F8
F8
F8
F8
F8
F8
F8
F8
F8
F8
F8
F8
F8
F8
F8
F8
F8
F8
F8
F8
F8
F8
F8
F8
ENDCHAR
STARTCHAR 007D
ENCODING 125
SWIDTH 500 0
DWIDTH 19 0
BBX 15 37 2 -5
BITMAP
E000
F800
FC00
FE00
FF00
3F80
1F80
0FC0
07C0
07C0
07C0
07C0
07C0
07C0
07C0
07C0
07FE
07FE
07FE
07FE
07FE
07C0
07C0
07C0
07C0
07C0
07C0
07C0
07C0
0FC0
1F80
3F80
FF00
FE00
FC00
F800
E000
ENDCHAR
STARTCHAR 007E
ENCODING 126
SWIDTH 552 0
DWIDTH 21 0
BBX 19 11 1 8
BITMAP
F83F00
F8FF80
F9FFC0
F9FFE0
F9FFE0
FFFFE0
FFF3E0
FFF3E0
7FF3E0
3FE3E0
1F83E0
ENDCHAR
STARTCHAR 00A0
ENCODING 160
SWIDTH 289 0
DWIDTH 11 0
BBX 0 0 0 0
BITMAP
ENDCHAR
STARTCHAR 00A1
ENCODING 161
SWIDTH 184 0
DWIDTH 7 0
BBX 5 26 1 -5
BITMAP
F8
F8
F8
F8
F8
00
00
F8
F8
F8
F8
F8
F8
F8
F8
F8
F8
F8
F8
F8
F8
F8
F8
F8
F8
F8
ENDCHAR
STARTCHAR 00A2
ENCODING 162
SWIDTH 447 0
DWIDTH 17 0
BBX 15 32 1 -5
BITMAP
07C0
07C0
07C0
07C0
07C0
07C0
0FE0
3FF8
7FF8
7FFC
FFFC
FC7E
F83E
F800
F800
F800
F800
F800
F800
F83E
FC7E
FFFE
7FFC
7FFC
3FF8
1FE0
07C0
07C0
07C0
07C0
07C0
07C0
ENDCHAR
STARTCHAR 00A3
ENCODING 163
SWIDTH 605 0
DWIDTH 23 0
BBX 20 27 1 0
BITMAP
00FE00
03FF80
07FFC0
0FFFE0
0FFFE0
1F87F0
1F03F0
1F01F0
1F0000
1F0000
1F0000
FFFE00
FFFE00
FFFE00
FFFE00
FFFE00
1F0000
1F0000
1F0000
1F0000
1F0000
1F0000
FFFFF0
FFFFF0
FFFFF0
FFFFF0
FFFFF0
ENDCHAR
STARTCHAR 00A4
ENCODING 164
SWIDTH 631 0
DWIDTH 24 0
BBX 22 30 1 -3
BITMAP
F0003C
FC00FC
FE01FC
FF03FC
FF87FC
3FCFE0
0FCFC0
07FF80
07FF80
07FF80
0FFFC0
0FFFC0
1FCFE0
1F87E0
1F03E0
1F03E0
1F07E0
1FCFE0
0FFFC0
0FFFC0
07FF80
07FF80
07FF80
0FCFC0
1FCFE0
FF87FC
FF03FC
FE01FC
FC00FC
F0003C
ENDCHAR
STARTCHAR 00A5
ENCODING 165
SWIDTH 605 0
DWIDTH 23 0
BBX 21 27 1 0
BITMAP
F800F8
F800F8
F800F8
F800F8
F800F8
FC01F8
7E03F0
7F07F0
7FFFF0
3FFFE0
1FFFC0
0FFF80
07FF00
01FC00
00F800
00F800
00F800
FFFFF8
FFFFF8
FFFFF8
FFFFF8
FFFFF8
00F800
00F800
00F800
00F800
00F800
ENDCHAR
STARTCHAR 00A6
ENCODING 166
SWIDTH 210 0
DWIDTH 8 0
BBX 5 37 1 -5
BITMAP
F8
F8
F8
F8
F8
F8
F8
F8
F8
F8
F8
F8
F8
F8
F8
F8
00
00
00
00
00
F8
F8
F8
F8
F8
F8
F8
F8
F8
F8
F8
F8
F8
F8
F8
F8
ENDCHAR
STARTCHAR 00A7
ENCODING 167
SWIDTH 473 0
DWIDTH 18 0
BBX 16 32 1 -3
BITMAP
00FF
07FF
0FFF
1FFF
3FFF
7F80
7E00
FC00
FFE0
FFF8
FFFC
FFFE
FFFE
FC3F
F81F
F81F
F81F
F81F
FC3F
7FFF
7FFF
3FFF
1FFF
07FF
003F
007E
01FE
FFFC
FFF8
FFF0
FFE0
FF00
ENDCHAR
STARTCHAR 00A8
ENCODING 168
SWIDTH 394 0
DWIDTH 15 0
BBX 13 5 1 25
BITMAP
F8F8
F8F8
F8F8
F8F8
F8F8
ENDCHAR
STARTCHAR 00A9
ENCODING 169
SWIDTH 815 0
DWIDTH 31 0
BBX 29 32 1 -3
BITMAP
01FFFC00
07FFFF00
0FFFFF80
1FFFFFC0
3FFFFFE0
7F0007F0
7E0003F0
FC0001F8
F81FC0F8
F83FE0F8
F87FF0F8
F8FFF8F8
F8FFF8F8
F8F8F8F8
F8F8F8F8
F8F800F8
F8F800F8
F8F8F8F8
F8F8F8F8
F8FFF8F8
F8FFF8F8
F87FF0F8
F83FE0F8
F81FC0F8
FC0001F8
7E0003F0
7F0007F0
3FFFFFE0
1FFFFFC0
0FFFFF80
07FFFF00
01FFFC00
ENDCHAR
STARTCHAR 00AA
ENCODING 170
SWIDTH 421 0
DWIDTH 16 0
BBX 14 18 1 11
BITMAP
FF00
FFC0
FFE0
FFF0
FFF8
01F8
00FC
1FFC
3FFC
7FFC
7FFC
FFFC
FCFC
FFFC
7FFC
7FFC
3FFC
1FFC
ENDCHAR
STARTCHAR 00AB
ENCODING 171
SWIDTH 868 0
DWIDTH 33 0
BBX 31 21 1 3
BITMAP
001F003E
001F003E
003F007E
003E007C
007E00FC
00FE01FC
1FFC3FF8
3FF87FF0
7FF0FFE0
7FE1FFC0
FF81FF00
FF81FF00
7FE1FFC0
7FF0FFE0
3FF87FF0
1FFC3FF8
00FE01FC
007E00FC
003F007E
001F003E
001F003E
ENDCHAR
STARTCHAR 00AC
ENCODING 172
SWIDTH 473 0
DWIDTH 18 0
BBX 16 11 1 5
BITMAP
FFFF
FFFF
FFFF
FFFF
FFFF
001F
001F
001F
001F
001F
001F
ENDCHAR
STARTCHAR 00AD
ENCODING 173
SWIDTH 500 0
DWIDTH 19 0
BBX 16 5 1 11
BITMAP
FFFF
FFFF
FFFF
FFFF
FFFF
ENDCHAR
STARTCHAR 00AE
ENCODING 174
SWIDTH 815 0
DWIDTH 31 0
BBX 29 32 1 -3
BITMAP
01FFFC00
07FFFF00
0FFFFF80
1FFFFFC0
3FFFFFE0
7F0007F0
7E0003F0
FC0001F8
F8FFC0F8
F8FFE0F8
F8FFF0F8
F8FFF8F8
F8FFF8F8
F8F8F8F8
F8FFF8F8
F8FFF8F8
F8FFF8F8
F8FFF0F8
F8FFE0F8
F8FFF0F8
F8F9F8F8
F8F8F8F8
F8F8F8F8
F8F8F8F8
FC0001F8
7E0003F0
7F0007F0
3FFFFFE0
1FFFFFC0
0FFFFF80
07FFFF00
01FFFC00
ENDCHAR
STARTCHAR 00AF
ENCODING 175
SWIDTH 500 0
DWIDTH 19 0
BBX 16 5 1 25
BITMAP
FFFF
FFFF
FFFF
FFFF
FFFF
ENDCHAR
STARTCHAR 00B0
ENCODING 176
SWIDTH 394 0
DWIDTH 15 0
BBX 13 13 1 16
BITMAP
1FC0
3FE0
7FF0
FFF8
FFF8
F8F8
F8F8
F8F8
FFF8
FFF8
7FF0
7FF0
1FC0
ENDCHAR
STARTCHAR 00B1
ENCODING 177
SWIDTH 500 0
DWIDTH 19 0
BBX 16 24 1 1
BITMAP
03E0
03E0
03E0
03E0
03E0
7FFF
7FFF
7FFF
7FFF
7FFF
03E0
03E0
03E0
03E0
03E0
0000
0000
0000
0000
FFFF
FFFF
FFFF
FFFF
FFFF
ENDCHAR
STARTCHAR 00B2
ENCODING 178
SWIDTH 421 0
DWIDTH 16 0
BBX 14 18 1 11
BITMAP
FFE0
FFF0
FFF8
FFF8
FFFC
00FC
00FC
1FFC
3FF8
7FF8
7FF0
FFE0
FC00
FFFC
FFFC
FFFC
FFFC
FFFC
ENDCHAR
STARTCHAR 00B3
ENCODING 179
SWIDTH 421 0
DWIDTH 16 0
BBX 13 18 1 11
BITMAP
FFC0
FFF0
FFF0
FFF8
FFF8
00F8
00F8
FFF8
FFF8
FFF8
FFF8
FFF8
00F8
FFF8
FFF8
FFF0
FFF0
FFC0
ENDCHAR
STARTCHAR 00B4
ENCODING 180
SWIDTH 289 0
DWIDTH 11 0
BBX 8 11 1 24
BITMAP
1F
1F
1F
1F
3F
FF
FE
FE
FC
F8
E0
ENDCHAR
STARTCHAR 00B5
ENCODING 181
SWIDTH 552 0
DWIDTH 21 0
BBX 19 29 1 -8
BITMAP
F81F00
F81F00
F81F00
F81F00
F81F00
F81F00
F81F00
F81F00
F81F00
F81F00
F81F00
F81F00
F81F00
F81F00
F81F00
F83F80
FFFFE0
FFFFE0
FFFFE0
FFFBE0
FFE0E0
F80000
F80000
F80000
F80000
F80000
F80000
F80000
F80000
ENDCHAR
STARTCHAR 00B6
ENCODING 182
SWIDTH 763 0
DWIDTH 29 0
BBX 27 27 1 0
BITMAP
07FFE3E0
1FFFE3E0
3FFFE3E0
7FFFE3E0
7FFFE3E0
FC03E3E0
F803E3E0
F803E3E0
F803E3E0
F803E3E0
FC03E3E0
7FFFE3E0
7FFFE3E0
3FFFE3E0
1FFFE3E0
03FFE3E0
0003E3E0
0003E3E0
0003E3E0
0003E3E0
0003E3E0
0003E3E0
0003E3E0
0003E3E0
0003E3E0
0003E3E0
0003E3E0
ENDCHAR
STARTCHAR 00B7
ENCODING 183
SWIDTH 184 0
DWIDTH 7 0
BBX 5 5 1 11
BITMAP
F8
F8
F8
F8
F8
ENDCHAR
STARTCHAR 00B8
ENCODING 184
SWIDTH 342 0
DWIDTH 13 0
BBX 10 11 2 -8
BITMAP
07C0
07C0
07C0
07C0
07C0
0FC0
FF80
FF80
FF00
FE00
F800
ENDCHAR
STARTCHAR 00B9
ENCODING 185
SWIDTH 421 0
DWIDTH 16 0
BBX 11 18 3 11
BITMAP
FF00
FF00
FF00
FF00
FF00
1F00
1F00
1F00
1F00
1F00
1F00
1F00
1F00
FFE0
FFE0
FFE0
FFE0
FFE0
ENDCHAR
STARTCHAR 00BA
ENCODING 186
SWIDTH 394 0
DWIDTH 15 0
BBX 13 18 1 11
BITMAP
1FC0
7FF0
7FF0
FFF8
FFF8
F8F8
F8F8
F8F8
F8F8
F8F8
F8F8
F8F8
F8F8
FFF8
FFF8
7FF0
7FF0
1FC0
ENDCHAR
STARTCHAR 00BB
ENCODING 187
SWIDTH 868 0
DWIDTH 33 0
BBX 31 21 1 3
BITMAP
F801F000
F801F000
F801F000
7C00F800
7E00FC00
7F00FE00
3FF87FF0
1FFC3FF8
0FFE1FFC
07FF0FFC
01FF03FE
01FF03FE
07FF0FFC
0FFE1FFC
1FFC3FF8
3FF87FF0
7F00FE00
7E00FC00
FC01F800
F801F000
F801F000
ENDCHAR
STARTCHAR 00BC
ENCODING 188
SWIDTH 1315 0
DWIDTH 50 0
BBX 48 32 1 -3
BITMAP
FF00000F8000
FF00000F8000
FF00000F8000
FF00000F8000
FF00000F8000
1F00000F8000
1F00000F8000
1F00000F8000
1F00000F8000
1F00000F8000
1F00001F8000
1F00003F0000
1F00007F0000
FFE01FFE1F1F
FFE07FFC1F1F
FFE0FFF81F1F
FFE1FFF01F1F
FFE3FFC01F1F
0007F0001F1F
0007E0001F1F
000FC0001FFF
000F80001FFF
000F80000FFF
000F800007FF
000F800003FF
000F8000001F
000F8000001F
000F8000001F
000F8000001F
000F8000001F
000F8000001F
000F8000001F
ENDCHAR
STARTCHAR 00BD
ENCODING 189
SWIDTH 1342 0
DWIDTH 51 0
BBX 48 32 1 -3
BITMAP
FF00000F8000
FF00000F8000
FF00000F8000
FF00000F8000
FF00000F8000
1F00000F8000
1F00000F8000
1F00000F8000
1F00000F8000
1F00000F8000
1F00001F8000
1F00003F0000
1F00007F0000
FFE01FFE1FF8
FFE07FFC1FFE
FFE0FFF81FFE
FFE1FFF01FFF
FFE3FFC01FFF
0007F000001F
0007E000001F
000FC00003FF
000F800007FF
000F80000FFE
000F80001FFE
000F80001FF8
000F80001F00
000F80001F00
000F80001FFF
000F80001FFF
000F80001FFF
000F80001FFF
000F80001FFF
ENDCHAR
STARTCHAR 00BE
ENCODING 190
SWIDTH 1315 0
DWIDTH 50 0
BBX 48 32 1 -3
BITMAP
FFC0000F8000
FFF0000F8000
FFF0000F8000
FFF8000F8000
FFF8000F8000
00F8000F8000
00F8000F8000
FFF8000F8000
FFF8000F8000
FFF8000F8000
FFF8001F8000
FFF8003F0000
00F8007F0000
FFF81FFE1F1F
FFF87FFC1F1F
FFF0FFF81F1F
FFF1FFF01F1F
FFC3FFC01F1F
0007F0001F1F
0007E0001F1F
000FC0001FFF
000F80001FFF
000F80000FFF
000F800007FF
000F800003FF
000F8000001F
000F8000001F
000F8000001F
000F8000001F
000F8000001F
000F8000001F
000F8000001F
ENDCHAR
STARTCHAR 00BF
ENCODING 191
SWIDTH 552 0
DWIDTH 21 0
BBX 19 29 1 -5
BITMAP
01F000
01F000
01F000
01F000
01F000
000000
000000
000000
01F000
01F000
01F000
03F000
0FF000
1FF000
3FF000
7FF000
7E0000
FC0000
F80000
F80000
F803E0
F803E0
FC07E0
7E0FC0
7FFFC0
3FFF80
1FFF00
0FFE00
03F800
ENDCHAR
STARTCHAR 00C0
ENCODING 192
SWIDTH 605 0
DWIDTH 23 0
BBX 21 40 1 0
BITMAP
01F000
01F000
01F000
01F000
01F800
01FE00
00FE00
00FE00
007E00
003E00
000E00
000000
000000
01FC00
07FF00
0FFF80
1FFFC0
3FFFE0
7F07F0
7E03F0
FC01F0
FC01F8
F800F8
F800F8
FFFFF8
FFFFF8
FFFFF8
FFFFF8
FFFFF8
F800F8
F800F8
F800F8
F800F8
F800F8
F800F8
F800F8
F800F8
F800F8
F800F8
F800F8
ENDCHAR
STARTCHAR 00C1
ENCODING 193
SWIDTH 605 0
DWIDTH 23 0
BBX 21 40 1 0
BITMAP
003E00
003E00
003E00
003E00
007E00
01FE00
01FC00
01FC00
01F800
01F000
01C000
000000
000000
01FC00
07FF00
0FFF80
1FFFC0
3FFFE0
7F07F0
7E03F0
FC01F0
FC01F8
F800F8
F800F8
FFFFF8
FFFFF8
FFFFF8
FFFFF8
FFFFF8
F800F8
F800F8
F800F8
F800F8
F800F8
F800F8
F800F8
F800F8
F800F8
F800F8
F800F8
ENDCHAR
STARTCHAR 00C2
ENCODING 194
SWIDTH 605 0
DWIDTH 23 0
BBX 21 40 1 0
BITMAP
007800
01FC00
01FE00
03FF00
03FF00
03FF00
1FFFE0
1FFFE0
1FCFE0
1F8FE0
1F03E0
000000
000000
01FC00
07FF00
0FFF80
1FFFC0
3FFFE0
7F07F0
7E03F0
FC01F0
FC01F8
F800F8
F800F8
FFFFF8
FFFFF8
FFFFF8
FFFFF8
FFFFF8
F800F8
F800F8
F800F8
F800F8
F800F8
F800F8
F800F8
F800F8
F800F8
F800F8
F800F8
ENDCHAR
STARTCHAR 00C3
ENCODING 195
SWIDTH 605 0
DWIDTH 23 0
BBX 21 40 1 0
BITMAP
7C1F80
7C7FC0
7CFFE0
7CFFF0
7CFFF0
7FFFF0
7FF9F0
7FF9F0
3FF9F0
1FF1F0
0FC1F0
000000
000000
01FC00
07FF00
0FFF80
1FFFC0
3FFFE0
7F07F0
7E03F0
FC01F0
FC01F8
F800F8
F800F8
FFFFF8
FFFFF8
FFFFF8
FFFFF8
FFFFF8
F800F8
F800F8
F800F8
F800F8
F800F8
F800F8
F800F8
F800F8
F800F8
F800F8
F800F8
ENDCHAR
STARTCHAR 00C4
ENCODING 196
SWIDTH 605 0
DWIDTH 23 0
BBX 21 35 1 0
BITMAP
0F8F80
0F8F80
0F8F80
0F8F80
0F8F80
000000
000000
000000
01FC00
07FF00
0FFF80
1FFFC0
3FFFE0
7F07F0
7E03F0
FC01F0
FC01F8
F800F8
F800F8
FFFFF8
FFFFF8
FFFFF8
FFFFF8
FFFFF8
F800F8
F800F8
F800F8
F800F8
F800F8
F800F8
F800F8
F800F8
F800F8
F800F8
F800F8
ENDCHAR
STARTCHAR 00C5
ENCODING 197
SWIDTH 605 0
DWIDTH 23 0
BBX 21 37 1 0
BITMAP
01FC00
03FE00
07FF00
0FFF80
0FFF80
0F8F80
0F8F80
0F8F80
0FFF80
0FFF80
07FF00
07FF00
07FF00
1FFFC0
3FFFE0
3FFFE0
7F07F0
7E03F0
FC01F8
F800F8
F800F8
FFFFF8
FFFFF8
FFFFF8
FFFFF8
FFFFF8
F800F8
F800F8
F800F8
F800F8
F800F8
F800F8
F800F8
F800F8
F800F8
F800F8
F800F8
ENDCHAR
STARTCHAR 00C6
ENCODING 198
SWIDTH 842 0
DWIDTH 32 0
BBX 30 27 1 0
BITMAP
00FFFFFC
07FFFFFC
0FFFFFFC
1FFFFFFC
3FFFFFFC
7F83E000
7E03E000
FC03E000
FC03E000
F803E000
F803E000
FFFFFFFC
FFFFFFFC
FFFFFFFC
FFFFFFFC
FFFFFFFC
F803E000
F803E000
F803E000
F803E000
F803E000
F803E000
F803FFFC
F803FFFC
F803FFFC
F803FFFC
F803FFFC
ENDCHAR
STARTCHAR 00C7
ENCODING 199
SWIDTH 605 0
DWIDTH 23 0
BBX 21 35 1 -8
BITMAP
01FC00
07FF00
0FFF80
1FFFC0
3FFFE0
7F07F0
7E03F0
FC01F8
F800F8
F800F8
F80000
F80000
F80000
F80000
F80000
F80000
F80000
F800F8
F800F8
FC01F8
7E03F0
7F07F0
3FFFE0
1FFFE0
0FFFC0
07FF00
01FF00
003F00
003F00
007F00
07FE00
07FE00
07FC00
07F800
07E000
ENDCHAR
STARTCHAR 00C8
ENCODING 200
SWIDTH 500 0
DWIDTH 19 0
BBX 16 40 1 0
BITMAP
0F80
0F80
0F80
0F80
0FC0
0FF0
07F0
07F0
03F0
01F0
0070
0000
0000
FFFF
FFFF
FFFF
FFFF
FFFF
F800
F800
F800
F800
F800
F800
FFFF
FFFF
FFFF
FFFF
FFFF
F800
F800
F800
F800
F800
F800
FFFF
FFFF
FFFF
FFFF
FFFF
ENDCHAR
STARTCHAR 00C9
ENCODING 201
SWIDTH 500 0
DWIDTH 19 0
BBX 16 40 1 0
BITMAP
01F0
01F0
01F0
01F0
03F0
0FF0
0FE0
0FE0
0FC0
0F80
0E00
0000
0000
FFFF
FFFF
FFFF
FFFF
FFFF
F800
F800
F800
F800
F800
F800
FFFF
FFFF
FFFF
FFFF
FFFF
F800
F800
F800
F800
F800
F800
FFFF
FFFF
FFFF
FFFF
FFFF
ENDCHAR
STARTCHAR 00CA
ENCODING 202
SWIDTH 500 0
DWIDTH 19 0
BBX 16 40 1 0
BITMAP
03C0
0FE0
0FF0
1FF8
1FF8
1FF8
FFFF
FFFF
FE7F
FC7F
F81F
0000
0000
FFFF
FFFF
FFFF
FFFF
FFFF
F800
F800
F800
F800
F800
F800
FFFF
FFFF
FFFF
FFFF
FFFF
F800
F800
F800
F800
F800
F800
FFFF
FFFF
FFFF
FFFF
FFFF
ENDCHAR
STARTCHAR 00CB
ENCODING 203
SWIDTH 500 0
DWIDTH 19 0
BBX 16 35 1 0
BITMAP
7C7C
7C7C
7C7C
7C7C
7C7C
0000
0000
0000
FFFF
FFFF
FFFF
FFFF
FFFF
F800
F800
F800
F800
F800
F800
FFFF
FFFF
FFFF
FFFF
FFFF
F800
F800
F800
F800
F800
F800
FFFF
FFFF
FFFF
FFFF
FFFF
ENDCHAR
STARTCHAR 00CC
ENCODING 204
SWIDTH 500 0
DWIDTH 19 0
BBX 15 40 2 0
BITMAP
1F00
1F00
1F00
1F00
1F80
1FE0
0FE0
0FE0
07E0
03E0
00E0
0000
0000
FFFE
FFFE
FFFE
FFFE
FFFE
07C0
07C0
07C0
07C0
07C0
07C0
07C0
07C0
07C0
07C0
07C0
07C0
07C0
07C0
07C0
07C0
07C0
FFFE
FFFE
FFFE
FFFE
FFFE
ENDCHAR
STARTCHAR 00CD
ENCODING 205
SWIDTH 500 0
DWIDTH 19 0
BBX 15 40 2 0
BITMAP
03E0
03E0
03E0
03E0
07E0
1FE0
1FC0
1FC0
1F80
1F00
1C00
0000
0000
FFFE
FFFE
FFFE
FFFE
FFFE
07C0
07C0
07C0
07C0
07C0
07C0
07C0
07C0
07C0
07C0
07C0
07C0
07C0
07C0
07C0
07C0
07C0
FFFE
FFFE
FFFE
FFFE
FFFE
ENDCHAR
STARTCHAR 00CE
ENCODING 206
SWIDTH 500 0
DWIDTH 19 0
BBX 16 40 1 0
BITMAP
03C0
0FE0
0FF0
1FF8
1FF8
1FF8
FFFF
FFFF
FE7F
FC7F
F81F
0000
0000
7FFF
7FFF
7FFF
7FFF
7FFF
03E0
03E0
03E0
03E0
03E0
03E0
03E0
03E0
03E0
03E0
03E0
03E0
03E0
03E0
03E0
03E0
03E0
7FFF
7FFF
7FFF
7FFF
7FFF
ENDCHAR
STARTCHAR 00CF
ENCODING 207
SWIDTH 500 0
DWIDTH 19 0
BBX 15 35 2 0
BITMAP
F8F8
F8F8
F8F8
F8F8
F8F8
0000
0000
0000
FFFE
FFFE
FFFE
FFFE
FFFE
07C0
07C0
07C0
07C0
07C0
07C0
07C0
07C0
07C0
07C0
07C0
07C0
07C0
07C0
07C0
07C0
07C0
FFFE
FFFE
FFFE
FFFE
FFFE
ENDCHAR
STARTCHAR 00D0
ENCODING 208
SWIDTH 657 0
DWIDTH 25 0
BBX 23 27 1 0
BITMAP
0FFE00
0FFFC0
0FFFE0
0FFFF0
0FFFF8
0F83FC
0F80FC
0F807C
0F803E
0F803E
0F803E
FFF83E
FFF83E
FFF83E
FFF83E
FFF83E
0F803E
0F803E
0F803E
0F807C
0F80FC
0F83FC
0FFFF8
0FFFF0
0FFFE0
0FFFC0
0FFE00
ENDCHAR
STARTCHAR 00D1
ENCODING 209
SWIDTH 657 0
DWIDTH 25 0
BBX 23 40 1 0
BITMAP
1F07E0
1F1FF0
1F3FF8
1F3FFC
1F3FFC
1FFFFC
1FFE7C
1FFE7C
0FFE7C
07FC7C
03F07C
000000
000000
FF003E
FFC03E
FFE03E
FFF03E
FFF83E
F9F83E
F8F83E
F87C3E
F87C3E
F87C3E
F87C3E
F87C3E
F87C3E
F87C3E
F87C3E
F87C3E
F87C3E
F87C3E
F87C3E
F87C3E
F87E3E
F83F3E
F83FFE
F81FFE
F80FFE
F807FE
F801FE
ENDCHAR
STARTCHAR 00D2
ENCODING 210
SWIDTH 605 0
DWIDTH 23 0
BBX 21 40 1 0
BITMAP
01F000
01F000
01F000
01F000
01F800
01FE00
00FE00
00FE00
007E00
003E00
000E00
000000
000000
01FC00
07FF00
0FFF80
1FFFC0
3FFFE0
7F07F0
7E03F0
FC01F0
F800F8
F800F8
F800F8
F800F8
F800F8
F800F8
F800F8
F800F8
F800F8
F800F8
F800F8
7C01F8
7E03F0
7F07F0
3FFFE0
1FFFC0
0FFF80
07FF00
01FC00
ENDCHAR
STARTCHAR 00D3
ENCODING 211
SWIDTH 605 0
DWIDTH 23 0
BBX 21 40 1 0
BITMAP
003E00
003E00
003E00
003E00
007E00
01FE00
01FC00
01FC00
01F800
01F000
01C000
000000
000000
01FC00
07FF00
0FFF80
1FFFC0
3FFFE0
7F07F0
7E03F0
FC01F0
F800F8
F800F8
F800F8
F800F8
F800F8
F800F8
F800F8
F800F8
F800F8
F800F8
F800F8
7C01F8
7E03F0
7F07F0
3FFFE0
1FFFC0
0FFF80
07FF00
01FC00
ENDCHAR
STARTCHAR 00D4
ENCODING 212
SWIDTH 605 0
DWIDTH 23 0
BBX 21 40 1 0
BITMAP
007800
01FC00
01FE00
03FF00
03FF00
03FF00
1FFFE0
1FFFE0
1FCFE0
1F8FE0
1F03E0
000000
000000
01FC00
07FF00
0FFF80
1FFFC0
3FFFE0
7F07F0
7E03F0
FC01F0
F800F8
F800F8
F800F8
F800F8
F800F8
F800F8
F800F8
F800F8
F800F8
F800F8
F800F8
7C01F8
7E03F0
7F07F0
3FFFE0
1FFFC0
0FFF80
07FF00
01FC00
ENDCHAR
STARTCHAR 00D5
ENCODING 213
SWIDTH 605 0
DWIDTH 23 0
BBX 21 40 1 0
BITMAP
7C1F80
7C7FC0
7CFFE0
7CFFF0
7CFFF0
7FFFF0
7FF9F0
7FF9F0
3FF9F0
1FF1F0
0FC1F0
000000
000000
01FC00
07FF00
0FFF80
1FFFC0
3FFFE0
7F07F0
7E03F0
FC01F0
F800F8
F800F8
F800F8
F800F8
F800F8
F800F8
F800F8
F800F8
F800F8
F800F8
F800F8
7C01F8
7E03F0
7F07F0
3FFFE0
1FFFC0
0FFF80
07FF00
01FC00
ENDCHAR
STARTCHAR 00D6
ENCODING 214
SWIDTH 605 0
DWIDTH 23 0
BBX 21 35 1 0
BITMAP
0F8F80
0F8F80
0F8F80
0F8F80
0F8F80
000000
000000
000000
01FC00
07FF00
0FFF80
1FFFC0
3FFFE0
7F07F0
7E03F0
FC01F0
F800F8
F800F8
F800F8
F800F8
F800F8
F800F8
F800F8
F800F8
F800F8
F800F8
F800F8
7C01F8
7E03F0
7F07F0
3FFFE0
1FFFC0
0FFF80
07FF00
01FC00
ENDCHAR
STARTCHAR 00D7
ENCODING 215
SWIDTH 605 0
DWIDTH 23 0
BBX 21 21 1 3
BITMAP
F800F8
F800F8
F800F8
F800F8
F800F8
FC01F8
7E03F0
7F07F0
3FFFE0
1FFFC0
0FFF80
1FFFC0
3FFFE0
7F07F0
7E03F0
FC01F8
F800F8
F800F8
F800F8
F800F8
F800F8
ENDCHAR
STARTCHAR 00D8
ENCODING 216
SWIDTH 605 0
DWIDTH 23 0
BBX 21 27 1 0
BITMAP
01FC00
07FF00
0FFF80
1FFFC0
3FFFE0
7F07F0
7E03F0
FC01F0
FC01F8
F800F8
F800F8
FFFFF8
FFFFF8
FFFFF8
FFFFF8
FFFFF8
F800F8
F800F8
F801F8
7C01F0
7E03F0
7F07F0
3FFFE0
1FFFC0
0FFF80
07FF00
01FC00
ENDCHAR
STARTCHAR 00D9
ENCODING 217
SWIDTH 605 0
DWIDTH 23 0
BBX 21 40 1 0
BITMAP
01F000
01F000
01F000
01F000
01F800
01FE00
00FE00
00FE00
007E00
003E00
000E00
000000
000000
F800F8
F800F8
F800F8
F800F8
F800F8
F800F8
F800F8
F800F8
F800F8
F800F8
F800F8
F800F8
F800F8
F800F8
F800F8
F800F8
F800F8
F800F8
F800F8
7C01F8
7E03F0
7F07F0
3FFFE0
1FFFC0
0FFF80
07FF00
01FC00
ENDCHAR
STARTCHAR 00DA
ENCODING 218
SWIDTH 605 0
DWIDTH 23 0
BBX 21 40 1 0
BITMAP
003E00
003E00
003E00
003E00
007E00
01FE00
01FC00
01FC00
01F800
01F000
01C000
000000
000000
F800F8
F800F8
F800F8
F800F8
F800F8
F800F8
F800F8
F800F8
F800F8
F800F8
F800F8
F800F8
F800F8
F800F8
F800F8
F800F8
F800F8
F800F8
F800F8
7C01F8
7E03F0
7F07F0
3FFFE0
1FFFC0
0FFF80
07FF00
01FC00
ENDCHAR
STARTCHAR 00DB
ENCODING 219
SWIDTH 605 0
DWIDTH 23 0
BBX 21 40 1 0
BITMAP
007800
01FC00
01FE00
03FF00
03FF00
03FF00
1FFFE0
1FFFE0
1FCFE0
1F8FE0
1F03E0
000000
000000
F800F8
F800F8
F800F8
F800F8
F800F8
F800F8
F800F8
F800F8
F800F8
F800F8
F800F8
F800F8
F800F8
F800F8
F800F8
F800F8
F800F8
F800F8
F800F8
7C01F8
7E03F0
7F07F0
3FFFE0
1FFFC0
0FFF80
07FF00
01FC00
ENDCHAR
STARTCHAR 00DC
ENCODING 220
SWIDTH 605 0
DWIDTH 23 0
BBX 21 35 1 0
BITMAP
0F8F80
0F8F80
0F8F80
0F8F80
0F8F80
000000
000000
000000
F800F8
F800F8
F800F8
F800F8
F800F8
F800F8
F800F8
F800F8
F800F8
F800F8
F800F8
F800F8
F800F8
F800F8
F800F8
F800F8
F800F8
F800F8
F800F8
7C01F8
7E03F0
7F07F0
3FFFE0
1FFFC0
0FFF80
07FF00
01FC00
ENDCHAR
STARTCHAR 00DD
ENCODING 221
SWIDTH 605 0
DWIDTH 23 0
BBX 21 40 1 0
BITMAP
003E00
003E00
003E00
003E00
007E00
01FE00
01FC00
01FC00
01F800
01F000
01C000
000000
000000
F800F8
F800F8
F800F8
F800F8
F800F8
FC01F8
7E03F0
7F07F0
3FFFE0
3FFFE0
1FFFC0
0FFF80
03FE00
00F800
00F800
00F800
00F800
00F800
00F800
00F800
00F800
00F800
00F800
00F800
00F800
00F800
00F800
ENDCHAR
STARTCHAR 00DE
ENCODING 222
SWIDTH 552 0
DWIDTH 21 0
BBX 19 27 1 0
BITMAP
F80000
F80000
F80000
F80000
F80000
F80000
FFF800
FFFE00
FFFF80
FFFFC0
FFFFC0
F807E0
F803E0
F803E0
F803E0
F803E0
F807E0
FFFFC0
FFFFC0
FFFF80
FFFE00
FFF800
F80000
F80000
F80000
F80000
F80000
ENDCHAR
STARTCHAR 00DF
ENCODING 223
SWIDTH 552 0
DWIDTH 21 0
BBX 19 33 1 -6
BITMAP
07FC00
1FFF00
3FFF80
7FFFC0
7FFFC0
FC07E0
F803E0
F803E0
F803E0
F803E0
F807E0
F87FC0
F87FC0
F87F80
F87FC0
F87FC0
F807E0
F803E0
F803E0
F803E0
F803E0
F807E0
F87FC0
F87FC0
F87F80
F87F00
F87C00
F80000
F80000
F80000
F80000
F80000
F80000
ENDCHAR
STARTCHAR 00E0
ENCODING 224
SWIDTH 473 0
DWIDTH 18 0
BBX 16 35 1 0
BITMAP
0F80
0F80
0F80
0F80
0FC0
0FF0
07F0
07F0
03F0
01F0
0070
0000
0000
0000
FFE0
FFF8
FFFC
FFFE
FFFE
003F
001F
001F
1FFF
7FFF
7FFF
FFFF
FFFF
F81F
F81F
F81F
FFFF
FFFF
7FFF
7FFF
1FFF
ENDCHAR
STARTCHAR 00E1
ENCODING 225
SWIDTH 473 0
DWIDTH 18 0
BBX 16 35 1 0
BITMAP
01F0
01F0
01F0
01F0
03F0
0FF0
0FE0
0FE0
0FC0
0F80
0E00
0000
0000
0000
FFE0
FFF8
FFFC
FFFE
FFFE
003F
001F
001F
1FFF
7FFF
7FFF
FFFF
FFFF
F81F
F81F
F81F
FFFF
FFFF
7FFF
7FFF
1FFF
ENDCHAR
STARTCHAR 00E2
ENCODING 226
SWIDTH 473 0
DWIDTH 18 0
BBX 16 35 1 0
BITMAP
03C0
0FE0
0FF0
1FF8
1FF8
1FF8
FFFF
FFFF
FE7F
FC7F
F81F
0000
0000
0000
FFE0
FFF8
FFFC
FFFE
FFFE
003F
001F
001F
1FFF
7FFF
7FFF
FFFF
FFFF
F81F
F81F
F81F
FFFF
FFFF
7FFF
7FFF
1FFF
ENDCHAR
STARTCHAR 00E3
ENCODING 227
SWIDTH 473 0
DWIDTH 18 0
BBX 19 35 0 0
BITMAP
F83F00
F8FF80
F9FFC0
F9FFE0
F9FFE0
FFFFE0
FFF3E0
FFF3E0
7FF3E0
3FE3E0
1F83E0
000000
000000
000000
7FF000
7FFC00
7FFE00
7FFF00
7FFF00
001F80
000F80
000F80
0FFF80
3FFF80
3FFF80
7FFF80
7FFF80
7C0F80
7C0F80
7C0F80
7FFF80
7FFF80
3FFF80
3FFF80
0FFF80
ENDCHAR
STARTCHAR 00E4
ENCODING 228
SWIDTH 473 0
DWIDTH 18 0
BBX 16 30 1 0
BITMAP
7C7C
7C7C
7C7C
7C7C
7C7C
0000
0000
0000
0000
FFE0
FFF8
FFFC
FFFE
FFFE
003F
001F
001F
1FFF
7FFF
7FFF
FFFF
FFFF
F81F
F81F
F81F
FFFF
FFFF
7FFF
7FFF
1FFF
ENDCHAR
STARTCHAR 00E5
ENCODING 229
SWIDTH 473 0
DWIDTH 18 0
BBX 16 37 1 0
BITMAP
0FE0
3FF0
3FF8
7FFC
7FFC
7C7C
7C7C
7C7C
7FFC
7FFC
3FF8
3FF8
0FE0
0000
0000
0000
FFE0
FFF8
FFFC
FFFE
FFFE
003F
001F
001F
1FFF
7FFF
7FFF
FFFF
FFFF
F81F
F81F
F81F
FFFF
FFFF
7FFF
7FFF
1FFF
ENDCHAR
STARTCHAR 00E6
ENCODING 230
SWIDTH 763 0
DWIDTH 29 0
BBX 27 21 1 0
BITMAP
FFE0FC00
FFFBFF00
FFFFFF80
FFFFFFC0
FFFFFFC0
003F87E0
001F03E0
001F03E0
1FFFFFE0
3FFFFFE0
7FFFFFC0
FFFFFFC0
FFFFFF00
F81F0000
F81F0000
F81F8000
FFFFFFE0
FFFFFFE0
7FFFFFE0
7FFFFFE0
1FFFFFE0
ENDCHAR
STARTCHAR 00E7
ENCODING 231
SWIDTH 473 0
DWIDTH 18 0
BBX 16 29 1 -8
BITMAP
07E0
1FF8
3FFC
7FFE
7FFE
FC3F
F81F
F81F
F800
F800
F800
F800
F800
F81F
F81F
FC3F
7FFE
7FFE
3FFC
1FF8
07F8
00F8
01F8
03F8
3FF0
3FF0
3FE0
3FC0
3F00
ENDCHAR
STARTCHAR 00E8
ENCODING 232
SWIDTH 473 0
DWIDTH 18 0
BBX 16 35 1 0
BITMAP
0F80
0F80
0F80
0F80
0FC0
0FF0
07F0
07F0
03F0
01F0
0070
0000
0000
0000
07E0
1FF8
3FFC
7FFE
7FFE
FC3F
F81F
F81F
FFFF
FFFF
FFFE
FFFE
FFF8
F800
F800
FC00
7FFF
7FFF
3FFF
1FFF
07FF
ENDCHAR
STARTCHAR 00E9
ENCODING 233
SWIDTH 473 0
DWIDTH 18 0
BBX 16 35 1 0
BITMAP
01F0
01F0
01F0
01F0
03F0
0FF0
0FE0
0FE0
0FC0
0F80
0E00
0000
0000
0000
07E0
1FF8
3FFC
7FFE
7FFE
FC3F
F81F
F81F
FFFF
FFFF
FFFE
FFFE
FFF8
F800
F800
FC00
7FFF
7FFF
3FFF
1FFF
07FF
ENDCHAR
STARTCHAR 00EA
ENCODING 234
SWIDTH 473 0
DWIDTH 18 0
BBX 16 35 1 0
BITMAP
03C0
0FE0
0FF0
1FF8
1FF8
1FF8
FFFF
FFFF
FE7F
FC7F
F81F
0000
0000
0000
07E0
1FF8
3FFC
7FFE
7FFE
FC3F
F81F
F81F
FFFF
FFFF
FFFE
FFFE
FFF8
F800
F800
FC00
7FFF
7FFF
3FFF
1FFF
07FF
ENDCHAR
STARTCHAR 00EB
ENCODING 235
SWIDTH 473 0
DWIDTH 18 0
BBX 16 30 1 0
BITMAP
7C7C
7C7C
7C7C
7C7C
7C7C
0000
0000
0000
0000
07E0
1FF8
3FFC
7FFE
7FFE
FC3F
F81F
F81F
FFFF
FFFF
FFFE
FFFE
FFF8
F800
F800
FC00
7FFF
7FFF
3FFF
1FFF
07FF
ENDCHAR
STARTCHAR 00EC
ENCODING 236
SWIDTH 184 0
DWIDTH 7 0
BBX 8 35 0 0
BITMAP
F8
F8
F8
F8
FC
FF
7F
7F
3F
1F
07
00
00
00
7C
7C
7C
7C
7C
7C
7C
7C
7C
7C
7C
7C
7C
7C
7C
7C
7C
7C
7C
7C
7C
ENDCHAR
STARTCHAR 00ED
ENCODING 237
SWIDTH 184 0
DWIDTH 7 0
BBX 8 35 0 0
BITMAP
1F
1F
1F
1F
3F
FF
FE
FE
FC
F8
E0
00
00
00
7C
7C
7C
7C
7C
7C
7C
7C
7C
7C
7C
7C
7C
7C
7C
7C
7C
7C
7C
7C
7C
ENDCHAR
STARTCHAR 00EE
ENCODING 238
SWIDTH 184 0
DWIDTH 7 0
BBX 16 35 -4 0
BITMAP
03C0
0FE0
0FF0
1FF8
1FF8
1FF8
FFFF
FFFF
FE7F
FC7F
F81F
0000
0000
0000
07C0
07C0
07C0
07C0
07C0
07C0
07C0
07C0
07C0
07C0
07C0
07C0
07C0
07C0
07C0
07C0
07C0
07C0
07C0
07C0
07C0
ENDCHAR
STARTCHAR 00EF
ENCODING 239
SWIDTH 184 0
DWIDTH 7 0
BBX 13 30 -3 0
BITMAP
F8F8
F8F8
F8F8
F8F8
F8F8
0000
0000
0000
0000
0F80
0F80
0F80
0F80
0F80
0F80
0F80
0F80
0F80
0F80
0F80
0F80
0F80
0F80
0F80
0F80
0F80
0F80
0F80
0F80
0F80
ENDCHAR
STARTCHAR 00F0
ENCODING 240
SWIDTH 578 0
DWIDTH 22 0
BBX 20 29 1 0
BITMAP
001F00
001F00
01FFF0
01FFF0
01FFF0
01FFF0
01FFF0
001F00
001F00
001F00
001F00
07FF00
1FFF00
3FFF00
7FFF00
7FFF00
FC1F00
F81F00
F81F00
F81F00
F81F00
F81F00
F81F00
FC3F00
7FFE00
7FFE00
3FFC00
1FF800
07E000
ENDCHAR
STARTCHAR 00F1
ENCODING 241
SWIDTH 473 0
DWIDTH 18 0
BBX 19 35 0 0
BITMAP
F83F00
F8FF80
F9FFC0
F9FFE0
F9FFE0
FFFFE0
FFF3E0
FFF3E0
7FF3E0
3FE3E0
1F83E0
000000
000000
000000
7FF000
7FFC00
7FFE00
7FFF00
7FFF00
7C1F80
7C0F80
7C0F80
7C0F80
7C0F80
7C0F80
7C0F80
7C0F80
7C0F80
7C0F80
7C0F80
7C0F80
7C0F80
7C0F80
7C0F80
7C0F80
ENDCHAR
STARTCHAR 00F2
ENCODING 242
SWIDTH 473 0
DWIDTH 18 0
BBX 16 35 1 0
BITMAP
0F80
0F80
0F80
0F80
0FC0
0FF0
07F0
07F0
03F0
01F0
0070
0000
0000
0000
07E0
1FF8
3FFC
7FFE
7FFE
FC3F
F81F
F81F
F81F
F81F
F81F
F81F
F81F
F81F
F81F
FC3F
7FFE
7FFE
3FFC
1FF8
07E0
ENDCHAR
STARTCHAR 00F3
ENCODING 243
SWIDTH 473 0
DWIDTH 18 0
BBX 16 35 1 0
BITMAP
01F0
01F0
01F0
01F0
03F0
0FF0
0FE0
0FE0
0FC0
0F80
0E00
0000
0000
0000
07E0
1FF8
3FFC
7FFE
7FFE
FC3F
F81F
F81F
F81F
F81F
F81F
F81F
F81F
F81F
F81F
FC3F
7FFE
7FFE
3FFC
1FF8
07E0
ENDCHAR
STARTCHAR 00F4
ENCODING 244
SWIDTH 473 0
DWIDTH 18 0
BBX 16 35 1 0
BITMAP
03C0
0FE0
0FF0
1FF8
1FF8
1FF8
FFFF
FFFF
FE7F
FC7F
F81F
0000
0000
0000
07E0
1FF8
3FFC
7FFE
7FFE
FC3F
F81F
F81F
F81F
F81F
F81F
F81F
F81F
F81F
F81F
FC3F
7FFE
7FFE
3FFC
1FF8
07E0
ENDCHAR
STARTCHAR 00F5
ENCODING 245
SWIDTH 473 0
DWIDTH 18 0
BBX 19 35 0 0
BITMAP
F83F00
F8FF80
F9FFC0
F9FFE0
F9FFE0
FFFFE0
FFF3E0
FFF3E0
7FF3E0
3FE3E0
1F83E0
000000
000000
000000
03F000
0FFC00
1FFE00
3FFF00
3FFF00
7E1F80
7C0F80
7C0F80
7C0F80
7C0F80
7C0F80
7C0F80
7C0F80
7C0F80
7C0F80
7E1F80
3FFF00
3FFF00
1FFE00
0FFC00
03F000
ENDCHAR
STARTCHAR 00F6
ENCODING 246
SWIDTH 473 0
DWIDTH 18 0
BBX 16 30 1 0
BITMAP
7C7C
7C7C
7C7C
7C7C
7C7C
0000
0000
0000
0000
07E0
1FF8
3FFC
7FFE
7FFE
FC3F
F81F
F81F
F81F
F81F
F81F
F81F
F81F
F81F
F81F
FC3F
7FFE
7FFE
3FFC
1FF8
07E0
ENDCHAR
STARTCHAR 00F7
ENCODING 247
SWIDTH 500 0
DWIDTH 19 0
BBX 16 21 1 3
BITMAP
03E0
03E0
03E0
03E0
03E0
0000
0000
0000
FFFF
FFFF
FFFF
FFFF
FFFF
0000
0000
0000
03E0
03E0
03E0
03E0
03E0
ENDCHAR
STARTCHAR 00F8
ENCODING 248
SWIDTH 473 0
DWIDTH 18 0
BBX 16 21 1 0
BITMAP
07E0
1FF8
3FFC
7FFE
7FFE
FC3F
F81F
F81F
FFFF
FFFF
FFFF
FFFF
FFFF
F81F
F81F
FC3F
7FFE
7FFE
3FFC
1FF8
07E0
ENDCHAR
STARTCHAR 00F9
ENCODING 249
SWIDTH 473 0
DWIDTH 18 0
BBX 16 35 1 0
BITMAP
0F80
0F80
0F80
0F80
0FC0
0FF0
07F0
07F0
03F0
01F0
0070
0000
0000
0000
F81F
F81F
F81F
F81F
F81F
F81F
F81F
F81F
F81F
F81F
F81F
F81F
F81F
F81F
F81F
FC3F
7FFE
7FFE
3FFC
1FF8
07E0
ENDCHAR
STARTCHAR 00FA
ENCODING 250
SWIDTH 473 0
DWIDTH 18 0
BBX 16 35 1 0
BITMAP
01F0
01F0
01F0
01F0
03F0
0FF0
0FE0
0FE0
0FC0
0F80
0E00
0000
0000
0000
F81F
F81F
F81F
F81F
F81F
F81F
F81F
F81F
F81F
F81F
F81F
F81F
F81F
F81F
F81F
FC3F
7FFE
7FFE
3FFC
1FF8
07E0
ENDCHAR
STARTCHAR 00FB
ENCODING 251
SWIDTH 473 0
DWIDTH 18 0
BBX 16 35 1 0
BITMAP
03C0
0FE0
0FF0
1FF8
1FF8
1FF8
FFFF
FFFF
FE7F
FC7F
F81F
0000
0000
0000
F81F
F81F
F81F
F81F
F81F
F81F
F81F
F81F
F81F
F81F
F81F
F81F
F81F
F81F
F81F
FC3F
7FFE
7FFE
3FFC
1FF8
07E0
ENDCHAR
STARTCHAR 00FC
ENCODING 252
SWIDTH 473 0
DWIDTH 18 0
BBX 16 30 1 0
BITMAP
7C7C
7C7C
7C7C
7C7C
7C7C
0000
0000
0000
0000
F81F
F81F
F81F
F81F
F81F
F81F
F81F
F81F
F81F
F81F
F81F
F81F
F81F
F81F
F81F
FC3F
7FFE
7FFE
3FFC
1FF8
07E0
ENDCHAR
STARTCHAR 00FD
ENCODING 253
SWIDTH 473 0
DWIDTH 18 0
BBX 16 43 1 -8
BITMAP
01F0
01F0
01F0
01F0
03F0
0FF0
0FE0
0FE0
0FC0
0F80
0E00
0000
0000
0000
F81F
F81F
F81F
F81F
F81F
F81F
F81F
F81F
F81F
F81F
F81F
F81F
F81F
F81F
F81F
FC1F
7FFF
7FFF
3FFF
1FFF
07FF
003F
007E
01FE
FFFC
FFF8
FFF0
FFE0
FF00
ENDCHAR
STARTCHAR 00FE
ENCODING 254
SWIDTH 473 0
DWIDTH 18 0
BBX 16 37 1 -8
BITMAP
F800
F800
F800
F800
F800
F800
F800
F800
FFE0
FFF8
FFFC
FFFE
FFFE
F83F
F81F
F81F
F81F
F81F
F81F
F81F
F81F
F81F
F81F
F83F
FFFE
FFFE
FFFC
FFF8
FFE0
F800
F800
F800
F800
F800
F800
F800
F800
ENDCHAR
STARTCHAR 00FF
ENCODING 255
SWIDTH 473 0
DWIDTH 18 0
BBX 16 38 1 -8
BITMAP
7C7C
7C7C
7C7C
7C7C
7C7C
0000
0000
0000
0000
F81F
F81F
F81F
F81F
F81F
F81F
F81F
F81F
F81F
F81F
F81F
F81F
F81F
F81F
F81F
FC1F
7FFF
7FFF
3FFF
1FFF
07FF
003F
007E
01FE
FFFC
FFF8
FFF0
FFE0
FF00
ENDCHAR
STARTCHAR 0100
ENCODING 256
SWIDTH 605 0
DWIDTH 23 0
BBX 21 35 1 0
BITMAP
1FFFE0
1FFFE0
1FFFE0
1FFFE0
1FFFE0
000000
000000
000000
01FC00
07FF00
0FFF80
1FFFC0
3FFFE0
7F07F0
7E03F0
FC01F0
FC01F8
F800F8
F800F8
FFFFF8
FFFFF8
FFFFF8
FFFFF8
FFFFF8
F800F8
F800F8
F800F8
F800F8
F800F8
F800F8
F800F8
F800F8
F800F8
F800F8
F800F8
ENDCHAR
STARTCHAR 0101
ENCODING 257
SWIDTH 473 0
DWIDTH 18 0
BBX 16 30 1 0
BITMAP
FFFF
FFFF
FFFF
FFFF
FFFF
0000
0000
0000
0000
FFE0
FFF8
FFFC
FFFE
FFFE
003F
001F
001F
1FFF
7FFF
7FFF
FFFF
FFFF
F81F
F81F
F81F
FFFF
FFFF
7FFF
7FFF
1FFF
ENDCHAR
STARTCHAR 0102
ENCODING 258
SWIDTH 605 0
DWIDTH 23 0
BBX 21 40 1 0
BITMAP
0F8F80
0F8F80
0F8F80
0F8F80
0F8F80
0F8F80
0FFF80
0FFF80
07FF00
03FE00
01FC00
000000
000000
01FC00
07FF00
0FFF80
1FFFC0
3FFFE0
7F07F0
7E03F0
FC01F0
FC01F8
F800F8
F800F8
FFFFF8
FFFFF8
FFFFF8
FFFFF8
FFFFF8
F800F8
F800F8
F800F8
F800F8
F800F8
F800F8
F800F8
F800F8
F800F8
F800F8
F800F8
ENDCHAR
STARTCHAR 0103
ENCODING 259
SWIDTH 473 0
DWIDTH 18 0
BBX 16 35 1 0
BITMAP
7C7C
7C7C
7C7C
7C7C
7C7C
7C7C
7FFC
7FFC
3FF8
1FF0
0FE0
0000
0000
0000
FFE0
FFF8
FFFC
FFFE
FFFE
003F
001F
001F
1FFF
7FFF
7FFF
FFFF
FFFF
F81F
F81F
F81F
FFFF
FFFF
7FFF
7FFF
1FFF
ENDCHAR
STARTCHAR 0104
ENCODING 260
SWIDTH 605 0
DWIDTH 23 0
BBX 26 35 1 -8
BITMAP
01FC0000
07FF0000
0FFF8000
1FFFC000
3FFFE000
7F07F000
7E03F000
FC01F000
FC01F800
F800F800
F800F800
FFFFF800
FFFFF800
FFFFF800
FFFFF800
FFFFF800
F800F800
F800F800
F800F800
F800F800
F800F800
F800F800
F800F800
F800F800
F800F800
F800F800
F800F800
0000F800
0000F800
0000FC00
00007FC0
00007FC0
00003FC0
00001FC0
000007C0
ENDCHAR
STARTCHAR 0105
ENCODING 261
SWIDTH 473 0
DWIDTH 18 0
BBX 16 29 1 -8
BITMAP
FFE0
FFF8
FFFC
FFFE
FFFE
003F
001F
001F
1FFF
7FFF
7FFF
FFFF
FFFF
F81F
F81F
F81F
FFFF
FFFF
7FFF
7FFF
1FFF
07E0
07E0
07F0
03FF
03FF
01FF
00FF
003F
ENDCHAR
STARTCHAR 0106
ENCODING 262
SWIDTH 605 0
DWIDTH 23 0
BBX 21 40 1 0
BITMAP
003E00
003E00
003E00
003E00
007E00
01FE00
01FC00
01FC00
01F800
01F000
01C000
000000
000000
01FC00
07FF00
0FFF80
1FFFC0
3FFFE0
7F07F0
7E03F0
FC01F8
F800F8
F800F8
F80000
F80000
F80000
F80000
F80000
F80000
F80000
F800F8
F800F8
7C01F8
7E03F0
7F07F0
3FFFE0
1FFFC0
0FFF80
07FF00
01FC00
ENDCHAR
STARTCHAR 0107
ENCODING 263
SWIDTH 473 0
DWIDTH 18 0
BBX 16 35 1 0
BITMAP
01F0
01F0
01F0
01F0
03F0
0FF0
0FE0
0FE0
0FC0
0F80
0E00
0000
0000
0000
07E0
1FF8
3FFC
7FFE
7FFE
FC3F
F81F
F81F
F800
F800
F800
F800
F800
F81F
F81F
FC3F
7FFE
7FFE
3FFC
1FF8
07E0
ENDCHAR
STARTCHAR 0108
ENCODING 264
SWIDTH 605 0
DWIDTH 23 0
BBX 21 40 1 0
BITMAP
007800
01FC00
01FE00
03FF00
03FF00
03FF00
1FFFE0
1FFFE0
1FCFE0
1F8FE0
1F03E0
000000
000000
01FC00
07FF00
0FFF80
1FFFC0
3FFFE0
7F07F0
7E03F0
FC01F8
F800F8
F800F8
F80000
F80000
F80000
F80000
F80000
F80000
F80000
F800F8
F800F8
7C01F8
7E03F0
7F07F0
3FFFE0
1FFFC0
0FFF80
07FF00
01FC00
ENDCHAR
STARTCHAR 0109
ENCODING 265
SWIDTH 473 0
DWIDTH 18 0
BBX 16 35 1 0
BITMAP
03C0
0FE0
0FF0
1FF8
1FF8
1FF8
FFFF
FFFF
FE7F
FC7F
F81F
0000
0000
0000
07E0
1FF8
3FFC
7FFE
7FFE
FC3F
F81F
F81F
F800
F800
F800
F800
F800
F81F
F81F
FC3F
7FFE
7FFE
3FFC
1FF8
07E0
ENDCHAR
STARTCHAR 010A
ENCODING 266
SWIDTH 605 0
DWIDTH 23 0
BBX 21 35 1 0
BITMAP
00F800
00F800
00F800
00F800
00F800
000000
000000
000000
01FC00
07FF00
0FFF80
1FFFC0
3FFFE0
7F07F0
7E03F0
FC01F8
F800F8
F800F8
F80000
F80000
F80000
F80000
F80000
F80000
F80000
F800F8
F800F8
7C01F8
7E03F0
7F07F0
3FFFE0
1FFFC0
0FFF80
07FF00
01FC00
ENDCHAR
STARTCHAR 010B
ENCODING 267
SWIDTH 473 0
DWIDTH 18 0
BBX 16 30 1 0
BITMAP
07C0
07C0
07C0
07C0
07C0
0000
0000
0000
0000
07E0
1FF8
3FFC
7FFE
7FFE
FC3F
F81F
F81F
F800
F800
F800
F800
F800
F81F
F81F
FC3F
7FFE
7FFE
3FFC
1FF8
07E0
ENDCHAR
STARTCHAR 010C
ENCODING 268
SWIDTH 605 0
DWIDTH 23 0
BBX 21 39 1 0
BITMAP
1F03E0
1F8FE0
1FCFE0
1FFFE0
1FFFE0
03FF00
03FF00
03FF00
01FE00
007800
000000
000000
01FC00
07FF00
0FFF80
1FFFC0
3FFFE0
7F07F0
7E03F0
FC01F8
F800F8
F800F8
F80000
F80000
F80000
F80000
F80000
F80000
F80000
F800F8
F800F8
7C01F8
7E03F0
7F07F0
3FFFE0
1FFFC0
0FFF80
07FF00
01FC00
ENDCHAR
STARTCHAR 010D
ENCODING 269
SWIDTH 473 0
DWIDTH 18 0
BBX 16 34 1 0
BITMAP
F81F
FC7F
FE7F
FFFF
FFFF
1FF8
1FF8
1FF8
0FF0
03C0
0000
0000
0000
07E0
1FF8
3FFC
7FFE
7FFE
FC3F
F81F
F81F
F800
F800
F800
F800
F800
F81F
F81F
FC3F
7FFE
7FFE
3FFC
1FF8
07E0
ENDCHAR
STARTCHAR 010E
ENCODING 270
SWIDTH 552 0
DWIDTH 21 0
BBX 19 39 1 0
BITMAP
7C0F80
7E3F80
7F3F80
7FFF80
7FFF80
0FFC00
0FFC00
0FFC00
07F800
01E000
000000
000000
FFE000
FFFC00
FFFE00
FFFF00
FFFF80
F83FC0
F80FC0
F807C0
F803E0
F803E0
F803E0
F803E0
F803E0
F803E0
F803E0
F803E0
F803E0
F803E0
F803E0
F807C0
F80FC0
F83FC0
FFFF80
FFFF00
FFFE00
FFFC00
FFE000
ENDCHAR
STARTCHAR 010F
ENCODING 271
SWIDTH 763 0
DWIDTH 29 0
BBX 27 29 1 0
BITMAP
001F03E0
001F03E0
001F03E0
001F03E0
001F03E0
001F03E0
001F03E0
001F07E0
07FF1FC0
1FFF1FC0
3FFF1F80
7FFF1F00
7FFF1C00
FC1F0000
F81F0000
F81F0000
F81F0000
F81F0000
F81F0000
F81F0000
F81F0000
F81F0000
F81F0000
FC3F0000
7FFE0000
7FFE0000
3FFC0000
1FF80000
07E00000
ENDCHAR
STARTCHAR 0110
ENCODING 272
SWIDTH 657 0
DWIDTH 25 0
BBX 23 27 1 0
BITMAP
0FFE00
0FFFC0
0FFFE0
0FFFF0
0FFFF8
0F83FC
0F80FC
0F807C
0F803E
0F803E
0F803E
FFF83E
FFF83E
FFF83E
FFF83E
FFF83E
0F803E
0F803E
0F803E
0F807C
0F80FC
0F83FC
0FFFF8
0FFFF0
0FFFE0
0FFFC0
0FFE00
ENDCHAR
STARTCHAR 0111
ENCODING 273
SWIDTH 578 0
DWIDTH 22 0
BBX 20 29 1 0
BITMAP
001F00
001F00
01FFF0
01FFF0
01FFF0
01FFF0
01FFF0
001F00
001F00
001F00
001F00
07FF00
1FFF00
3FFF00
7FFF00
7FFF00
FC1F00
F81F00
F81F00
F81F00
F81F00
F81F00
F81F00
FC3F00
7FFE00
7FFE00
3FFC00
1FF800
07E000
ENDCHAR
STARTCHAR 0112
ENCODING 274
SWIDTH 500 0
DWIDTH 19 0
BBX 16 35 1 0
BITMAP
FFFF
FFFF
FFFF
FFFF
FFFF
0000
0000
0000
FFFF
FFFF
FFFF
FFFF
FFFF
F800
F800
F800
F800
F800
F800
FFFF
FFFF
FFFF
FFFF
FFFF
F800
F800
F800
F800
F800
F800
FFFF
FFFF
FFFF
FFFF
FFFF
ENDCHAR
STARTCHAR 0113
ENCODING 275
SWIDTH 473 0
DWIDTH 18 0
BBX 16 30 1 0
BITMAP
FFFF
FFFF
FFFF
FFFF
FFFF
0000
0000
0000
0000
07E0
1FF8
3FFC
7FFE
7FFE
FC3F
F81F
F81F
FFFF
FFFF
FFFE
FFFE
FFF8
F800
F800
FC00
7FFF
7FFF
3FFF
1FFF
07FF
ENDCHAR
STARTCHAR 0114
ENCODING 276
SWIDTH 500 0
DWIDTH 19 0
BBX 16 40 1 0
BITMAP
7C7C
7C7C
7C7C
7C7C
7C7C
7C7C
7FFC
7FFC
3FF8
1FF0
0FE0
0000
0000
FFFF
FFFF
FFFF
FFFF
FFFF
F800
F800
F800
F800
F800
F800
FFFF
FFFF
FFFF
FFFF
FFFF
F800
F800
F800
F800
F800
F800
FFFF
FFFF
FFFF
FFFF
FFFF
ENDCHAR
STARTCHAR 0115
ENCODING 277
SWIDTH 473 0
DWIDTH 18 0
BBX 16 35 1 0
BITMAP
7C7C
7C7C
7C7C
7C7C
7C7C
7C7C
7FFC
7FFC
3FF8
1FF0
0FE0
0000
0000
0000
07E0
1FF8
3FFC
7FFE
7FFE
FC3F
F81F
F81F
FFFF
FFFF
FFFE
FFFE
FFF8
F800
F800
FC00
7FFF
7FFF
3FFF
1FFF
07FF
ENDCHAR
STARTCHAR 0116
ENCODING 278
SWIDTH 500 0
DWIDTH 19 0
BBX 16 35 1 0
BITMAP
07C0
07C0
07C0
07C0
07C0
0000
0000
0000
FFFF
FFFF
FFFF
FFFF
FFFF
F800
F800
F800
F800
F800
F800
FFFF
FFFF
FFFF
FFFF
FFFF
F800
F800
F800
F800
F800
F800
FFFF
FFFF
FFFF
FFFF
FFFF
ENDCHAR
STARTCHAR 0117
ENCODING 279
SWIDTH 473 0
DWIDTH 18 0
BBX 16 30 1 0
BITMAP
07C0
07C0
07C0
07C0
07C0
0000
0000
0000
0000
07E0
1FF8
3FFC
7FFE
7FFE
FC3F
F81F
F81F
FFFF
FFFF
FFFE
FFFE
FFF8
F800
F800
FC00
7FFF
7FFF
3FFF
1FFF
07FF
ENDCHAR
STARTCHAR 0118
ENCODING 280
SWIDTH 500 0
DWIDTH 19 0
BBX 16 35 1 -8
BITMAP
FFFF
FFFF
FFFF
FFFF
FFFF
F800
F800
F800
F800
F800
F800
FFFF
FFFF
FFFF
FFFF
FFFF
F800
F800
F800
F800
F800
F800
FFFF
FFFF
FFFF
FFFF
FFFF
07C0
07E0
07E0
03FF
03FF
01FF
00FF
003F
ENDCHAR
STARTCHAR 0119
ENCODING 281
SWIDTH 473 0
DWIDTH 18 0
BBX 16 29 1 -8
BITMAP
07E0
1FF8
3FFC
7FFE
7FFE
FC3F
F81F
F81F
FFFF
FFFF
FFFE
FFFE
FFF8
F800
F800
FC00
7FFF
7FFF
3FFF
1FFF
07FF
07E0
07E0
07F0
03FF
03FF
01FF
00FF
003F
ENDCHAR
STARTCHAR 011A
ENCODING 282
SWIDTH 500 0
DWIDTH 19 0
BBX 16 39 1 0
BITMAP
F81F
FC7F
FE7F
FFFF
FFFF
1FF8
1FF8
1FF8
0FF0
03C0
0000
0000
FFFF
FFFF
FFFF
FFFF
FFFF
F800
F800
F800
F800
F800
F800
FFFF
FFFF
FFFF
FFFF
FFFF
F800
F800
F800
F800
F800
F800
FFFF
FFFF
FFFF
FFFF
FFFF
ENDCHAR
STARTCHAR 011B
ENCODING 283
SWIDTH 473 0
DWIDTH 18 0
BBX 16 34 1 0
BITMAP
F81F
FC7F
FE7F
FFFF
FFFF
1FF8
1FF8
1FF8
0FF0
03C0
0000
0000
0000
07E0
1FF8
3FFC
7FFE
7FFE
FC3F
F81F
F81F
FFFF
FFFF
FFFE
FFFE
FFF8
F800
F800
FC00
7FFF
7FFF
3FFF
1FFF
07FF
ENDCHAR
STARTCHAR 011C
ENCODING 284
SWIDTH 605 0
DWIDTH 23 0
BBX 21 40 1 0
BITMAP
007800
01FC00
01FE00
03FF00
03FF00
03FF00
1FFFE0
1FFFE0
1FCFE0
1F8FE0
1F03E0
000000
000000
01FFF8
07FFF8
0FFFF8
1FFFF8
3FFFF8
7F0000
7E0000
FC0000
F80000
F80000
F80000
F81FF8
F81FF8
F81FF8
F81FF8
F81FF8
F800F8
F800F8
F801F8
7C01F8
7E03F0
7F07F0
3FFFE0
1FFFC0
0FFF80
07FF00
01FC00
ENDCHAR
STARTCHAR 011D
ENCODING 285
SWIDTH 473 0
DWIDTH 18 0
BBX 16 43 1 -8
BITMAP
03C0
0FE0
0FF0
1FF8
1FF8
1FF8
FFFF
FFFF
FE7F
FC7F
F81F
0000
0000
0000
07E0
1FF8
3FFC
7FFE
7FFE
FC3F
F81F
F81F
F81F
F81F
F81F
F81F
F81F
F81F
F81F
FC1F
7FFF
7FFF
3FFF
1FFF
07FF
003F
007E
01FE
FFFC
FFF8
FFF0
FFE0
FF00
ENDCHAR
STARTCHAR 011E
ENCODING 286
SWIDTH 605 0
DWIDTH 23 0
BBX 21 40 1 0
BITMAP
0F8F80
0F8F80
0F8F80
0F8F80
0F8F80
0F8F80
0FFF80
0FFF80
07FF00
03FE00
01FC00
000000
000000
01FFF8
07FFF8
0FFFF8
1FFFF8
3FFFF8
7F0000
7E0000
FC0000
F80000
F80000
F80000
F81FF8
F81FF8
F81FF8
F81FF8
F81FF8
F800F8
F800F8
F801F8
7C01F8
7E03F0
7F07F0
3FFFE0
1FFFC0
0FFF80
07FF00
01FC00
ENDCHAR
STARTCHAR 011F
ENCODING 287
SWIDTH 473 0
DWIDTH 18 0
BBX 16 43 1 -8
BITMAP
7C7C
7C7C
7C7C
7C7C
7C7C
7C7C
7FFC
7FFC
3FF8
1FF0
0FE0
0000
0000
0000
07E0
1FF8
3FFC
7FFE
7FFE
FC3F
F81F
F81F
F81F
F81F
F81F
F81F
F81F
F81F
F81F
FC1F
7FFF
7FFF
3FFF
1FFF
07FF
003F
007E
01FE
FFFC
FFF8
FFF0
FFE0
FF00
ENDCHAR
STARTCHAR 0120
ENCODING 288
SWIDTH 605 0
DWIDTH 23 0
BBX 21 35 1 0
BITMAP
00F800
00F800
00F800
00F800
00F800
000000
000000
000000
01FFF8
07FFF8
0FFFF8
1FFFF8
3FFFF8
7F0000
7E0000
FC0000
F80000
F80000
F80000
F81FF8
F81FF8
F81FF8
F81FF8
F81FF8
F800F8
F800F8
F801F8
7C01F8
7E03F0
7F07F0
3FFFE0
1FFFC0
0FFF80
07FF00
01FC00
ENDCHAR
STARTCHAR 0121
ENCODING 289
SWIDTH 473 0
DWIDTH 18 0
BBX 16 38 1 -8
BITMAP
07C0
07C0
07C0
07C0
07C0
0000
0000
0000
0000
07E0
1FF8
3FFC
7FFE
7FFE
FC3F
F81F
F81F
F81F
F81F
F81F
F81F
F81F
F81F
F81F
FC1F
7FFF
7FFF
3FFF
1FFF
07FF
003F
007E
01FE
FFFC
FFF8
FFF0
FFE0
FF00
ENDCHAR
STARTCHAR 0122
ENCODING 290
SWIDTH 605 0
DWIDTH 23 0
BBX 21 35 1 -8
BITMAP
01FFF8
07FFF8
0FFFF8
1FFFF8
3FFFF8
7F0000
7E0000
FC0000
F80000
F80000
F80000
F81FF8
F81FF8
F81FF8
F81FF8
F81FF8
F800F8
F800F8
F801F8
7C01F8
7E03F0
7F07F0
3FFFE0
1FFFC0
0FFF80
07FF00
01FC00
000000
000000
000000
00F800
00F800
00F800
00F800
00F800
ENDCHAR
STARTCHAR 0123
ENCODING 291
SWIDTH 473 0
DWIDTH 18 0
BBX 16 45 1 -8
BITMAP
0038
00F8
01F8
03F8
03F8
07F0
07C0
07C0
07C0
07C0
07C0
07C0
07C0
0000
0000
0000
07E0
1FF8
3FFC
7FFE
7FFE
FC3F
F81F
F81F
F81F
F81F
F81F
F81F
F81F
F81F
F81F
FC1F
7FFF
7FFF
3FFF
1FFF
07FF
003F
007E
01FE
FFFC
FFF8
FFF0
FFE0
FF00
ENDCHAR
STARTCHAR 0124
ENCODING 292
SWIDTH 552 0
DWIDTH 21 0
BBX 19 40 1 0
BITMAP
01E000
07F000
07F800
0FFC00
0FFC00
0FFC00
7FFF80
7FFF80
7F3F80
7E3F80
7C0F80
000000
000000
F803E0
F803E0
F803E0
F803E0
F803E0
F803E0
F803E0
F803E0
F803E0
F803E0
F803E0
FFFFE0
FFFFE0
FFFFE0
FFFFE0
FFFFE0
F803E0
F803E0
F803E0
F803E0
F803E0
F803E0
F803E0
F803E0
F803E0
F803E0
F803E0
ENDCHAR
STARTCHAR 0125
ENCODING 293
SWIDTH 473 0
DWIDTH 18 0
BBX 16 43 1 0
BITMAP
03C0
0FE0
0FF0
1FF8
1FF8
1FF8
FFFF
FFFF
FE7F
FC7F
F81F
0000
0000
0000
F800
F800
F800
F800
F800
F800
F800
F800
FFE0
FFF8
FFFC
FFFE
FFFE
F83F
F81F
F81F
F81F
F81F
F81F
F81F
F81F
F81F
F81F
F81F
F81F
F81F
F81F
F81F
F81F
ENDCHAR
STARTCHAR 0126
ENCODING 294
SWIDTH 763 0
DWIDTH 29 0
BBX 27 27 1 0
BITMAP
0F803E00
0F803E00
0F803E00
0F803E00
0F803E00
FFFFFFE0
FFFFFFE0
FFFFFFE0
FFFFFFE0
FFFFFFE0
0F803E00
0F803E00
0F803E00
0F803E00
0FFFFE00
0FFFFE00
0FFFFE00
0FFFFE00
0FFFFE00
0F803E00
0F803E00
0F803E00
0F803E00
0F803E00
0F803E00
0F803E00
0F803E00
ENDCHAR
STARTCHAR 0127
ENCODING 295
SWIDTH 631 0
DWIDTH 24 0
BBX 20 29 1 0
BITMAP
0F8000
0F8000
FFF800
FFF800
FFF800
FFF800
FFF800
0F8000
0F8000
0F8000
0F8000
0FFE00
0FFF80
0FFFC0
0FFFE0
0FFFE0
0F83F0
0F81F0
0F81F0
0F81F0
0F81F0
0F81F0
0F81F0
0F81F0
0F81F0
0F81F0
0F81F0
0F81F0
0F81F0
ENDCHAR
STARTCHAR 0128
ENCODING 296
SWIDTH 500 0
DWIDTH 19 0
BBX 19 40 0 0
BITMAP
F83F00
F8FF80
F9FFC0
F9FFE0
F9FFE0
FFFFE0
FFF3E0
FFF3E0
7FF3E0
3FE3E0
1F83E0
000000
000000
3FFF80
3FFF80
3FFF80
3FFF80
3FFF80
01F000
01F000
01F000
01F000
01F000
01F000
01F000
01F000
01F000
01F000
01F000
01F000
01F000
01F000
01F000
01F000
01F000
3FFF80
3FFF80
3FFF80
3FFF80
3FFF80
ENDCHAR
STARTCHAR 0129
ENCODING 297
SWIDTH 184 0
DWIDTH 7 0
BBX 19 35 -6 0
BITMAP
F83F00
F8FF80
F9FFC0
F9FFE0
F9FFE0
FFFFE0
FFF3E0
FFF3E0
7FF3E0
3FE3E0
1F83E0
000000
000000
000000
01F000
01F000
01F000
01F000
01F000
01F000
01F000
01F000
01F000
01F000
01F000
01F000
01F000
01F000
01F000
01F000
01F000
01F000
01F000
01F000
01F000
ENDCHAR
STARTCHAR 012A
ENCODING 298
SWIDTH 500 0
DWIDTH 19 0
BBX 16 35 1 0
BITMAP
FFFF
FFFF
FFFF
FFFF
FFFF
0000
0000
0000
7FFF
7FFF
7FFF
7FFF
7FFF
03E0
03E0
03E0
03E0
03E0
03E0
03E0
03E0
03E0
03E0
03E0
03E0
03E0
03E0
03E0
03E0
03E0
7FFF
7FFF
7FFF
7FFF
7FFF
ENDCHAR
STARTCHAR 012B
ENCODING 299
SWIDTH 184 0
DWIDTH 7 0
BBX 16 30 -4 0
BITMAP
FFFF
FFFF
FFFF
FFFF
FFFF
0000
0000
0000
0000
07C0
07C0
07C0
07C0
07C0
07C0
07C0
07C0
07C0
07C0
07C0
07C0
07C0
07C0
07C0
07C0
07C0
07C0
07C0
07C0
07C0
ENDCHAR
STARTCHAR 012C
ENCODING 300
SWIDTH 500 0
DWIDTH 19 0
BBX 15 40 2 0
BITMAP
F8F8
F8F8
F8F8
F8F8
F8F8
F8F8
FFF8
FFF8
7FF0
3FE0
1FC0
0000
0000
FFFE
FFFE
FFFE
FFFE
FFFE
07C0
07C0
07C0
07C0
07C0
07C0
07C0
07C0
07C0
07C0
07C0
07C0
07C0
07C0
07C0
07C0
07C0
FFFE
FFFE
FFFE
FFFE
FFFE
ENDCHAR
STARTCHAR 012D
ENCODING 301
SWIDTH 184 0
DWIDTH 7 0
BBX 13 35 -3 0
BITMAP
F8F8
F8F8
F8F8
F8F8
F8F8
F8F8
FFF8
FFF8
7FF0
3FE0
1FC0
0000
0000
0000
0F80
0F80
0F80
0F80
0F80
0F80
0F80
0F80
0F80
0F80
0F80
0F80
0F80
0F80
0F80
0F80
0F80
0F80
0F80
0F80
0F80
ENDCHAR
STARTCHAR 012E
ENCODING 302
SWIDTH 500 0
DWIDTH 19 0
BBX 15 35 2 -8
BITMAP
FFFE
FFFE
FFFE
FFFE
FFFE
07C0
07C0
07C0
07C0
07C0
07C0
07C0
07C0
07C0
07C0
07C0
07C0
07C0
07C0
07C0
07C0
07C0
FFFE
FFFE
FFFE
FFFE
FFFE
07C0
07C0
07E0
03FE
03FE
01FE
00FE
003E
ENDCHAR
STARTCHAR 012F
ENCODING 303
SWIDTH 184 0
DWIDTH 7 0
BBX 10 37 1 -8
BITMAP
F800
F800
F800
F800
F800
0000
0000
0000
F800
F800
F800
F800
F800
F800
F800
F800
F800
F800
F800
F800
F800
F800
F800
F800
F800
F800
F800
F800
F800
F800
F800
FC00
7FC0
7FC0
3FC0
1FC0
07C0
ENDCHAR
STARTCHAR 0130
ENCODING 304
SWIDTH 500 0
DWIDTH 19 0
BBX 15 35 2 0
BITMAP
0F80
0F80
0F80
0F80
0F80
0000
0000
0000
FFFE
FFFE
FFFE
FFFE
FFFE
07C0
07C0
07C0
07C0
07C0
07C0
07C0
07C0
07C0
07C0
07C0
07C0
07C0
07C0
07C0
07C0
07C0
FFFE
FFFE
FFFE
FFFE
FFFE
ENDCHAR
STARTCHAR 0131
ENCODING 305
SWIDTH 184 0
DWIDTH 7 0
BBX 5 21 1 0
BITMAP
F8
F8
F8
F8
F8
F8
F8
F8
F8
F8
F8
F8
F8
F8
F8
F8
F8
F8
F8
F8
F8
ENDCHAR
STARTCHAR 0132
ENCODING 306
SWIDTH 1078 0
DWIDTH 41 0
BBX 37 27 2 0
BITMAP
FFFE001FF8
FFFE001FF8
FFFE001FF8
FFFE001FF8
FFFE001FF8
07C00000F8
07C00000F8
07C00000F8
07C00000F8
07C00000F8
07C00000F8
07C00000F8
07C00000F8
07C00000F8
07C0F800F8
07C0F800F8
07C0F800F8
07C0F800F8
07C0F800F8
07C0FC01F8
07C07E03F0
07C07F07F0
FFFE3FFFE0
FFFE1FFFC0
FFFE0FFF80
FFFE07FF00
FFFE01FC00
ENDCHAR
STARTCHAR 0133
ENCODING 307
SWIDTH 421 0
DWIDTH 16 0
BBX 13 37 1 -8
BITMAP
F8F8
F8F8
F8F8
F8F8
F8F8
0000
0000
0000
F8F8
F8F8
F8F8
F8F8
F8F8
F8F8
F8F8
F8F8
F8F8
F8F8
F8F8
F8F8
F8F8
F8F8
F8F8
F8F8
F8F8
F8F8
F8F8
F8F8
F8F8
01F8
03F0
07F0
1FE0
1FC0
1F80
1F00
1C00
ENDCHAR
STARTCHAR 0134
ENCODING 308
SWIDTH 605 0
DWIDTH 23 0
BBX 21 40 1 0
BITMAP
007800
01FC00
01FE00
03FF00
03FF00
03FF00
1FFFE0
1FFFE0
1FCFE0
1F8FE0
1F03E0
000000
000000
001FF8
001FF8
001FF8
001FF8
001FF8
0000F8
0000F8
0000F8
0000F8
0000F8
0000F8
0000F8
0000F8
0000F8
F800F8
F800F8
F800F8
F800F8
F800F8
FC01F8
7E03F0
7F07F0
3FFFE0
1FFFC0
0FFF80
07FF00
01FC00
ENDCHAR
STARTCHAR 0135
ENCODING 309
SWIDTH 210 0
DWIDTH 8 0
BBX 16 43 -4 -8
BITMAP
03C0
0FE0
0FF0
1FF8
1FF8
1FF8
FFFF
FFFF
FE7F
FC7F
F81F
0000
0000
0000
07C0
07C0
07C0
07C0
07C0
07C0
07C0
07C0
07C0
07C0
07C0
07C0
07C0
07C0
07C0
07C0
07C0
07C0
07C0
07C0
07C0
0FC0
1F80
3F80
FF00
FE00
FC00
F800
E000
ENDCHAR
STARTCHAR 0136
ENCODING 310
SWIDTH 552 0
DWIDTH 21 0
BBX 19 35 1 -8
BITMAP
F803E0
F803E0
F803E0
F803E0
F803E0
F803E0
F803E0
F803E0
F807E0
F80FC0
F83FC0
FFFF80
FFFF00
FFFE00
FFFF00
FFFF80
F83FC0
F80FC0
F807E0
F803E0
F803E0
F803E0
F803E0
F803E0
F803E0
F803E0
F803E0
000000
000000
000000
01F000
01F000
01F000
01F000
01F000
ENDCHAR
STARTCHAR 0137
ENCODING 311
SWIDTH 473 0
DWIDTH 18 0
BBX 16 37 1 -8
BITMAP
F800
F800
F800
F800
F800
F800
F800
F800
F81F
F81F
F81F
F81F
F81F
F81F
F81F
F83F
FFFE
FFFE
FFFC
FFFE
FFFE
F83F
F81F
F81F
F81F
F81F
F81F
F81F
F81F
0000
0000
0000
07C0
07C0
07C0
07C0
07C0
ENDCHAR
STARTCHAR 0138
ENCODING 312
SWIDTH 473 0
DWIDTH 18 0
BBX 16 21 1 0
BITMAP
F81F
F81F
F81F
F81F
F81F
F81F
F81F
F83F
FFFE
FFFE
FFFC
FFFE
FFFE
F83F
F81F
F81F
F81F
F81F
F81F
F81F
F81F
ENDCHAR
STARTCHAR 0139
ENCODING 313
SWIDTH 552 0
DWIDTH 21 0
BBX 18 40 1 0
BITMAP
00F800
00F800
00F800
00F800
01F800
07F800
07F000
07F000
07E000
07C000
070000
000000
000000
F80000
F80000
F80000
F80000
F80000
F80000
F80000
F80000
F80000
F80000
F80000
F80000
F80000
F80000
F80000
F80000
F80000
F80000
F80000
F80000
F80000
F80000
FFFFC0
FFFFC0
FFFFC0
FFFFC0
FFFFC0
ENDCHAR
STARTCHAR 013A
ENCODING 314
SWIDTH 184 0
DWIDTH 7 0
BBX 8 43 0 0
BITMAP
1F
1F
1F
1F
3F
FF
FE
FE
FC
F8
E0
00
00
00
7C
7C
7C
7C
7C
7C
7C
7C
7C
7C
7C
7C
7C
7C
7C
7C
7C
7C
7C
7C
7C
7C
7C
7C
7C
7C
7C
7C
7C
ENDCHAR
STARTCHAR 013B
ENCODING 315
SWIDTH 552 0
DWIDTH 21 0
BBX 18 35 1 -8
BITMAP
F80000
F80000
F80000
F80000
F80000
F80000
F80000
F80000
F80000
F80000
F80000
F80000
F80000
F80000
F80000
F80000
F80000
F80000
F80000
F80000
F80000
F80000
FFFFC0
FFFFC0
FFFFC0
FFFFC0
FFFFC0
000000
000000
000000
01F000
01F000
01F000
01F000
01F000
ENDCHAR
STARTCHAR 013C
ENCODING 316
SWIDTH 184 0
DWIDTH 7 0
BBX 5 37 1 -8
BITMAP
F8
F8
F8
F8
F8
F8
F8
F8
F8
F8
F8
F8
F8
F8
F8
F8
F8
F8
F8
F8
F8
F8
F8
F8
F8
F8
F8
F8
F8
00
00
00
F8
F8
F8
F8
F8
ENDCHAR
STARTCHAR 013D
ENCODING 317
SWIDTH 552 0
DWIDTH 21 0
BBX 18 39 1 0
BITMAP
7C0F80
7E3F80
7F3F80
7FFF80
7FFF80
0FFC00
0FFC00
0FFC00
07F800
01E000
000000
000000
F80000
F80000
F80000
F80000
F80000
F80000
F80000
F80000
F80000
F80000
F80000
F80000
F80000
F80000
F80000
F80000
F80000
F80000
F80000
F80000
F80000
F80000
FFFFC0
FFFFC0
FFFFC0
FFFFC0
FFFFC0
ENDCHAR
STARTCHAR 013E
ENCODING 318
SWIDTH 500 0
DWIDTH 19 0
BBX 16 29 1 0
BITMAP
F81F
F81F
F81F
F81F
F81F
F81F
F81F
F83F
F8FE
F8FE
F8FC
F8F8
F8E0
F800
F800
F800
F800
F800
F800
F800
F800
F800
F800
F800
F800
F800
F800
F800
F800
ENDCHAR
STARTCHAR 013F
ENCODING 319
SWIDTH 552 0
DWIDTH 21 0
BBX 18 27 1 0
BITMAP
F80000
F80000
F80000
F80000
F80000
F80000
F80000
F80000
F80000
F80000
F80000
F87C00
F87C00
F87C00
F87C00
F87C00
F80000
F80000
F80000
F80000
F80000
F80000
FFFFC0
FFFFC0
FFFFC0
FFFFC0
FFFFC0
ENDCHAR
STARTCHAR 0140
ENCODING 320
SWIDTH 421 0
DWIDTH 16 0
BBX 13 29 1 0
BITMAP
F800
F800
F800
F800
F800
F800
F800
F800
F800
F800
F800
F800
F800
F8F8
F8F8
F8F8
F8F8
F8F8
F800
F800
F800
F800
F800
F800
F800
F800
F800
F800
F800
ENDCHAR
STARTCHAR 0141
ENCODING 321
SWIDTH 657 0
DWIDTH 25 0
BBX 22 27 1 0
BITMAP
0F8000
0F8000
0F8000
0F8000
0F8000
0F8000
0F8000
0F8000
0F8000
FFF800
FFF800
FFF800
FFF800
FFF800
0F8000
0F8000
0F8000
0F8000
0F8000
0F8000
0F8000
0F8000
0FFFFC
0FFFFC
0FFFFC
0FFFFC
0FFFFC
ENDCHAR
STARTCHAR 0142
ENCODING 322
SWIDTH 421 0
DWIDTH 16 0
BBX 13 29 1 0
BITMAP
0F80
0F80
0F80
0F80
0F80
0F80
0F80
0F80
0F80
0F80
0F80
0F80
FFF8
FFF8
FFF8
FFF8
FFF8
0F80
0F80
0F80
0F80
0F80
0F80
0F80
0F80
0F80
0F80
0F80
0F80
ENDCHAR
STARTCHAR 0143
ENCODING 323
SWIDTH 657 0
DWIDTH 25 0
BBX 23 40 1 0
BITMAP
001F00
001F00
001F00
001F00
003F00
00FF00
00FE00
00FE00
00FC00
00F800
00E000
000000
000000
FF003E
FFC03E
FFE03E
FFF03E
FFF83E
F9F83E
F8F83E
F87C3E
F87C3E
F87C3E
F87C3E
F87C3E
F87C3E
F87C3E
F87C3E
F87C3E
F87C3E
F87C3E
F87C3E
F87C3E
F87E3E
F83F3E
F83FFE
F81FFE
F80FFE
F807FE
F801FE
ENDCHAR
STARTCHAR 0144
ENCODING 324
SWIDTH 473 0
DWIDTH 18 0
BBX 16 35 1 0
BITMAP
01F0
01F0
01F0
01F0
03F0
0FF0
0FE0
0FE0
0FC0
0F80
0E00
0000
0000
0000
FFE0
FFF8
FFFC
FFFE
FFFE
F83F
F81F
F81F
F81F
F81F
F81F
F81F
F81F
F81F
F81F
F81F
F81F
F81F
F81F
F81F
F81F
ENDCHAR
STARTCHAR 0145
ENCODING 325
SWIDTH 657 0
DWIDTH 25 0
BBX 23 35 1 -8
BITMAP
FF003E
FFC03E
FFE03E
FFF03E
FFF83E
F9F83E
F8F83E
F87C3E
F87C3E
F87C3E
F87C3E
F87C3E
F87C3E
F87C3E
F87C3E
F87C3E
F87C3E
F87C3E
F87C3E
F87C3E
F87E3E
F83F3E
F83FFE
F81FFE
F80FFE
F807FE
F801FE
000000
000000
000000
007C00
007C00
007C00
007C00
007C00
ENDCHAR
STARTCHAR 0146
ENCODING 326
SWIDTH 473 0
DWIDTH 18 0
BBX 16 29 1 -8
BITMAP
FFE0
FFF8
FFFC
FFFE
FFFE
F83F
F81F
F81F
F81F
F81F
F81F
F81F
F81F
F81F
F81F
F81F
F81F
F81F
F81F
F81F
F81F
0000
0000
0000
07C0
07C0
07C0
07C0
07C0
ENDCHAR
STARTCHAR 0147
ENCODING 327
SWIDTH 657 0
DWIDTH 25 0
BBX 23 39 1 0
BITMAP
0F81F0
0FC7F0
0FE7F0
0FFFF0
0FFFF0
01FF80
01FF80
01FF80
00FF00
003C00
000000
000000
FF003E
FFC03E
FFE03E
FFF03E
FFF83E
F9F83E
F8F83E
F87C3E
F87C3E
F87C3E
F87C3E
F87C3E
F87C3E
F87C3E
F87C3E
F87C3E
F87C3E
F87C3E
F87C3E
F87C3E
F87E3E
F83F3E
F83FFE
F81FFE
F80FFE
F807FE
F801FE
ENDCHAR
STARTCHAR 0148
ENCODING 328
SWIDTH 473 0
DWIDTH 18 0
BBX 16 34 1 0
BITMAP
F81F
FC7F
FE7F
FFFF
FFFF
1FF8
1FF8
1FF8
0FF0
03C0
0000
0000
0000
FFE0
FFF8
FFFC
FFFE
FFFE
F83F
F81F
F81F
F81F
F81F
F81F
F81F
F81F
F81F
F81F
F81F
F81F
F81F
F81F
F81F
F81F
ENDCHAR
STARTCHAR 0149
ENCODING 329
SWIDTH 736 0
DWIDTH 28 0
BBX 25 29 1 0
BITMAP
1F000000
1F000000
1F000000
1F000000
1F000000
1F000000
1F000000
3F000000
FE7FF000
FE7FFC00
FC7FFE00
F87FFF00
E07FFF00
007C1F80
007C0F80
007C0F80
007C0F80
007C0F80
007C0F80
007C0F80
007C0F80
007C0F80
007C0F80
007C0F80
007C0F80
007C0F80
007C0F80
007C0F80
007C0F80
ENDCHAR
STARTCHAR 014A
ENCODING 330
SWIDTH 657 0
DWIDTH 25 0
BBX 23 35 1 -8
BITMAP
FF003E
FFC03E
FFE03E
FFF03E
FFF83E
F9F83E
F8F83E
F87C3E
F87C3E
F87C3E
F87C3E
F87C3E
F87C3E
F87C3E
F87C3E
F87C3E
F87C3E
F87C3E
F87C3E
F87C3E
F87E3E
F83F3E
F83FFE
F81FFE
F80FFE
F807FE
F801FE
00003E
00003E
00007E
0007FC
0007FC
0007F8
0007F0
0007C0
ENDCHAR
STARTCHAR 014B
ENCODING 331
SWIDTH 473 0
DWIDTH 18 0
BBX 16 29 1 -8
BITMAP
FFE0
FFF8
FFFC
FFFE
FFFE
F83F
F81F
F81F
F81F
F81F
F81F
F81F
F81F
F81F
F81F
F81F
F81F
F81F
F81F
F81F
F81F
001F
001F
003F
07FE
07FE
07FC
07F8
07E0
ENDCHAR
STARTCHAR 014C
ENCODING 332
SWIDTH 605 0
DWIDTH 23 0
BBX 21 35 1 0
BITMAP
1FFFE0
1FFFE0
1FFFE0
1FFFE0
1FFFE0
000000
000000
000000
01FC00
07FF00
0FFF80
1FFFC0
3FFFE0
7F07F0
7E03F0
FC01F0
F800F8
F800F8
F800F8
F800F8
F800F8
F800F8
F800F8
F800F8
F800F8
F800F8
F800F8
7C01F8
7E03F0
7F07F0
3FFFE0
1FFFC0
0FFF80
07FF00
01FC00
ENDCHAR
STARTCHAR 014D
ENCODING 333
SWIDTH 473 0
DWIDTH 18 0
BBX 16 30 1 0
BITMAP
FFFF
FFFF
FFFF
FFFF
FFFF
0000
0000
0000
0000
07E0
1FF8
3FFC
7FFE
7FFE
FC3F
F81F
F81F
F81F
F81F
F81F
F81F
F81F
F81F
F81F
FC3F
7FFE
7FFE
3FFC
1FF8
07E0
ENDCHAR
STARTCHAR 014E
ENCODING 334
SWIDTH 605 0
DWIDTH 23 0
BBX 21 40 1 0
BITMAP
0F8F80
0F8F80
0F8F80
0F8F80
0F8F80
0F8F80
0FFF80
0FFF80
07FF00
03FE00
01FC00
000000
000000
01FC00
07FF00
0FFF80
1FFFC0
3FFFE0
7F07F0
7E03F0
FC01F0
F800F8
F800F8
F800F8
F800F8
F800F8
F800F8
F800F8
F800F8
F800F8
F800F8
F800F8
7C01F8
7E03F0
7F07F0
3FFFE0
1FFFC0
0FFF80
07FF00
01FC00
ENDCHAR
STARTCHAR 014F
ENCODING 335
SWIDTH 473 0
DWIDTH 18 0
BBX 16 35 1 0
BITMAP
7C7C
7C7C
7C7C
7C7C
7C7C
7C7C
7FFC
7FFC
3FF8
1FF0
0FE0
0000
0000
0000
07E0
1FF8
3FFC
7FFE
7FFE
FC3F
F81F
F81F
F81F
F81F
F81F
F81F
F81F
F81F
F81F
FC3F
7FFE
7FFE
3FFC
1FF8
07E0
ENDCHAR
STARTCHAR 0150
ENCODING 336
SWIDTH 605 0
DWIDTH 23 0
BBX 21 40 1 0
BITMAP
07C1F0
07C1F0
07C1F0
07C1F0
07C1F0
0FC3F0
3F8FE0
3F8FE0
3F0FC0
3E0F80
380E00
000000
000000
01FC00
07FF00
0FFF80
1FFFC0
3FFFE0
7F07F0
7E03F0
FC01F0
F800F8
F800F8
F800F8
F800F8
F800F8
F800F8
F800F8
F800F8
F800F8
F800F8
F800F8
7C01F8
7E03F0
7F07F0
3FFFE0
1FFFC0
0FFF80
07FF00
01FC00
ENDCHAR
STARTCHAR 0151
ENCODING 337
SWIDTH 473 0
DWIDTH 18 0
BBX 18 35 0 0
BITMAP
1F07C0
1F07C0
1F07C0
1F07C0
1F07C0
3F0FC0
FE3F80
FE3F80
FC3F00
F83E00
E03800
000000
000000
000000
03F000
0FFC00
1FFE00
3FFF00
3FFF00
7E1F80
7C0F80
7C0F80
7C0F80
7C0F80
7C0F80
7C0F80
7C0F80
7C0F80
7C0F80
7E1F80
3FFF00
3FFF00
1FFE00
0FFC00
03F000
ENDCHAR
STARTCHAR 0152
ENCODING 338
SWIDTH 842 0
DWIDTH 32 0
BBX 30 27 1 0
BITMAP
00FFFFFC
07FFFFFC
0FFFFFFC
1FFFFFFC
3FFFFFFC
7F83E000
7E03E000
FC03E000
F803E000
F803E000
F803E000
F803FFFC
F803FFFC
F803FFFC
F803FFFC
F803FFFC
F803E000
F803E000
F803E000
7C03E000
7E03E000
7F83E000
3FFFFFFC
1FFFFFFC
0FFFFFFC
07FFFFFC
00FFFFFC
ENDCHAR
STARTCHAR 0153
ENCODING 339
SWIDTH 763 0
DWIDTH 29 0
BBX 27 21 1 0
BITMAP
07E0FC00
1FFBFF00
3FFFFF80
7FFFFFC0
7FFFFFC0
FC3F87E0
F81F03E0
F81F03E0
F81FFFE0
F81FFFE0
F81FFFC0
F81FFFC0
F81FFF00
F81F8000
F81F8000
FC3FC000
7FFFFFE0
7FFFFFE0
3FFFFFE0
1FFBFFE0
07E0FFE0
ENDCHAR
STARTCHAR 0154
ENCODING 340
SWIDTH 552 0
DWIDTH 21 0
BBX 19 40 1 0
BITMAP
00F800
00F800
00F800
00F800
01F800
07F800
07F000
07F000
07E000
07C000
070000
000000
000000
FFFC00
FFFF00
FFFF80
FFFFC0
FFFFC0
F807E0
F803E0
F803E0
F803E0
F803E0
F807E0
FFFFC0
FFFFC0
FFFF80
FFFF00
FFFF80
F83FC0
F80FC0
F807E0
F803E0
F803E0
F803E0
F803E0
F803E0
F803E0
F803E0
F803E0
ENDCHAR
STARTCHAR 0155
ENCODING 341
SWIDTH 500 0
DWIDTH 19 0
BBX 16 35 1 0
BITMAP
01F0
01F0
01F0
01F0
03F0
0FF0
0FE0
0FE0
0FC0
0F80
0E00
0000
0000
0000
FFC0
FFF0
FFF8
FFFC
FFFE
F87E
F83E
F83F
F800
F800
F800
F800
F800
F800
F800
F800
F800
F800
F800
F800
F800
ENDCHAR
STARTCHAR 0156
ENCODING 342
SWIDTH 552 0
DWIDTH 21 0
BBX 19 35 1 -8
BITMAP
FFFC00
FFFF00
FFFF80
FFFFC0
FFFFC0
F807E0
F803E0
F803E0
F803E0
F803E0
F807E0
FFFFC0
FFFFC0
FFFF80
FFFF00
FFFF80
F83FC0
F80FC0
F807E0
F803E0
F803E0
F803E0
F803E0
F803E0
F803E0
F803E0
F803E0
000000
000000
000000
01F000
01F000
01F000
01F000
01F000
ENDCHAR
STARTCHAR 0157
ENCODING 343
SWIDTH 500 0
DWIDTH 19 0
BBX 16 29 1 -8
BITMAP
FFC0
FFF0
FFF8
FFFC
FFFE
F87E
F83E
F83F
F800
F800
F800
F800
F800
F800
F800
F800
F800
F800
F800
F800
F800
0000
0000
0000
F800
F800
F800
F800
F800
ENDCHAR
STARTCHAR 0158
ENCODING 344
SWIDTH 552 0
DWIDTH 21 0
BBX 19 39 1 0
BITMAP
7C0F80
7E3F80
7F3F80
7FFF80
7FFF80
0FFC00
0FFC00
0FFC00
07F800
01E000
000000
000000
FFFC00
FFFF00
FFFF80
FFFFC0
FFFFC0
F807E0
F803E0
F803E0
F803E0
F803E0
F807E0
FFFFC0
FFFFC0
FFFF80
FFFF00
FFFF80
F83FC0
F80FC0
F807E0
F803E0
F803E0
F803E0
F803E0
F803E0
F803E0
F803E0
F803E0
ENDCHAR
STARTCHAR 0159
ENCODING 345
SWIDTH 500 0
DWIDTH 19 0
BBX 16 34 1 0
BITMAP
F81F
FC7F
FE7F
FFFF
FFFF
1FF8
1FF8
1FF8
0FF0
03C0
0000
0000
0000
FFC0
FFF0
FFF8
FFFC
FFFE
F87E
F83E
F83F
F800
F800
F800
F800
F800
F800
F800
F800
F800
F800
F800
F800
F800
ENDCHAR
STARTCHAR 015A
ENCODING 346
SWIDTH 552 0
DWIDTH 21 0
BBX 19 40 1 0
BITMAP
00F800
00F800
00F800
00F800
01F800
07F800
07F000
07F000
07E000
07C000
070000
000000
000000
07FFE0
1FFFE0
3FFFE0
7FFFE0
7FFFE0
FC0000
F80000
F80000
F80000
F80000
FC0000
7FF800
7FFE00
3FFF80
1FFFC0
03FFC0
0007E0
0003E0
0003E0
0003E0
0003E0
0007E0
FFFFC0
FFFFC0
FFFF80
FFFF00
FFFC00
ENDCHAR
STARTCHAR 015B
ENCODING 347
SWIDTH 473 0
DWIDTH 18 0
BBX 16 35 1 0
BITMAP
01F0
01F0
01F0
01F0
03F0
0FF0
0FE0
0FE0
0FC0
0F80
0E00
0000
0000
0000
1FFF
7FFF
7FFF
FFFF
FFFF
F800
F800
F800
FFF8
FFFC
7FFE
7FFF
1FFF
001F
001F
001F
FFFF
FFFF
FFFE
FFFE
FFF8
ENDCHAR
STARTCHAR 015C
ENCODING 348
SWIDTH 552 0
DWIDTH 21 0
BBX 19 40 1 0
BITMAP
01E000
07F000
07F800
0FFC00
0FFC00
0FFC00
7FFF80
7FFF80
7F3F80
7E3F80
7C0F80
000000
000000
07FFE0
1FFFE0
3FFFE0
7FFFE0
7FFFE0
FC0000
F80000
F80000
F80000
F80000
FC0000
7FF800
7FFE00
3FFF80
1FFFC0
03FFC0
0007E0
0003E0
0003E0
0003E0
0003E0
0007E0
FFFFC0
FFFFC0
FFFF80
FFFF00
FFFC00
ENDCHAR
STARTCHAR 015D
ENCODING 349
SWIDTH 473 0
DWIDTH 18 0
BBX 16 35 1 0
BITMAP
03C0
0FE0
0FF0
1FF8
1FF8
1FF8
FFFF
FFFF
FE7F
FC7F
F81F
0000
0000
0000
1FFF
7FFF
7FFF
FFFF
FFFF
F800
F800
F800
FFF8
FFFC
7FFE
7FFF
1FFF
001F
001F
001F
FFFF
FFFF
FFFE
FFFE
FFF8
ENDCHAR
STARTCHAR 015E
ENCODING 350
SWIDTH 552 0
DWIDTH 21 0
BBX 19 35 1 -8
BITMAP
07FFE0
1FFFE0
3FFFE0
7FFFE0
7FFFE0
FC0000
F80000
F80000
F80000
F80000
FC0000
7FF800
7FFE00
3FFF80
1FFFC0
03FFC0
0007E0
0003E0
0003E0
0003E0
0003E0
0007E0
FFFFC0
FFFFC0
FFFF80
FFFF00
FFFC00
000000
000000
000000
01F000
01F000
01F000
01F000
01F000
ENDCHAR
STARTCHAR 015F
ENCODING 351
SWIDTH 473 0
DWIDTH 18 0
BBX 16 29 1 -8
BITMAP
1FFF
7FFF
7FFF
FFFF
FFFF
F800
F800
F800
FFF8
FFFC
7FFE
7FFF
1FFF
001F
001F
001F
FFFF
FFFF
FFFE
FFFE
FFF8
0000
0000
0000
07C0
07C0
07C0
07C0
07C0
ENDCHAR
STARTCHAR 0160
ENCODING 352
SWIDTH 552 0
DWIDTH 21 0
BBX 19 39 1 0
BITMAP
7C0F80
7E3F80
7F3F80
7FFF80
7FFF80
0FFC00
0FFC00
0FFC00
07F800
01E000
000000
000000
07FFE0
1FFFE0
3FFFE0
7FFFE0
7FFFE0
FC0000
F80000
F80000
F80000
F80000
FC0000
7FF800
7FFE00
3FFF80
1FFFC0
03FFC0
0007E0
0003E0
0003E0
0003E0
0003E0
0007E0
FFFFC0
FFFFC0
FFFF80
FFFF00
FFFC00
ENDCHAR
STARTCHAR 0161
ENCODING 353
SWIDTH 473 0
DWIDTH 18 0
BBX 16 34 1 0
BITMAP
F81F
FC7F
FE7F
FFFF
FFFF
1FF8
1FF8
1FF8
0FF0
03C0
0000
0000
0000
1FFF
7FFF
7FFF
FFFF
FFFF
F800
F800
F800
FFF8
FFFC
7FFE
7FFF
1FFF
001F
001F
001F
FFFF
FFFF
FFFE
FFFE
FFF8
ENDCHAR
STARTCHAR 0162
ENCODING 354
SWIDTH 631 0
DWIDTH 24 0
BBX 21 35 1 -8
BITMAP
FFFFF8
FFFFF8
FFFFF8
FFFFF8
FFFFF8
00F800
00F800
00F800
00F800
00F800
00F800
00F800
00F800
00F800
00F800
00F800
00F800
00F800
00F800
00F800
00F800
00F800
00F800
00F800
00F800
00F800
00F800
000000
000000
000000
00F800
00F800
00F800
00F800
00F800
ENDCHAR
STARTCHAR 0163
ENCODING 355
SWIDTH 342 0
DWIDTH 13 0
BBX 10 37 1 -8
BITMAP
F800
F800
F800
F800
F800
F800
F800
F800
FFC0
FFC0
FFC0
FFC0
FFC0
F800
F800
F800
F800
F800
F800
F800
F800
F800
F800
FC00
7FC0
7FC0
3FC0
1FC0
07C0
0000
0000
0000
1F00
1F00
1F00
1F00
1F00
ENDCHAR
STARTCHAR 0164
ENCODING 356
SWIDTH 631 0
DWIDTH 24 0
BBX 21 39 1 0
BITMAP
1F03E0
1F8FE0
1FCFE0
1FFFE0
1FFFE0
03FF00
03FF00
03FF00
01FE00
007800
000000
000000
FFFFF8
FFFFF8
FFFFF8
FFFFF8
FFFFF8
00F800
00F800
00F800
00F800
00F800
00F800
00F800
00F800
00F800
00F800
00F800
00F800
00F800
00F800
00F800
00F800
00F800
00F800
00F800
00F800
00F800
00F800
ENDCHAR
STARTCHAR 0165
ENCODING 357
SWIDTH 631 0
DWIDTH 24 0
BBX 21 29 1 0
BITMAP
F800F8
F800F8
F800F8
F800F8
F800F8
F800F8
F800F8
F801F8
FFC7F0
FFC7F0
FFC7E0
FFC7C0
FFC700
F80000
F80000
F80000
F80000
F80000
F80000
F80000
F80000
F80000
F80000
FC0000
7FC000
7FC000
3FC000
1FC000
07C000
ENDCHAR
STARTCHAR 0166
ENCODING 358
SWIDTH 631 0
DWIDTH 24 0
BBX 21 27 1 0
BITMAP
FFFFF8
FFFFF8
FFFFF8
FFFFF8
FFFFF8
00F800
00F800
00F800
00F800
00F800
00F800
0FFF80
0FFF80
0FFF80
0FFF80
0FFF80
00F800
00F800
00F800
00F800
00F800
00F800
00F800
00F800
00F800
00F800
00F800
ENDCHAR
STARTCHAR 0167
ENCODING 359
SWIDTH 447 0
DWIDTH 17 0
BBX 14 29 1 0
BITMAP
0F80
0F80
0F80
0F80
0F80
0F80
0F80
0F80
0FFC
0FFC
0FFC
0FFC
0FFC
0F80
0F80
0F80
FFFC
FFFC
FFFC
FFFC
FFFC
0F80
0F80
0FC0
07FC
07FC
03FC
01FC
007C
ENDCHAR
STARTCHAR 0168
ENCODING 360
SWIDTH 605 0
DWIDTH 23 0
BBX 21 40 1 0
BITMAP
7C1F80
7C7FC0
7CFFE0
7CFFF0
7CFFF0
7FFFF0
7FF9F0
7FF9F0
3FF9F0
1FF1F0
0FC1F0
000000
000000
F800F8
F800F8
F800F8
F800F8
F800F8
F800F8
F800F8
F800F8
F800F8
F800F8
F800F8
F800F8
F800F8
F800F8
F800F8
F800F8
F800F8
F800F8
F800F8
7C01F8
7E03F0
7F07F0
3FFFE0
1FFFC0
0FFF80
07FF00
01FC00
ENDCHAR
STARTCHAR 0169
ENCODING 361
SWIDTH 473 0
DWIDTH 18 0
BBX 19 35 0 0
BITMAP
F83F00
F8FF80
F9FFC0
F9FFE0
F9FFE0
FFFFE0
FFF3E0
FFF3E0
7FF3E0
3FE3E0
1F83E0
000000
000000
000000
7C0F80
7C0F80
7C0F80
7C0F80
7C0F80
7C0F80
7C0F80
7C0F80
7C0F80
7C0F80
7C0F80
7C0F80
7C0F80
7C0F80
7C0F80
7E1F80
3FFF00
3FFF00
1FFE00
0FFC00
03F000
ENDCHAR
STARTCHAR 016A
ENCODING 362
SWIDTH 605 0
DWIDTH 23 0
BBX 21 35 1 0
BITMAP
1FFFE0
1FFFE0
1FFFE0
1FFFE0
1FFFE0
000000
000000
000000
F800F8
F800F8
F800F8
F800F8
F800F8
F800F8
F800F8
F800F8
F800F8
F800F8
F800F8
F800F8
F800F8
F800F8
F800F8
F800F8
F800F8
F800F8
F800F8
7C01F8
7E03F0
7F07F0
3FFFE0
1FFFC0
0FFF80
07FF00
01FC00
ENDCHAR
STARTCHAR 016B
ENCODING 363
SWIDTH 473 0
DWIDTH 18 0
BBX 16 30 1 0
BITMAP
FFFF
FFFF
FFFF
FFFF
FFFF
0000
0000
0000
0000
F81F
F81F
F81F
F81F
F81F
F81F
F81F
F81F
F81F
F81F
F81F
F81F
F81F
F81F
F81F
FC3F
7FFE
7FFE
3FFC
1FF8
07E0
ENDCHAR
STARTCHAR 016C
ENCODING 364
SWIDTH 605 0
DWIDTH 23 0
BBX 21 40 1 0
BITMAP
0F8F80
0F8F80
0F8F80
0F8F80
0F8F80
0F8F80
0FFF80
0FFF80
07FF00
03FE00
01FC00
000000
000000
F800F8
F800F8
F800F8
F800F8
F800F8
F800F8
F800F8
F800F8
F800F8
F800F8
F800F8
F800F8
F800F8
F800F8
F800F8
F800F8
F800F8
F800F8
F800F8
7C01F8
7E03F0
7F07F0
3FFFE0
1FFFC0
0FFF80
07FF00
01FC00
ENDCHAR
STARTCHAR 016D
ENCODING 365
SWIDTH 473 0
DWIDTH 18 0
BBX 16 35 1 0
BITMAP
7C7C
7C7C
7C7C
7C7C
7C7C
7C7C
7FFC
7FFC
3FF8
1FF0
0FE0
0000
0000
0000
F81F
F81F
F81F
F81F
F81F
F81F
F81F
F81F
F81F
F81F
F81F
F81F
F81F
F81F
F81F
FC3F
7FFE
7FFE
3FFC
1FF8
07E0
ENDCHAR
STARTCHAR 016E
ENCODING 366
SWIDTH 605 0
DWIDTH 23 0
BBX 21 42 1 0
BITMAP
01FC00
07FE00
07FF00
0FFF80
0FFF80
0F8F80
0F8F80
0F8F80
0FFF80
0FFF80
07FF00
07FF00
01FC00
000000
000000
F800F8
F800F8
F800F8
F800F8
F800F8
F800F8
F800F8
F800F8
F800F8
F800F8
F800F8
F800F8
F800F8
F800F8
F800F8
F800F8
F800F8
F800F8
F800F8
7C01F8
7E03F0
7F07F0
3FFFE0
1FFFC0
0FFF80
07FF00
01FC00
ENDCHAR
STARTCHAR 016F
ENCODING 367
SWIDTH 473 0
DWIDTH 18 0
BBX 16 37 1 0
BITMAP
0FE0
3FF0
3FF8
7FFC
7FFC
7C7C
7C7C
7C7C
7FFC
7FFC
3FF8
3FF8
0FE0
0000
0000
0000
F81F
F81F
F81F
F81F
F81F
F81F
F81F
F81F
F81F
F81F
F81F
F81F
F81F
F81F
F81F
FC3F
7FFE
7FFE
3FFC
1FF8
07E0
ENDCHAR
STARTCHAR 0170
ENCODING 368
SWIDTH 605 0
DWIDTH 23 0
BBX 21 40 1 0
BITMAP
07C1F0
07C1F0
07C1F0
07C1F0
07C1F0
0FC3F0
3F8FE0
3F8FE0
3F0FC0
3E0F80
380E00
000000
000000
F800F8
F800F8
F800F8
F800F8
F800F8
F800F8
F800F8
F800F8
F800F8
F800F8
F800F8
F800F8
F800F8
F800F8
F800F8
F800F8
F800F8
F800F8
F800F8
7C01F8
7E03F0
7F07F0
3FFFE0
1FFFC0
0FFF80
07FF00
01FC00
ENDCHAR
STARTCHAR 0171
ENCODING 369
SWIDTH 473 0
DWIDTH 18 0
BBX 18 35 0 0
BITMAP
1F07C0
1F07C0
1F07C0
1F07C0
1F07C0
3F0FC0
FE3F80
FE3F80
FC3F00
F83E00
E03800
000000
000000
000000
7C0F80
7C0F80
7C0F80
7C0F80
7C0F80
7C0F80
7C0F80
7C0F80
7C0F80
7C0F80
7C0F80
7C0F80
7C0F80
7C0F80
7C0F80
7E1F80
3FFF00
3FFF00
1FFE00
0FFC00
03F000
ENDCHAR
STARTCHAR 0172
ENCODING 370
SWIDTH 605 0
DWIDTH 23 0
BBX 21 35 1 -8
BITMAP
F800F8
F800F8
F800F8
F800F8
F800F8
F800F8
F800F8
F800F8
F800F8
F800F8
F800F8
F800F8
F800F8
F800F8
F800F8
F800F8
F800F8
F800F8
FC01F8
7C01F8
7F07F0
7FFFF0
3FFFE0
1FFFC0
0FFF80
07FF00
00FC00
00F800
00F800
00FC00
007FE0
007FE0
003FE0
001FE0
0007E0
ENDCHAR
STARTCHAR 0173
ENCODING 371
SWIDTH 447 0
DWIDTH 17 0
BBX 15 29 1 -8
BITMAP
F83E
F83E
F83E
F83E
F83E
F83E
F83E
F83E
F83E
F83E
F83E
F83E
F83E
F83E
F83E
FC7E
7FFC
7FFC
3FF8
1FF0
07E0
07C0
07C0
07E0
03FE
03FE
01FE
00FE
003E
ENDCHAR
STARTCHAR 0174
ENCODING 372
SWIDTH 763 0
DWIDTH 29 0
BBX 27 40 1 0
BITMAP
001E0000
007F0000
007F8000
00FFC000
00FFC000
00FFC000
07FFF800
07FFF800
07F3F800
07E3F800
07C0F800
00000000
00000000
F81F03E0
F81F03E0
F81F03E0
F81F03E0
F81F03E0
F81F03E0
F81F03E0
F81F03E0
F81F03E0
F81F03E0
F81F03E0
F81F03E0
F81F03E0
F81F03E0
F81F03E0
F81F03E0
F81F03E0
F81F03E0
F81F03E0
F83F83E0
F87FC3E0
F9FFF3E0
FFFFFFE0
FFFBFFE0
FFF1FFE0
FFE0FFE0
FF001FE0
ENDCHAR
STARTCHAR 0175
ENCODING 373
SWIDTH 763 0
DWIDTH 29 0
BBX 27 35 1 0
BITMAP
001E0000
007F0000
007F8000
00FFC000
00FFC000
00FFC000
07FFF800
07FFF800
07F3F800
07E3F800
07C0F800
00000000
00000000
00000000
F81F03E0
F81F03E0
F81F03E0
F81F03E0
F81F03E0
F81F03E0
F81F03E0
F81F03E0
F81F03E0
F81F03E0
F81F03E0
F81F03E0
F81F03E0
F81F03E0
F81F03E0
F81F07E0
FFFFFFC0
FFFFFFC0
FFFFFF80
FFFFFF00
FFFFFC00
ENDCHAR
STARTCHAR 0176
ENCODING 374
SWIDTH 605 0
DWIDTH 23 0
BBX 21 40 1 0
BITMAP
007800
01FC00
01FE00
03FF00
03FF00
03FF00
1FFFE0
1FFFE0
1FCFE0
1F8FE0
1F03E0
000000
000000
F800F8
F800F8
F800F8
F800F8
F800F8
FC01F8
7E03F0
7F07F0
3FFFE0
3FFFE0
1FFFC0
0FFF80
03FE00
00F800
00F800
00F800
00F800
00F800
00F800
00F800
00F800
00F800
00F800
00F800
00F800
00F800
00F800
ENDCHAR
STARTCHAR 0177
ENCODING 375
SWIDTH 473 0
DWIDTH 18 0
BBX 16 43 1 -8
BITMAP
03C0
0FE0
0FF0
1FF8
1FF8
1FF8
FFFF
FFFF
FE7F
FC7F
F81F
0000
0000
0000
F81F
F81F
F81F
F81F
F81F
F81F
F81F
F81F
F81F
F81F
F81F
F81F
F81F
F81F
F81F
FC1F
7FFF
7FFF
3FFF
1FFF
07FF
003F
007E
01FE
FFFC
FFF8
FFF0
FFE0
FF00
ENDCHAR
STARTCHAR 0178
ENCODING 376
SWIDTH 605 0
DWIDTH 23 0
BBX 21 35 1 0
BITMAP
0F8F80
0F8F80
0F8F80
0F8F80
0F8F80
000000
000000
000000
F800F8
F800F8
F800F8
F800F8
F800F8
FC01F8
7E03F0
7F07F0
3FFFE0
3FFFE0
1FFFC0
0FFF80
03FE00
00F800
00F800
00F800
00F800
00F800
00F800
00F800
00F800
00F800
00F800
00F800
00F800
00F800
00F800
ENDCHAR
STARTCHAR 0179
ENCODING 377
SWIDTH 605 0
DWIDTH 23 0
BBX 21 40 1 0
BITMAP
003E00
003E00
003E00
003E00
007E00
01FE00
01FC00
01FC00
01F800
01F000
01C000
000000
000000
FFFFF8
FFFFF8
FFFFF8
FFFFF8
FFFFF8
0000F8
0000F8
0001F8
0001F8
0003F0
0007F0
01FFE0
07FFC0
0FFF80
1FFF00
3FFC00
7F0000
7E0000
FC0000
F80000
F80000
F80000
FFFFF8
FFFFF8
FFFFF8
FFFFF8
FFFFF8
ENDCHAR
STARTCHAR 017A
ENCODING 378
SWIDTH 473 0
DWIDTH 18 0
BBX 16 35 1 0
BITMAP
01F0
01F0
01F0
01F0
03F0
0FF0
0FE0
0FE0
0FC0
0F80
0E00
0000
0000
0000
FFFF
FFFF
FFFF
FFFF
FFFF
001F
001F
001F
1FFF
7FFF
7FFE
FFFE
FFF8
F800
F800
F800
FFFF
FFFF
FFFF
FFFF
FFFF
ENDCHAR
STARTCHAR 017B
ENCODING 379
SWIDTH 605 0
DWIDTH 23 0
BBX 21 35 1 0
BITMAP
00F800
00F800
00F800
00F800
00F800
000000
000000
000000
FFFFF8
FFFFF8
FFFFF8
FFFFF8
FFFFF8
0000F8
0000F8
0001F8
0001F8
0003F0
0007F0
01FFE0
07FFC0
0FFF80
1FFF00
3FFC00
7F0000
7E0000
FC0000
F80000
F80000
F80000
FFFFF8
FFFFF8
FFFFF8
FFFFF8
FFFFF8
ENDCHAR
STARTCHAR 017C
ENCODING 380
SWIDTH 473 0
DWIDTH 18 0
BBX 16 30 1 0
BITMAP
07C0
07C0
07C0
07C0
07C0
0000
0000
0000
0000
FFFF
FFFF
FFFF
FFFF
FFFF
001F
001F
001F
1FFF
7FFF
7FFE
FFFE
FFF8
F800
F800
F800
FFFF
FFFF
FFFF
FFFF
FFFF
ENDCHAR
STARTCHAR 017D
ENCODING 381
SWIDTH 605 0
DWIDTH 23 0
BBX 21 39 1 0
BITMAP
1F03E0
1F8FE0
1FCFE0
1FFFE0
1FFFE0
03FF00
03FF00
03FF00
01FE00
007800
000000
000000
FFFFF8
FFFFF8
FFFFF8
FFFFF8
FFFFF8
0000F8
0000F8
0001F8
0001F8
0003F0
0007F0
01FFE0
07FFC0
0FFF80
1FFF00
3FFC00
7F0000
7E0000
FC0000
F80000
F80000
F80000
FFFFF8
FFFFF8
FFFFF8
FFFFF8
FFFFF8
ENDCHAR
STARTCHAR 017E
ENCODING 382
SWIDTH 473 0
DWIDTH 18 0
BBX 16 34 1 0
BITMAP
F81F
FC7F
FE7F
FFFF
FFFF
1FF8
1FF8
1FF8
0FF0
03C0
0000
0000
0000
FFFF
FFFF
FFFF
FFFF
FFFF
001F
001F
001F
1FFF
7FFF
7FFE
FFFE
FFF8
F800
F800
F800
FFFF
FFFF
FFFF
FFFF
FFFF
ENDCHAR
STARTCHAR 017F
ENCODING 383
SWIDTH 421 0
DWIDTH 16 0
BBX 13 29 1 0
BITMAP
00F8
03F8
07F8
0FF8
0FF8
1F80
1F00
1F00
FF00
FF00
FF00
FF00
FF00
1F00
1F00
1F00
1F00
1F00
1F00
1F00
1F00
1F00
1F00
1F00
1F00
1F00
1F00
1F00
1F00
ENDCHAR
STARTCHAR 0180
ENCODING 384
SWIDTH 578 0
DWIDTH 22 0
BBX 20 29 1 0
BITMAP
0F8000
0F8000
FFF800
FFF800
FFF800
FFF800
FFF800
0F8000
0F8000
0F8000
0F8000
0FFE00
0FFF80
0FFFC0
0FFFE0
0FFFE0
0F83F0
0F81F0
0F81F0
0F81F0
0F81F0
0F81F0
0F81F0
0FC3F0
07FFE0
07FFE0
03FFC0
01FF80
007E00
ENDCHAR
STARTCHAR 0181
ENCODING 385
SWIDTH 789 0
DWIDTH 30 0
BBX 28 27 1 0
BITMAP
03FFFE00
0FFFFF80
1FFFFFC0
3FFFFFE0
7FFFFFE0
7F3E03F0
FC3E01F0
FC3E01F0
F83E01F0
F83E01F0
F83E03F0
003FFFE0
003FFFE0
003FFFC0
003FFFE0
003FFFE0
003E03F0
003E01F0
003E01F0
003E01F0
003E01F0
003E03F0
003FFFE0
003FFFE0
003FFFC0
003FFF80
003FFE00
ENDCHAR
STARTCHAR 0182
ENCODING 386
SWIDTH 552 0
DWIDTH 21 0
BBX 19 27 1 0
BITMAP
FFFFE0
FFFFE0
FFFFE0
FFFFE0
FFFFE0
F80000
F80000
F80000
F80000
F80000
F80000
FFF800
FFFE00
FFFF80
FFFFC0
FFFFC0
F807E0
F803E0
F803E0
F803E0
F803E0
F807E0
FFFFC0
FFFFC0
FFFF80
FFFF00
FFFC00
ENDCHAR
STARTCHAR 0183
ENCODING 387
SWIDTH 473 0
DWIDTH 18 0
BBX 16 29 1 0
BITMAP
FFFF
FFFF
FFFF
FFFF
FFFF
F800
F800
F800
F800
FFE0
FFF8
FFFC
FFFE
FFFE
F83F
F81F
F81F
F81F
F81F
F81F
F81F
F81F
F81F
FC3F
7FFE
7FFE
3FFC
1FF8
07E0
ENDCHAR
STARTCHAR 0186
ENCODING 390
SWIDTH 605 0
DWIDTH 23 0
BBX 21 27 1 0
BITMAP
01FC00
07FF00
0FFF80
1FFFC0
3FFFE0
7F07F0
7E03F0
FC01F0
F800F8
F800F8
0000F8
0000F8
0000F8
0000F8
0000F8
0000F8
0000F8
F800F8
F800F8
FC01F8
7E03F0
7F07F0
3FFFE0
1FFFC0
0FFF80
07FF00
01FC00
ENDCHAR
STARTCHAR 0189
ENCODING 393
SWIDTH 657 0
DWIDTH 25 0
BBX 23 27 1 0
BITMAP
0FFE00
0FFFC0
0FFFE0
0FFFF0
0FFFF8
0F83FC
0F80FC
0F807C
0F803E
0F803E
0F803E
FFF83E
FFF83E
FFF83E
FFF83E
FFF83E
0F803E
0F803E
0F803E
0F807C
0F80FC
0F83FC
0FFFF8
0FFFF0
0FFFE0
0FFFC0
0FFE00
ENDCHAR
STARTCHAR 018A
ENCODING 394
SWIDTH 789 0
DWIDTH 30 0
BBX 28 27 1 0
BITMAP
03FFF000
0FFFFE00
1FFFFF00
3FFFFF80
7FFFFFC0
7F3E0FE0
FC3E07E0
F83E03E0
F83E01F0
F83E01F0
003E01F0
003E01F0
003E01F0
003E01F0
003E01F0
003E01F0
003E01F0
003E01F0
003E01F0
003E03F0
003E07E0
003E0FE0
003FFFC0
003FFF80
003FFF00
003FFE00
003FF800
ENDCHAR
STARTCHAR 018B
ENCODING 395
SWIDTH 552 0
DWIDTH 21 0
BBX 19 27 1 0
BITMAP
FFFFE0
FFFFE0
FFFFE0
FFFFE0
FFFFE0
0003E0
0003E0
0003E0
0003E0
0003E0
0003E0
03FFE0
0FFFE0
3FFFE0
7FFFE0
7FFFE0
FC03E0
F803E0
F803E0
F803E0
F803E0
FC03E0
7FFFE0
7FFFE0
3FFFE0
1FFFE0
07FFE0
ENDCHAR
STARTCHAR 018C
ENCODING 396
SWIDTH 473 0
DWIDTH 18 0
BBX 16 29 1 0
BITMAP
FFFF
FFFF
FFFF
FFFF
FFFF
001F
001F
001F
001F
07FF
1FFF
3FFF
7FFF
7FFF
FC1F
F81F
F81F
F81F
F81F
F81F
F81F
F81F
F81F
FC3F
7FFE
7FFE
3FFC
1FF8
07E0
ENDCHAR
STARTCHAR 018E
ENCODING 398
SWIDTH 473 0
DWIDTH 18 0
BBX 16 27 1 0
BITMAP
FFFF
FFFF
FFFF
FFFF
FFFF
001F
001F
001F
001F
001F
001F
FFFF
FFFF
FFFF
FFFF
FFFF
001F
001F
001F
001F
001F
001F
FFFF
FFFF
FFFF
FFFF
FFFF
ENDCHAR
STARTCHAR 0191
ENCODING 401
SWIDTH 500 0
DWIDTH 19 0
BBX 21 35 -4 -8
BITMAP
07FFF8
07FFF8
07FFF8
07FFF8
07FFF8
07C000
07C000
07C000
07C000
07C000
07C000
07FFF8
07FFF8
07FFF8
07FFF8
07FFF8
07C000
07C000
07C000
07C000
07C000
07C000
07C000
07C000
07C000
07C000
07C000
07C000
07C000
0FC000
FF8000
FF8000
FF0000
FE0000
F80000
ENDCHAR
STARTCHAR 0192
ENCODING 402
SWIDTH 421 0
DWIDTH 16 0
BBX 15 37 -1 -8
BITMAP
003E
00FE
01FE
03FE
03FE
07E0
07C0
07C0
3FFE
3FFE
3FFE
3FFE
3FFE
07C0
07C0
07C0
07C0
07C0
07C0
07C0
07C0
07C0
07C0
07C0
07C0
07C0
07C0
07C0
07C0
07C0
07C0
0FC0
FF80
FF80
FF00
FE00
F800
ENDCHAR
STARTCHAR 0197
ENCODING 407
SWIDTH 500 0
DWIDTH 19 0
BBX 15 27 2 0
BITMAP
FFFE
FFFE
FFFE
FFFE
FFFE
07C0
07C0
07C0
07C0
07C0
07C0
7FFC
7FFC
7FFC
7FFC
7FFC
07C0
07C0
07C0
07C0
07C0
07C0
FFFE
FFFE
FFFE
FFFE
FFFE
ENDCHAR
STARTCHAR 019C
ENCODING 412
SWIDTH 763 0
DWIDTH 29 0
BBX 27 27 1 0
BITMAP
F81F03E0
F81F03E0
F81F03E0
F81F03E0
F81F03E0
F81F03E0
F81F03E0
F81F03E0
F81F03E0
F81F03E0
F81F03E0
F81F03E0
F81F03E0
F81F03E0
F81F03E0
F81F03E0
F81F03E0
F81F03E0
F81F03E0
F81F03E0
F81F03E0
FC1F03E0
7FFFFFE0
7FFFFFE0
3FFFFFE0
1FFFFFE0
07FFFFE0
ENDCHAR
STARTCHAR 019D
ENCODING 413
SWIDTH 657 0
DWIDTH 25 0
BBX 28 35 -4 -8
BITMAP
07F801F0
07FE01F0
07FF01F0
07FF81F0
07FFC1F0
07CFC1F0
07C7C1F0
07C3E1F0
07C3E1F0
07C3E1F0
07C3E1F0
07C3E1F0
07C3E1F0
07C3E1F0
07C3E1F0
07C3E1F0
07C3E1F0
07C3E1F0
07C3E1F0
07C3E1F0
07C3F1F0
07C1F9F0
07C1FFF0
07C0FFF0
07C07FF0
07C03FF0
07C00FF0
07C00000
07C00000
0FC00000
FF800000
FF800000
FF000000
FE000000
F8000000
ENDCHAR
STARTCHAR 019E
ENCODING 414
SWIDTH 473 0
DWIDTH 18 0
BBX 16 29 1 -8
BITMAP
FFE0
FFF8
FFFC
FFFE
FFFE
F83F
F81F
F81F
F81F
F81F
F81F
F81F
F81F
F81F
F81F
F81F
F81F
F81F
F81F
F81F
F81F
001F
001F
001F
001F
001F
001F
001F
001F
ENDCHAR
STARTCHAR 01A4
ENCODING 420
SWIDTH 789 0
DWIDTH 30 0
BBX 28 27 1 0
BITMAP
03FFFE00
0FFFFF80
1FFFFFC0
3FFFFFE0
7FFFFFE0
7F3E03F0
FC3E01F0
FC3E01F0
F83E01F0
F83E01F0
F83E03F0
003FFFE0
003FFFE0
003FFFC0
003FFF80
003FFE00
003E0000
003E0000
003E0000
003E0000
003E0000
003E0000
003E0000
003E0000
003E0000
003E0000
003E0000
ENDCHAR
STARTCHAR 01A6
ENCODING 422
SWIDTH 552 0
DWIDTH 21 0
BBX 19 35 1 -8
BITMAP
F80000
F80000
F80000
F80000
F80000
F80000
FFF800
FFFE00
FFFF80
FFFFC0
FFFFC0
F807E0
F803E0
F803E0
F803E0
F803E0
F807E0
FFFFC0
FFFF80
FFFF80
FFFF80
FFFF80
F81FC0
F80FC0
F807E0
F803E0
F803E0
0003E0
0003E0
0003E0
0003E0
0003E0
0003E0
0003E0
0003E0
ENDCHAR
STARTCHAR 01A7
ENCODING 423
SWIDTH 552 0
DWIDTH 21 0
BBX 19 27 1 0
BITMAP
FFFC00
FFFF00
FFFF80
FFFFC0
FFFFC0
0007E0
0003E0
0003E0
0003E0
0003E0
0007E0
03FFC0
0FFFC0
3FFF80
7FFE00
7FF800
FC0000
F80000
F80000
F80000
F80000
FC0000
7FFFE0
7FFFE0
3FFFE0
1FFFE0
07FFE0
ENDCHAR
STARTCHAR 01A8
ENCODING 424
SWIDTH 473 0
DWIDTH 18 0
BBX 16 21 1 0
BITMAP
FFF8
FFFC
FFFE
FFFF
FFFF
001F
001F
001F
1FFF
7FFF
7FFE
FFFE
FFF8
F800
F800
F800
FFFF
FFFF
7FFF
7FFF
1FFF
ENDCHAR
STARTCHAR 01A9
ENCODING 425
SWIDTH 500 0
DWIDTH 19 0
BBX 16 27 1 0
BITMAP
FFFF
FFFF
FFFF
FFFF
FFFF
F800
F800
F800
FC00
7E00
7F00
3FFF
1FFF
0FFF
1FFF
3FFF
7F00
7E00
FC00
F800
F800
F800
FFFF
FFFF
FFFF
FFFF
FFFF
ENDCHAR
STARTCHAR 01AE
ENCODING 430
SWIDTH 631 0
DWIDTH 24 0
BBX 21 35 1 -8
BITMAP
FFFFF8
FFFFF8
FFFFF8
FFFFF8
FFFFF8
00F800
00F800
00F800
00F800
00F800
00F800
00F800
00F800
00F800
00F800
00F800
00F800
00F800
00F800
00F800
00F800
00F800
00F800
00F800
00F800
00F800
00F800
00F800
00F800
00FC00
007FC0
007FC0
003FC0
001FC0
0007C0
ENDCHAR
STARTCHAR 01C4
ENCODING 452
SWIDTH 1184 0
DWIDTH 45 0
BBX 42 39 1 0
BITMAP
000000F81F00
000000FC7F00
000000FE7F00
000000FFFF00
000000FFFF00
0000001FF800
0000001FF800
0000001FF800
0000000FF000
00000003C000
000000000000
000000000000
FFE007FFFFC0
FFFC07FFFFC0
FFFE07FFFFC0
FFFF07FFFFC0
FFFF87FFFFC0
F83FC00007C0
F80FC00007C0
F807C0000FC0
F803E0000FC0
F803E0001F80
F803E0003F80
F803E00FFF00
F803E03FFE00
F803E07FFC00
F803E0FFF800
F803E1FFE000
F803E3F80000
F803E3F00000
F803E7E00000
F807C7C00000
F80FC7C00000
F83FC7C00000
FFFF87FFFFC0
FFFF07FFFFC0
FFFE07FFFFC0
FFFC07FFFFC0
FFE007FFFFC0
ENDCHAR
STARTCHAR 01C5
ENCODING 453
SWIDTH 1052 0
DWIDTH 40 0
BBX 37 34 1 0
BITMAP
000007C0F8
000007E3F8
000007F3F8
000007FFF8
000007FFF8
000000FFC0
000000FFC0
FFE000FFC0
FFFC007F80
FFFE001E00
FFFF000000
FFFF800000
F83FC00000
F80FC7FFF8
F807C7FFF8
F803E7FFF8
F803E7FFF8
F803E7FFF8
F803E000F8
F803E000F8
F803E000F8
F803E0FFF8
F803E3FFF8
F803E3FFF0
F803E7FFF0
F803E7FFC0
F807C7C000
F80FC7C000
F83FC7C000
FFFF87FFF8
FFFF07FFF8
FFFE07FFF8
FFFC07FFF8
FFE007FFF8
ENDCHAR
STARTCHAR 01C6
ENCODING 454
SWIDTH 973 0
DWIDTH 37 0
BBX 35 34 1 0
BITMAP
00001F03E0
00001F8FE0
00001FCFE0
00001FFFE0
00001FFFE0
001F03FF00
001F03FF00
001F03FF00
001F01FE00
001F007800
001F000000
001F000000
001F000000
07FF1FFFE0
1FFF1FFFE0
3FFF1FFFE0
7FFF1FFFE0
7FFF1FFFE0
FC1F0003E0
F81F0003E0
F81F0003E0
F81F03FFE0
F81F0FFFE0
F81F0FFFC0
F81F1FFFC0
F81F1FFF00
F81F1F0000
F81F1F0000
FC3F1F0000
7FFE1FFFE0
7FFE1FFFE0
3FFC1FFFE0
1FF81FFFE0
07E01FFFE0
ENDCHAR
STARTCHAR 01C7
ENCODING 455
SWIDTH 1157 0
DWIDTH 44 0
BBX 41 27 1 0
BITMAP
F8000001FF80
F8000001FF80
F8000001FF80
F8000001FF80
F8000001FF80
F80000000F80
F80000000F80
F80000000F80
F80000000F80
F80000000F80
F80000000F80
F80000000F80
F80000000F80
F80000000F80
F8000F800F80
F8000F800F80
F8000F800F80
F8000F800F80
F8000F800F80
F8000FC01F80
F80007E03F00
F80007F07F00
FFFFC3FFFE00
FFFFC1FFFC00
FFFFC0FFF800
FFFFC07FF000
FFFFC01FC000
ENDCHAR
STARTCHAR 01C8
ENCODING 456
SWIDTH 763 0
DWIDTH 29 0
BBX 26 37 1 -8
BITMAP
000007C0
000007C0
F80007C0
F80007C0
F80007C0
F8000000
F8000000
F8000000
F80007C0
F80007C0
F80007C0
F80007C0
F80007C0
F80007C0
F80007C0
F80007C0
F80007C0
F80007C0
F80007C0
F80007C0
F80007C0
F80007C0
F80007C0
F80007C0
FFFFC7C0
FFFFC7C0
FFFFC7C0
FFFFC7C0
FFFFC7C0
00000FC0
00001F80
00003F80
0000FF00
0000FE00
0000FC00
0000F800
0000E000
ENDCHAR
STARTCHAR 01C9
ENCODING 457
SWIDTH 421 0
DWIDTH 16 0
BBX 13 37 1 -8
BITMAP
F8F8
F8F8
F8F8
F8F8
F8F8
F800
F800
F800
F8F8
F8F8
F8F8
F8F8
F8F8
F8F8
F8F8
F8F8
F8F8
F8F8
F8F8
F8F8
F8F8
F8F8
F8F8
F8F8
F8F8
F8F8
F8F8
F8F8
F8F8
01F8
03F0
07F0
1FE0
1FC0
1F80
1F00
1C00
ENDCHAR
STARTCHAR 01CA
ENCODING 458
SWIDTH 1342 0
DWIDTH 51 0
BBX 48 27 1 0
BITMAP
FF003E0003FF
FFC03E0003FF
FFE03E0003FF
FFF03E0003FF
FFF83E0003FF
F9F83E00001F
F8F83E00001F
F87C3E00001F
F87C3E00001F
F87C3E00001F
F87C3E00001F
F87C3E00001F
F87C3E00001F
F87C3E00001F
F87C3E1F001F
F87C3E1F001F
F87C3E1F001F
F87C3E1F001F
F87C3E1F001F
F87C3E1F803F
F87E3E0FC07E
F83F3E0FE0FE
F83FFE07FFFC
F81FFE03FFF8
F80FFE01FFF0
F807FE00FFE0
F801FE003F80
ENDCHAR
STARTCHAR 01CB
ENCODING 459
SWIDTH 921 0
DWIDTH 35 0
BBX 32 37 1 -8
BITMAP
0000001F
0000001F
FF003E1F
FFC03E1F
FFE03E1F
FFF03E00
FFF83E00
F9F83E00
F8F83E1F
F87C3E1F
F87C3E1F
F87C3E1F
F87C3E1F
F87C3E1F
F87C3E1F
F87C3E1F
F87C3E1F
F87C3E1F
F87C3E1F
F87C3E1F
F87C3E1F
F87C3E1F
F87E3E1F
F83F3E1F
F83FFE1F
F81FFE1F
F80FFE1F
F807FE1F
F801FE1F
0000003F
0000007E
000000FE
000003FC
000003F8
000003F0
000003E0
00000380
ENDCHAR
STARTCHAR 01CC
ENCODING 460
SWIDTH 710 0
DWIDTH 27 0
BBX 24 37 1 -8
BITMAP
00001F
00001F
00001F
00001F
00001F
000000
000000
000000
FFE01F
FFF81F
FFFC1F
FFFE1F
FFFE1F
F83F1F
F81F1F
F81F1F
F81F1F
F81F1F
F81F1F
F81F1F
F81F1F
F81F1F
F81F1F
F81F1F
F81F1F
F81F1F
F81F1F
F81F1F
F81F1F
00003F
00007E
0000FE
0003FC
0003F8
0003F0
0003E0
000380
ENDCHAR
STARTCHAR 01CD
ENCODING 461
SWIDTH 605 0
DWIDTH 23 0
BBX 21 39 1 0
BITMAP
1F03E0
1F8FE0
1FCFE0
1FFFE0
1FFFE0
03FF00
03FF00
03FF00
01FE00
007800
000000
000000
01FC00
07FF00
0FFF80
1FFFC0
3FFFE0
7F07F0
7E03F0
FC01F0
FC01F8
F800F8
F800F8
FFFFF8
FFFFF8
FFFFF8
FFFFF8
FFFFF8
F800F8
F800F8
F800F8
F800F8
F800F8
F800F8
F800F8
F800F8
F800F8
F800F8
F800F8
ENDCHAR
STARTCHAR 01CE
ENCODING 462
SWIDTH 473 0
DWIDTH 18 0
BBX 16 34 1 0
BITMAP
F81F
FC7F
FE7F
FFFF
FFFF
1FF8
1FF8
1FF8
0FF0
03C0
0000
0000
0000
FFE0
FFF8
FFFC
FFFE
FFFE
003F
001F
001F
1FFF
7FFF
7FFF
FFFF
FFFF
F81F
F81F
F81F
FFFF
FFFF
7FFF
7FFF
1FFF
ENDCHAR
STARTCHAR 01CF
ENCODING 463
SWIDTH 500 0
DWIDTH 19 0
BBX 16 39 1 0
BITMAP
F81F
FC7F
FE7F
FFFF
FFFF
1FF8
1FF8
1FF8
0FF0
03C0
0000
0000
7FFF
7FFF
7FFF
7FFF
7FFF
03E0
03E0
03E0
03E0
03E0
03E0
03E0
03E0
03E0
03E0
03E0
03E0
03E0
03E0
03E0
03E0
03E0
7FFF
7FFF
7FFF
7FFF
7FFF
ENDCHAR
STARTCHAR 01D0
ENCODING 464
SWIDTH 184 0
DWIDTH 7 0
BBX 16 34 -4 0
BITMAP
F81F
FC7F
FE7F
FFFF
FFFF
1FF8
1FF8
1FF8
0FF0
03C0
0000
0000
0000
07C0
07C0
07C0
07C0
07C0
07C0
07C0
07C0
07C0
07C0
07C0
07C0
07C0
07C0
07C0
07C0
07C0
07C0
07C0
07C0
07C0
ENDCHAR
STARTCHAR 01D1
ENCODING 465
SWIDTH 605 0
DWIDTH 23 0
BBX 21 39 1 0
BITMAP
1F03E0
1F8FE0
1FCFE0
1FFFE0
1FFFE0
03FF00
03FF00
03FF00
01FE00
007800
000000
000000
01FC00
07FF00
0FFF80
1FFFC0
3FFFE0
7F07F0
7E03F0
FC01F0
F800F8
F800F8
F800F8
F800F8
F800F8
F800F8
F800F8
F800F8
F800F8
F800F8
F800F8
7C01F8
7E03F0
7F07F0
3FFFE0
1FFFC0
0FFF80
07FF00
01FC00
ENDCHAR
STARTCHAR 01D2
ENCODING 466
SWIDTH 473 0
DWIDTH 18 0
BBX 16 34 1 0
BITMAP
F81F
FC7F
FE7F
FFFF
FFFF
1FF8
1FF8
1FF8
0FF0
03C0
0000
0000
0000
07E0
1FF8
3FFC
7FFE
7FFE
FC3F
F81F
F81F
F81F
F81F
F81F
F81F
F81F
F81F
F81F
FC3F
7FFE
7FFE
3FFC
1FF8
07E0
ENDCHAR
STARTCHAR 01D3
ENCODING 467
SWIDTH 605 0
DWIDTH 23 0
BBX 21 39 1 0
BITMAP
1F03E0
1F8FE0
1FCFE0
1FFFE0
1FFFE0
03FF00
03FF00
03FF00
01FE00
007800
000000
000000
F800F8
F800F8
F800F8
F800F8
F800F8
F800F8
F800F8
F800F8
F800F8
F800F8
F800F8
F800F8
F800F8
F800F8
F800F8
F800F8
F800F8
F800F8
F800F8
7C01F8
7E03F0
7F07F0
3FFFE0
1FFFC0
0FFF80
07FF00
01FC00
ENDCHAR
STARTCHAR 01D4
ENCODING 468
SWIDTH 473 0
DWIDTH 18 0
BBX 16 34 1 0
BITMAP
F81F
FC7F
FE7F
FFFF
FFFF
1FF8
1FF8
1FF8
0FF0
03C0
0000
0000
0000
F81F
F81F
F81F
F81F
F81F
F81F
F81F
F81F
F81F
F81F
F81F
F81F
F81F
F81F
F81F
FC3F
7FFE
7FFE
3FFC
1FF8
07E0
ENDCHAR
STARTCHAR 01DD
ENCODING 477
SWIDTH 473 0
DWIDTH 18 0
BBX 16 21 1 0
BITMAP
FFE0
FFF8
FFFC
FFFE
FFFE
003F
001F
001F
1FFF
7FFF
7FFF
FFFF
FFFF
F81F
F81F
FC3F
7FFE
7FFE
3FFC
1FF8
07E0
ENDCHAR
STARTCHAR 01E2
ENCODING 482
SWIDTH 842 0
DWIDTH 32 0
BBX 30 35 1 0
BITMAP
01FFFE00
01FFFE00
01FFFE00
01FFFE00
01FFFE00
00000000
00000000
00000000
00FFFFFC
07FFFFFC
0FFFFFFC
1FFFFFFC
3FFFFFFC
7F83E000
7E03E000
FC03E000
FC03E000
F803E000
F803E000
FFFFFFFC
FFFFFFFC
FFFFFFFC
FFFFFFFC
FFFFFFFC
F803E000
F803E000
F803E000
F803E000
F803E000
F803E000
F803FFFC
F803FFFC
F803FFFC
F803FFFC
F803FFFC
ENDCHAR
STARTCHAR 01E3
ENCODING 483
SWIDTH 763 0
DWIDTH 29 0
BBX 27 30 1 0
BITMAP
07FFF800
07FFF800
07FFF800
07FFF800
07FFF800
00000000
00000000
00000000
00000000
FFE0FC00
FFFBFF00
FFFFFF80
FFFFFFC0
FFFFFFC0
003F87E0
001F03E0
001F03E0
1FFFFFE0
3FFFFFE0
7FFFFFC0
FFFFFFC0
FFFFFF00
F81F0000
F81F0000
F81F8000
FFFFFFE0
FFFFFFE0
7FFFFFE0
7FFFFFE0
1FFFFFE0
ENDCHAR
STARTCHAR 01E6
ENCODING 486
SWIDTH 605 0
DWIDTH 23 0
BBX 21 39 1 0
BITMAP
1F03E0
1F8FE0
1FCFE0
1FFFE0
1FFFE0
03FF00
03FF00
03FF00
01FE00
007800
000000
000000
01FFF8
07FFF8
0FFFF8
1FFFF8
3FFFF8
7F0000
7E0000
FC0000
F80000
F80000
F80000
F81FF8
F81FF8
F81FF8
F81FF8
F81FF8
F800F8
F800F8
F801F8
7C01F8
7E03F0
7F07F0
3FFFE0
1FFFC0
0FFF80
07FF00
01FC00
ENDCHAR
STARTCHAR 01E7
ENCODING 487
SWIDTH 473 0
DWIDTH 18 0
BBX 16 42 1 -8
BITMAP
F81F
FC7F
FE7F
FFFF
FFFF
1FF8
1FF8
1FF8
0FF0
03C0
0000
0000
0000
07E0
1FF8
3FFC
7FFE
7FFE
FC3F
F81F
F81F
F81F
F81F
F81F
F81F
F81F
F81F
F81F
FC1F
7FFF
7FFF
3FFF
1FFF
07FF
003F
007E
01FE
FFFC
FFF8
FFF0
FFE0
FF00
ENDCHAR
STARTCHAR 01E8
ENCODING 488
SWIDTH 552 0
DWIDTH 21 0
BBX 19 39 1 0
BITMAP
7C0F80
7E3F80
7F3F80
7FFF80
7FFF80
0FFC00
0FFC00
0FFC00
07F800
01E000
000000
000000
F803E0
F803E0
F803E0
F803E0
F803E0
F803E0
F803E0
F803E0
F807E0
F80FC0
F83FC0
FFFF80
FFFF00
FFFE00
FFFF00
FFFF80
F83FC0
F80FC0
F807E0
F803E0
F803E0
F803E0
F803E0
F803E0
F803E0
F803E0
F803E0
ENDCHAR
STARTCHAR 01E9
ENCODING 489
SWIDTH 473 0
DWIDTH 18 0
BBX 16 42 1 0
BITMAP
F81F
FC7F
FE7F
FFFF
FFFF
1FF8
1FF8
1FF8
0FF0
03C0
0000
0000
0000
F800
F800
F800
F800
F800
F800
F800
F800
F81F
F81F
F81F
F81F
F81F
F81F
F81F
F83F
FFFE
FFFE
FFFC
FFFE
FFFE
F83F
F81F
F81F
F81F
F81F
F81F
F81F
F81F
ENDCHAR
STARTCHAR 01EA
ENCODING 490
SWIDTH 605 0
DWIDTH 23 0
BBX 21 35 1 -8
BITMAP
01FC00
07FF00
0FFF80
1FFFC0
3FFFE0
7F07F0
7E03F0
FC01F0
F800F8
F800F8
F800F8
F800F8
F800F8
F800F8
F800F8
F800F8
F800F8
F800F8
FC01F8
7E03F8
7F07F0
7FFFF0
3FFFE0
1FFFC0
0FFF80
07FF00
00FC00
00F800
00F800
00FC00
007FE0
007FE0
003FE0
001FE0
0007E0
ENDCHAR
STARTCHAR 01EB
ENCODING 491
SWIDTH 447 0
DWIDTH 17 0
BBX 15 29 1 -8
BITMAP
07C0
1FF0
3FF8
7FFC
7FFC
FC7E
F83E
F83E
F83E
F83E
F83E
F83E
F83E
F83E
F83E
FEFE
7FFC
7FFC
3FF8
1FF0
07E0
07C0
07C0
07E0
03FE
03FE
01FE
00FE
003E
ENDCHAR
STARTCHAR 01EC
ENCODING 492
SWIDTH 631 0
DWIDTH 24 0
BBX 21 43 1 -8
BITMAP
1FFFE0
1FFFE0
1FFFE0
1FFFE0
1FFFE0
000000
000000
000000
01FC00
07FF00
0FFF80
1FFFC0
3FFFE0
7F07F0
7E03F0
FC01F0
F800F8
F800F8
F800F8
F800F8
F800F8
F800F8
F800F8
F800F8
F800F8
F800F8
FC01F8
7E03F8
7F07F0
7FFFF0
3FFFE0
1FFFC0
0FFF80
07FF00
00FC00
00F800
00F800
00FC00
007FE0
007FE0
003FE0
001FE0
0007E0
ENDCHAR
STARTCHAR 01ED
ENCODING 493
SWIDTH 500 0
DWIDTH 19 0
BBX 16 38 1 -8
BITMAP
FFFF
FFFF
FFFF
FFFF
FFFF
0000
0000
0000
0000
07C0
1FF0
3FF8
7FFC
7FFC
FC7E
F83E
F83E
F83E
F83E
F83E
F83E
F83E
F83E
F83E
FEFE
7FFC
7FFC
3FF8
1FF0
07E0
07C0
07C0
07E0
03FE
03FE
01FE
00FE
003E
ENDCHAR
STARTCHAR 01F0
ENCODING 496
SWIDTH 210 0
DWIDTH 8 0
BBX 16 42 -4 -8
BITMAP
F81F
FC7F
FE7F
FFFF
FFFF
1FF8
1FF8
1FF8
0FF0
07E0
0000
0000
0000
07C0
07C0
07C0
07C0
07C0
07C0
07C0
07C0
07C0
07C0
07C0
07C0
07C0
07C0
07C0
07C0
07C0
07C0
07C0
07C0
07C0
0FC0
1F80
3F80
FF00
FE00
FC00
F800
E000
ENDCHAR
STARTCHAR 01F1
ENCODING 497
SWIDTH 1184 0
DWIDTH 45 0
BBX 42 27 1 0
BITMAP
FFE007FFFFC0
FFFC07FFFFC0
FFFE07FFFFC0
FFFF07FFFFC0
FFFF87FFFFC0
F83FC00007C0
F80FC00007C0
F807C0000FC0
F803E0000FC0
F803E0001F80
F803E0003F80
F803E00FFF00
F803E03FFE00
F803E07FFC00
F803E0FFF800
F803E1FFE000
F803E3F80000
F803E3F00000
F803E7E00000
F807C7C00000
F80FC7C00000
F83FC7C00000
FFFF87FFFFC0
FFFF07FFFFC0
FFFE07FFFFC0
FFFC07FFFFC0
FFE007FFFFC0
ENDCHAR
STARTCHAR 01F2
ENCODING 498
SWIDTH 1052 0
DWIDTH 40 0
BBX 37 27 1 0
BITMAP
FFE0000000
FFFC000000
FFFE000000
FFFF000000
FFFF800000
F83FC00000
F80FC7FFF8
F807C7FFF8
F803E7FFF8
F803E7FFF8
F803E7FFF8
F803E000F8
F803E000F8
F803E000F8
F803E0FFF8
F803E3FFF8
F803E3FFF0
F803E7FFF0
F803E7FFC0
F807C7C000
F80FC7C000
F83FC7C000
FFFF87FFF8
FFFF07FFF8
FFFE07FFF8
FFFC07FFF8
FFE007FFF8
ENDCHAR
STARTCHAR 01F3
ENCODING 499
SWIDTH 973 0
DWIDTH 37 0
BBX 35 29 1 0
BITMAP
001F000000
001F000000
001F000000
001F000000
001F000000
001F000000
001F000000
001F000000
07FF1FFFE0
1FFF1FFFE0
3FFF1FFFE0
7FFF1FFFE0
7FFF1FFFE0
FC1F0003E0
F81F0003E0
F81F0003E0
F81F03FFE0
F81F0FFFE0
F81F0FFFC0
F81F1FFFC0
F81F1FFF00
F81F1F0000
F81F1F0000
FC3F1F0000
7FFE1FFFE0
7FFE1FFFE0
3FFC1FFFE0
1FF81FFFE0
07E01FFFE0
ENDCHAR
STARTCHAR 01F4
ENCODING 500
SWIDTH 605 0
DWIDTH 23 0
BBX 21 40 1 0
BITMAP
003E00
003E00
003E00
003E00
007E00
01FE00
01FC00
01FC00
01F800
01F000
01C000
000000
000000
01FFF8
07FFF8
0FFFF8
1FFFF8
3FFFF8
7F0000
7E0000
FC0000
F80000
F80000
F80000
F81FF8
F81FF8
F81FF8
F81FF8
F81FF8
F800F8
F800F8
F801F8
7C01F8
7E03F0
7F07F0
3FFFE0
1FFFC0
0FFF80
07FF00
01FC00
ENDCHAR
STARTCHAR 01F5
ENCODING 501
SWIDTH 473 0
DWIDTH 18 0
BBX 16 43 1 -8
BITMAP
01F0
01F0
01F0
01F0
03F0
0FF0
0FE0
0FE0
0FC0
0F80
0E00
0000
0000
0000
07E0
1FF8
3FFC
7FFE
7FFE
FC3F
F81F
F81F
F81F
F81F
F81F
F81F
F81F
F81F
F81F
FC1F
7FFF
7FFF
3FFF
1FFF
07FF
003F
007E
01FE
FFFC
FFF8
FFF0
FFE0
FF00
ENDCHAR
STARTCHAR 01F8
ENCODING 504
SWIDTH 657 0
DWIDTH 25 0
BBX 23 40 1 0
BITMAP
00F800
00F800
00F800
00F800
00FC00
00FF00
007F00
007F00
003F00
001F00
000700
000000
000000
FF003E
FFC03E
FFE03E
FFF03E
FFF83E
F9F83E
F8F83E
F87C3E
F87C3E
F87C3E
F87C3E
F87C3E
F87C3E
F87C3E
F87C3E
F87C3E
F87C3E
F87C3E
F87C3E
F87C3E
F87E3E
F83F3E
F83FFE
F81FFE
F80FFE
F807FE
F801FE
ENDCHAR
STARTCHAR 01F9
ENCODING 505
SWIDTH 473 0
DWIDTH 18 0
BBX 16 35 1 0
BITMAP
0F80
0F80
0F80
0F80
0FC0
0FF0
07F0
07F0
03F0
01F0
0070
0000
0000
0000
FFE0
FFF8
FFFC
FFFE
FFFE
F83F
F81F
F81F
F81F
F81F
F81F
F81F
F81F
F81F
F81F
F81F
F81F
F81F
F81F
F81F
F81F
ENDCHAR
STARTCHAR 01FC
ENCODING 508
SWIDTH 842 0
DWIDTH 32 0
BBX 30 40 1 0
BITMAP
0003E000
0003E000
0003E000
0003E000
0007E000
001FE000
001FC000
001FC000
001F8000
001F0000
001C0000
00000000
00000000
00FFFFFC
07FFFFFC
0FFFFFFC
1FFFFFFC
3FFFFFFC
7F83E000
7E03E000
FC03E000
FC03E000
F803E000
F803E000
FFFFFFFC
FFFFFFFC
FFFFFFFC
FFFFFFFC
FFFFFFFC
F803E000
F803E000
F803E000
F803E000
F803E000
F803E000
F803FFFC
F803FFFC
F803FFFC
F803FFFC
F803FFFC
ENDCHAR
STARTCHAR 01FD
ENCODING 509
SWIDTH 763 0
DWIDTH 29 0
BBX 27 35 1 0
BITMAP
000F8000
000F8000
000F8000
000F8000
001F8000
007F8000
007F0000
007F0000
007E0000
007C0000
00700000
00000000
00000000
00000000
FFE0FC00
FFFBFF00
FFFFFF80
FFFFFFC0
FFFFFFC0
003F87E0
001F03E0
001F03E0
1FFFFFE0
3FFFFFE0
7FFFFFC0
FFFFFFC0
FFFFFF00
F81F0000
F81F0000
F81F8000
FFFFFFE0
FFFFFFE0
7FFFFFE0
7FFFFFE0
1FFFFFE0
ENDCHAR
STARTCHAR 01FE
ENCODING 510
SWIDTH 605 0
DWIDTH 23 0
BBX 21 40 1 0
BITMAP
003E00
003E00
003E00
003E00
007E00
01FE00
01FC00
01F800
01F000
01E000
010000
000000
000000
01FC00
07FF00
0FFF80
1FFFC0
3FFFE0
7F07F0
7E03F0
FC01F0
FC01F8
F800F8
F800F8
FFFFF8
FFFFF8
FFFFF8
FFFFF8
FFFFF8
F800F8
F800F8
F801F8
7C01F0
7E03F0
7F07F0
3FFFE0
1FFFC0
0FFF80
07FF00
01FC00
ENDCHAR
STARTCHAR 01FF
ENCODING 511
SWIDTH 473 0
DWIDTH 18 0
BBX 16 35 1 0
BITMAP
01F0
01F0
01F0
01F0
03F0
0FF0
0FE0
0FC0
0F80
0F00
0800
0000
0000
0000
07E0
1FF8
3FFC
7FFE
7FFE
FC3F
F81F
F81F
FFFF
FFFF
FFFF
FFFF
FFFF
F81F
F81F
FC3F
7FFE
7FFE
3FFC
1FF8
07E0
ENDCHAR
STARTCHAR 0200
ENCODING 512
SWIDTH 605 0
DWIDTH 23 0
BBX 21 40 1 0
BITMAP
3E0F80
3E0F80
3E0F80
3E0F80
3E0F80
3F0FC0
1FC7F0
1FC7F0
0FC3F0
07C1F0
01C070
000000
000000
01FC00
07FF00
0FFF80
1FFFC0
3FFFE0
7F07F0
7E03F0
FC01F0
FC01F8
F800F8
F800F8
FFFFF8
FFFFF8
FFFFF8
FFFFF8
FFFFF8
F800F8
F800F8
F800F8
F800F8
F800F8
F800F8
F800F8
F800F8
F800F8
F800F8
F800F8
ENDCHAR
STARTCHAR 0201
ENCODING 513
SWIDTH 473 0
DWIDTH 18 0
BBX 18 35 0 0
BITMAP
F83E00
F83E00
F83E00
F83E00
F83E00
FC3F00
7F1FC0
7F1FC0
3F0FC0
1F07C0
0701C0
000000
000000
000000
7FF000
7FFC00
7FFE00
7FFF00
7FFF00
001F80
000F80
000F80
0FFF80
3FFF80
3FFF80
7FFF80
7FFF80
7C0F80
7C0F80
7C0F80
7FFF80
7FFF80
3FFF80
3FFF80
0FFF80
ENDCHAR
STARTCHAR 0202
ENCODING 514
SWIDTH 605 0
DWIDTH 23 0
BBX 21 39 1 0
BITMAP
01FC00
07FF00
07FF00
0FFF80
0FFF80
0F8F80
0F8F80
0F8F80
0F8F80
0F8F80
000000
000000
01FC00
07FF00
0FFF80
1FFFC0
3FFFE0
7F07F0
7E03F0
FC01F0
FC01F8
F800F8
F800F8
FFFFF8
FFFFF8
FFFFF8
FFFFF8
FFFFF8
F800F8
F800F8
F800F8
F800F8
F800F8
F800F8
F800F8
F800F8
F800F8
F800F8
F800F8
ENDCHAR
STARTCHAR 0203
ENCODING 515
SWIDTH 473 0
DWIDTH 18 0
BBX 16 34 1 0
BITMAP
0FE0
3FF8
3FF8
7FFC
7FFC
7C7C
7C7C
7C7C
7C7C
7C7C
0000
0000
0000
FFE0
FFF8
FFFC
FFFE
FFFE
003F
001F
001F
1FFF
7FFF
7FFF
FFFF
FFFF
F81F
F81F
F81F
FFFF
FFFF
7FFF
7FFF
1FFF
ENDCHAR
STARTCHAR 0204
ENCODING 516
SWIDTH 500 0
DWIDTH 19 0
BBX 18 40 0 0
BITMAP
F83E00
F83E00
F83E00
F83E00
F83E00
FC3F00
7F1FC0
7F1FC0
3F0FC0
1F07C0
0701C0
000000
000000
7FFF80
7FFF80
7FFF80
7FFF80
7FFF80
7C0000
7C0000
7C0000
7C0000
7C0000
7C0000
7FFF80
7FFF80
7FFF80
7FFF80
7FFF80
7C0000
7C0000
7C0000
7C0000
7C0000
7C0000
7FFF80
7FFF80
7FFF80
7FFF80
7FFF80
ENDCHAR
STARTCHAR 0205
ENCODING 517
SWIDTH 473 0
DWIDTH 18 0
BBX 18 35 0 0
BITMAP
F83E00
F83E00
F83E00
F83E00
F83E00
FC3F00
7F1FC0
7F1FC0
3F0FC0
1F07C0
0701C0
000000
000000
000000
03F000
0FFC00
1FFE00
3FFF00
3FFF00
7E1F80
7C0F80
7C0F80
7FFF80
7FFF80
7FFF00
7FFF00
7FFC00
7C0000
7C0000
7E0000
3FFF80
3FFF80
1FFF80
0FFF80
03FF80
ENDCHAR
STARTCHAR 0206
ENCODING 518
SWIDTH 500 0
DWIDTH 19 0
BBX 16 39 1 0
BITMAP
0FE0
3FF8
3FF8
7FFC
7FFC
7C7C
7C7C
7C7C
7C7C
7C7C
0000
0000
FFFF
FFFF
FFFF
FFFF
FFFF
F800
F800
F800
F800
F800
F800
FFFF
FFFF
FFFF
FFFF
FFFF
F800
F800
F800
F800
F800
F800
FFFF
FFFF
FFFF
FFFF
FFFF
ENDCHAR
STARTCHAR 0207
ENCODING 519
SWIDTH 473 0
DWIDTH 18 0
BBX 16 34 1 0
BITMAP
0FE0
3FF8
3FF8
7FFC
7FFC
7C7C
7C7C
7C7C
7C7C
7C7C
0000
0000
0000
07E0
1FF8
3FFC
7FFE
7FFE
FC3F
F81F
F81F
FFFF
FFFF
FFFE
FFFE
FFF8
F800
F800
FC00
7FFF
7FFF
3FFF
1FFF
07FF
ENDCHAR
STARTCHAR 0208
ENCODING 520
SWIDTH 500 0
DWIDTH 19 0
BBX 18 40 0 0
BITMAP
F83E00
F83E00
F83E00
F83E00
F83E00
FC3F00
7F1FC0
7F1FC0
3F0FC0
1F07C0
0701C0
000000
000000
3FFF80
3FFF80
3FFF80
3FFF80
3FFF80
01F000
01F000
01F000
01F000
01F000
01F000
01F000
01F000
01F000
01F000
01F000
01F000
01F000
01F000
01F000
01F000
01F000
3FFF80
3FFF80
3FFF80
3FFF80
3FFF80
ENDCHAR
STARTCHAR 0209
ENCODING 521
SWIDTH 184 0
DWIDTH 7 0
BBX 18 35 -5 0
BITMAP
F83E00
F83E00
F83E00
F83E00
F83E00
FC3F00
7F1FC0
7F1FC0
3F0FC0
1F07C0
0701C0
000000
000000
000000
03E000
03E000
03E000
03E000
03E000
03E000
03E000
03E000
03E000
03E000
03E000
03E000
03E000
03E000
03E000
03E000
03E000
03E000
03E000
03E000
03E000
ENDCHAR
STARTCHAR 020A
ENCODING 522
SWIDTH 500 0
DWIDTH 19 0
BBX 15 39 2 0
BITMAP
1FC0
7FF0
7FF0
FFF8
FFF8
F8F8
F8F8
F8F8
F8F8
F8F8
0000
0000
FFFE
FFFE
FFFE
FFFE
FFFE
07C0
07C0
07C0
07C0
07C0
07C0
07C0
07C0
07C0
07C0
07C0
07C0
07C0
07C0
07C0
07C0
07C0
FFFE
FFFE
FFFE
FFFE
FFFE
ENDCHAR
STARTCHAR 020B
ENCODING 523
SWIDTH 210 0
DWIDTH 8 0
BBX 13 34 -3 0
BITMAP
1FC0
7FF0
7FF0
FFF8
FFF8
F8F8
F8F8
F8F8
F8F8
F8F8
0000
0000
0000
0F80
0F80
0F80
0F80
0F80
0F80
0F80
0F80
0F80
0F80
0F80
0F80
0F80
0F80
0F80
0F80
0F80
0F80
0F80
0F80
0F80
ENDCHAR
STARTCHAR 020C
ENCODING 524
SWIDTH 605 0
DWIDTH 23 0
BBX 21 40 1 0
BITMAP
3E0F80
3E0F80
3E0F80
3E0F80
3E0F80
3F0FC0
1FC7F0
1FC7F0
0FC3F0
07C1F0
01C070
000000
000000
01FC00
07FF00
0FFF80
1FFFC0
3FFFE0
7F07F0
7E03F0
FC01F0
F800F8
F800F8
F800F8
F800F8
F800F8
F800F8
F800F8
F800F8
F800F8
F800F8
F800F8
7C01F8
7E03F0
7F07F0
3FFFE0
1FFFC0
0FFF80
07FF00
01FC00
ENDCHAR
STARTCHAR 020D
ENCODING 525
SWIDTH 473 0
DWIDTH 18 0
BBX 18 35 0 0
BITMAP
F83E00
F83E00
F83E00
F83E00
F83E00
FC3F00
7F1FC0
7F1FC0
3F0FC0
1F07C0
0701C0
000000
000000
000000
03F000
0FFC00
1FFE00
3FFF00
3FFF00
7E1F80
7C0F80
7C0F80
7C0F80
7C0F80
7C0F80
7C0F80
7C0F80
7C0F80
7C0F80
7E1F80
3FFF00
3FFF00
1FFE00
0FFC00
03F000
ENDCHAR
STARTCHAR 020E
ENCODING 526
SWIDTH 605 0
DWIDTH 23 0
BBX 21 39 1 0
BITMAP
01FC00
07FF00
07FF00
0FFF80
0FFF80
0F8F80
0F8F80
0F8F80
0F8F80
0F8F80
000000
000000
01FC00
07FF00
0FFF80
1FFFC0
3FFFE0
7F07F0
7E03F0
FC01F0
F800F8
F800F8
F800F8
F800F8
F800F8
F800F8
F800F8
F800F8
F800F8
F800F8
F800F8
7C01F8
7E03F0
7F07F0
3FFFE0
1FFFC0
0FFF80
07FF00
01FC00
ENDCHAR
STARTCHAR 020F
ENCODING 527
SWIDTH 473 0
DWIDTH 18 0
BBX 16 34 1 0
BITMAP
0FE0
3FF8
3FF8
7FFC
7FFC
7C7C
7C7C
7C7C
7C7C
7C7C
0000
0000
0000
07E0
1FF8
3FFC
7FFE
7FFE
FC3F
F81F
F81F
F81F
F81F
F81F
F81F
F81F
F81F
F81F
FC3F
7FFE
7FFE
3FFC
1FF8
07E0
ENDCHAR
STARTCHAR 0210
ENCODING 528
SWIDTH 552 0
DWIDTH 21 0
BBX 19 40 1 0
BITMAP
7C1F00
7C1F00
7C1F00
7C1F00
7C1F00
7E1F80
3F8FE0
3F8FE0
1F87E0
0F83E0
0380E0
000000
000000
FFFC00
FFFF00
FFFF80
FFFFC0
FFFFC0
F807E0
F803E0
F803E0
F803E0
F803E0
F807E0
FFFFC0
FFFFC0
FFFF80
FFFF00
FFFF80
F83FC0
F80FC0
F807E0
F803E0
F803E0
F803E0
F803E0
F803E0
F803E0
F803E0
F803E0
ENDCHAR
STARTCHAR 0211
ENCODING 529
SWIDTH 500 0
DWIDTH 19 0
BBX 18 35 0 0
BITMAP
F83E00
F83E00
F83E00
F83E00
F83E00
FC3F00
7F1FC0
7F1FC0
3F0FC0
1F07C0
0701C0
000000
000000
000000
7FE000
7FF800
7FFC00
7FFE00
7FFF00
7C3F00
7C1F00
7C1F80
7C0000
7C0000
7C0000
7C0000
7C0000
7C0000
7C0000
7C0000
7C0000
7C0000
7C0000
7C0000
7C0000
ENDCHAR
STARTCHAR 0212
ENCODING 530
SWIDTH 552 0
DWIDTH 21 0
BBX 19 39 1 0
BITMAP
03F800
0FFE00
0FFE00
1FFF00
1FFF00
1F1F00
1F1F00
1F1F00
1F1F00
1F1F00
000000
000000
FFFC00
FFFF00
FFFF80
FFFFC0
FFFFC0
F807E0
F803E0
F803E0
F803E0
F803E0
F807E0
FFFFC0
FFFFC0
FFFF80
FFFF00
FFFF80
F83FC0
F80FC0
F807E0
F803E0
F803E0
F803E0
F803E0
F803E0
F803E0
F803E0
F803E0
ENDCHAR
STARTCHAR 0213
ENCODING 531
SWIDTH 500 0
DWIDTH 19 0
BBX 16 34 1 0
BITMAP
0FE0
3FF8
3FF8
7FFC
7FFC
7C7C
7C7C
7C7C
7C7C
7C7C
0000
0000
0000
FFC0
FFF0
FFF8
FFFC
FFFE
F87E
F83E
F83F
F800
F800
F800
F800
F800
F800
F800
F800
F800
F800
F800
F800
F800
ENDCHAR
STARTCHAR 0214
ENCODING 532
SWIDTH 605 0
DWIDTH 23 0
BBX 21 40 1 0
BITMAP
3E0F80
3E0F80
3E0F80
3E0F80
3E0F80
3F0FC0
1FC7F0
1FC7F0
0FC3F0
07C1F0
01C070
000000
000000
F800F8
F800F8
F800F8
F800F8
F800F8
F800F8
F800F8
F800F8
F800F8
F800F8
F800F8
F800F8
F800F8
F800F8
F800F8
F800F8
F800F8
F800F8
F800F8
7C01F8
7E03F0
7F07F0
3FFFE0
1FFFC0
0FFF80
07FF00
01FC00
ENDCHAR
STARTCHAR 0215
ENCODING 533
SWIDTH 473 0
DWIDTH 18 0
BBX 18 35 0 0
BITMAP
F83E00
F83E00
F83E00
F83E00
F83E00
FC3F00
7F1FC0
7F1FC0
3F0FC0
1F07C0
0701C0
000000
000000
000000
7C0F80
7C0F80
7C0F80
7C0F80
7C0F80
7C0F80
7C0F80
7C0F80
7C0F80
7C0F80
7C0F80
7C0F80
7C0F80
7C0F80
7C0F80
7E1F80
3FFF00
3FFF00
1FFE00
0FFC00
03F000
ENDCHAR
STARTCHAR 0216
ENCODING 534
SWIDTH 605 0
DWIDTH 23 0
BBX 21 39 1 0
BITMAP
01FC00
07FF00
07FF00
0FFF80
0FFF80
0F8F80
0F8F80
0F8F80
0F8F80
0F8F80
000000
000000
F800F8
F800F8
F800F8
F800F8
F800F8
F800F8
F800F8
F800F8
F800F8
F800F8
F800F8
F800F8
F800F8
F800F8
F800F8
F800F8
F800F8
F800F8
F800F8
7C01F8
7E03F0
7F07F0
3FFFE0
1FFFC0
0FFF80
07FF00
01FC00
ENDCHAR
STARTCHAR 0217
ENCODING 535
SWIDTH 473 0
DWIDTH 18 0
BBX 16 34 1 0
BITMAP
0FE0
3FF8
3FF8
7FFC
7FFC
7C7C
7C7C
7C7C
7C7C
7C7C
0000
0000
0000
F81F
F81F
F81F
F81F
F81F
F81F
F81F
F81F
F81F
F81F
F81F
F81F
F81F
F81F
F81F
FC3F
7FFE
7FFE
3FFC
1FF8
07E0
ENDCHAR
STARTCHAR 0218
ENCODING 536
SWIDTH 552 0
DWIDTH 21 0
BBX 19 35 1 -8
BITMAP
07FFE0
1FFFE0
3FFFE0
7FFFE0
7FFFE0
FC0000
F80000
F80000
F80000
F80000
FC0000
7FF800
7FFE00
3FFF80
1FFFC0
03FFC0
0007E0
0003E0
0003E0
0003E0
0003E0
0007E0
FFFFC0
FFFFC0
FFFF80
FFFF00
FFFC00
000000
000000
000000
01F000
01F000
01F000
01F000
01F000
ENDCHAR
STARTCHAR 0219
ENCODING 537
SWIDTH 473 0
DWIDTH 18 0
BBX 16 29 1 -8
BITMAP
1FFF
7FFF
7FFF
FFFF
FFFF
F800
F800
F800
FFF8
FFFC
7FFE
7FFF
1FFF
001F
001F
001F
FFFF
FFFF
FFFE
FFFE
FFF8
0000
0000
0000
07C0
07C0
07C0
07C0
07C0
ENDCHAR
STARTCHAR 021A
ENCODING 538
SWIDTH 631 0
DWIDTH 24 0
BBX 21 35 1 -8
BITMAP
FFFFF8
FFFFF8
FFFFF8
FFFFF8
FFFFF8
00F800
00F800
00F800
00F800
00F800
00F800
00F800
00F800
00F800
00F800
00F800
00F800
00F800
00F800
00F800
00F800
00F800
00F800
00F800
00F800
00F800
00F800
000000
000000
000000
00F800
00F800
00F800
00F800
00F800
ENDCHAR
STARTCHAR 021B
ENCODING 539
SWIDTH 342 0
DWIDTH 13 0
BBX 10 37 1 -8
BITMAP
F800
F800
F800
F800
F800
F800
F800
F800
FFC0
FFC0
FFC0
FFC0
FFC0
F800
F800
F800
F800
F800
F800
F800
F800
F800
F800
FC00
7FC0
7FC0
3FC0
1FC0
07C0
0000
0000
0000
1F00
1F00
1F00
1F00
1F00
ENDCHAR
STARTCHAR 021E
ENCODING 542
SWIDTH 552 0
DWIDTH 21 0
BBX 19 39 1 0
BITMAP
7C0F80
7E3F80
7F3F80
7FFF80
7FFF80
0FFC00
0FFC00
0FFC00
07F800
01E000
000000
000000
F803E0
F803E0
F803E0
F803E0
F803E0
F803E0
F803E0
F803E0
F803E0
F803E0
F803E0
FFFFE0
FFFFE0
FFFFE0
FFFFE0
FFFFE0
F803E0
F803E0
F803E0
F803E0
F803E0
F803E0
F803E0
F803E0
F803E0
F803E0
F803E0
ENDCHAR
STARTCHAR 021F
ENCODING 543
SWIDTH 473 0
DWIDTH 18 0
BBX 16 42 1 0
BITMAP
F81F
FC7F
FE7F
FFFF
FFFF
1FF8
1FF8
1FF8
0FF0
03C0
0000
0000
0000
F800
F800
F800
F800
F800
F800
F800
F800
FFE0
FFF8
FFFC
FFFE
FFFE
F83F
F81F
F81F
F81F
F81F
F81F
F81F
F81F
F81F
F81F
F81F
F81F
F81F
F81F
F81F
F81F
ENDCHAR
STARTCHAR 0224
ENCODING 548
SWIDTH 605 0
DWIDTH 23 0
BBX 21 35 1 -8
BITMAP
FFFFF8
FFFFF8
FFFFF8
FFFFF8
FFFFF8
0000F8
0000F8
0001F8
0001F8
0003F0
0007F0
01FFE0
07FFC0
0FFF80
1FFF00
3FFC00
7F0000
7E0000
FC0000
F80000
F80000
F80000
FFFFF8
FFFFF8
FFFFF8
FFFFF8
FFFFF8
0000F8
0000F8
0001F8
001FF0
001FF0
001FE0
001FC0
001F00
ENDCHAR
STARTCHAR 0225
ENCODING 549
SWIDTH 473 0
DWIDTH 18 0
BBX 16 29 1 -8
BITMAP
FFFF
FFFF
FFFF
FFFF
FFFF
001F
001F
001F
1FFF
7FFF
7FFE
FFFE
FFF8
F800
F800
F800
FFFF
FFFF
FFFF
FFFF
FFFF
001F
001F
003F
07FE
07FE
07FC
07F8
07E0
ENDCHAR
STARTCHAR 0226
ENCODING 550
SWIDTH 605 0
DWIDTH 23 0
BBX 21 35 1 0
BITMAP
00F800
00F800
00F800
00F800
00F800
000000
000000
000000
01FC00
07FF00
0FFF80
1FFFC0
3FFFE0
7F07F0
7E03F0
FC01F0
FC01F8
F800F8
F800F8
FFFFF8
FFFFF8
FFFFF8
FFFFF8
FFFFF8
F800F8
F800F8
F800F8
F800F8
F800F8
F800F8
F800F8
F800F8
F800F8
F800F8
F800F8
ENDCHAR
STARTCHAR 0227
ENCODING 551
SWIDTH 473 0
DWIDTH 18 0
BBX 16 30 1 0
BITMAP
07C0
07C0
07C0
07C0
07C0
0000
0000
0000
0000
FFE0
FFF8
FFFC
FFFE
FFFE
003F
001F
001F
1FFF
7FFF
7FFF
FFFF
FFFF
F81F
F81F
F81F
FFFF
FFFF
7FFF
7FFF
1FFF
ENDCHAR
STARTCHAR 0228
ENCODING 552
SWIDTH 500 0
DWIDTH 19 0
BBX 16 35 1 -8
BITMAP
FFFF
FFFF
FFFF
FFFF
FFFF
F800
F800
F800
F800
F800
F800
FFFF
FFFF
FFFF
FFFF
FFFF
F800
F800
F800
F800
F800
F800
FFFF
FFFF
FFFF
FFFF
FFFF
03F0
03F0
07E0
7FE0
7FC0
7F80
7F00
7C00
ENDCHAR
STARTCHAR 0229
ENCODING 553
SWIDTH 473 0
DWIDTH 18 0
BBX 16 29 1 -8
BITMAP
07E0
1FF8
3FFC
7FFE
7FFE
FC3F
F81F
F81F
FFFF
FFFF
FFFE
FFFE
FFF8
F800
F800
FC00
7FFF
7FFF
3FFF
1FFF
07FF
00F8
01F8
03F8
3FF0
3FF0
3FE0
3FC0
3F00
ENDCHAR
STARTCHAR 022E
ENCODING 558
SWIDTH 605 0
DWIDTH 23 0
BBX 21 35 1 0
BITMAP
00F800
00F800
00F800
00F800
00F800
000000
000000
000000
01FC00
07FF00
0FFF80
1FFFC0
3FFFE0
7F07F0
7E03F0
FC01F0
F800F8
F800F8
F800F8
F800F8
F800F8
F800F8
F800F8
F800F8
F800F8
F800F8
F800F8
7C01F8
7E03F0
7F07F0
3FFFE0
1FFFC0
0FFF80
07FF00
01FC00
ENDCHAR
STARTCHAR 022F
ENCODING 559
SWIDTH 473 0
DWIDTH 18 0
BBX 16 30 1 0
BITMAP
07C0
07C0
07C0
07C0
07C0
0000
0000
0000
0000
07E0
1FF8
3FFC
7FFE
7FFE
FC3F
F81F
F81F
F81F
F81F
F81F
F81F
F81F
F81F
F81F
FC3F
7FFE
7FFE
3FFC
1FF8
07E0
ENDCHAR
STARTCHAR 0232
ENCODING 562
SWIDTH 605 0
DWIDTH 23 0
BBX 21 35 1 0
BITMAP
1FFFE0
1FFFE0
1FFFE0
1FFFE0
1FFFE0
000000
000000
000000
F800F8
F800F8
F800F8
F800F8
F800F8
FC01F8
7E03F0
7F07F0
3FFFE0
3FFFE0
1FFFC0
0FFF80
03FE00
00F800
00F800
00F800
00F800
00F800
00F800
00F800
00F800
00F800
00F800
00F800
00F800
00F800
00F800
ENDCHAR
STARTCHAR 0233
ENCODING 563
SWIDTH 473 0
DWIDTH 18 0
BBX 16 38 1 -8
BITMAP
FFFF
FFFF
FFFF
FFFF
FFFF
0000
0000
0000
0000
F81F
F81F
F81F
F81F
F81F
F81F
F81F
F81F
F81F
F81F
F81F
F81F
F81F
F81F
F81F
FC1F
7FFF
7FFF
3FFF
1FFF
07FF
003F
007E
01FE
FFFC
FFF8
FFF0
FFE0
FF00
ENDCHAR
STARTCHAR 02BB
ENCODING 699
SWIDTH 289 0
DWIDTH 11 0
BBX 8 11 1 24
BITMAP
07
1F
3F
7F
7F
FF
FC
F8
F8
F8
F8
ENDCHAR
STARTCHAR 02BC
ENCODING 700
SWIDTH 289 0
DWIDTH 11 0
BBX 8 11 1 24
BITMAP
1F
1F
1F
1F
3F
FF
FE
FE
FC
F8
E0
ENDCHAR
STARTCHAR 02BD
ENCODING 701
SWIDTH 289 0
DWIDTH 11 0
BBX 8 11 1 24
BITMAP
F8
F8
F8
F8
FC
FF
7F
7F
3F
1F
07
ENDCHAR
STARTCHAR 02C6
ENCODING 710
SWIDTH 500 0
DWIDTH 19 0
BBX 16 11 1 24
BITMAP
03C0
0FE0
0FF0
1FF8
1FF8
1FF8
FFFF
FFFF
FE7F
FC7F
F81F
ENDCHAR
STARTCHAR 02C7
ENCODING 711
SWIDTH 500 0
DWIDTH 19 0
BBX 16 10 1 24
BITMAP
F81F
FC7F
FE7F
FFFF
FFFF
1FF8
1FF8
1FF8
0FF0
03C0
ENDCHAR
STARTCHAR 02D8
ENCODING 728
SWIDTH 394 0
DWIDTH 15 0
BBX 13 11 1 24
BITMAP
F8F8
F8F8
F8F8
F8F8
F8F8
F8F8
FFF8
FFF8
7FF0
3FE0
1FC0
ENDCHAR
STARTCHAR 02D9
ENCODING 729
SWIDTH 184 0
DWIDTH 7 0
BBX 5 5 1 25
BITMAP
F8
F8
F8
F8
F8
ENDCHAR
STARTCHAR 02DA
ENCODING 730
SWIDTH 394 0
DWIDTH 15 0
BBX 13 13 1 24
BITMAP
1FC0
7FE0
7FF0
FFF8
FFF8
F8F8
F8F8
F8F8
FFF8
FFF8
7FF0
7FF0
1FC0
ENDCHAR
STARTCHAR 02DB
ENCODING 731
SWIDTH 342 0
DWIDTH 13 0
BBX 10 11 1 -8
BITMAP
F800
F800
F800
F800
F800
FC00
7FC0
7FC0
3FC0
1FC0
07C0
ENDCHAR
STARTCHAR 02DC
ENCODING 732
SWIDTH 552 0
DWIDTH 21 0
BBX 19 11 1 24
BITMAP
F83F00
F8FF80
F9FFC0
F9FFE0
F9FFE0
FFFFE0
FFF3E0
FFF3E0
7FF3E0
3FE3E0
1F83E0
ENDCHAR
STARTCHAR 02DD
ENCODING 733
SWIDTH 526 0
DWIDTH 20 0
BBX 18 11 1 24
BITMAP
1F07C0
1F07C0
1F07C0
1F07C0
1F07C0
3F0FC0
FE3F80
FE3F80
FC3F00
F83E00
E03800
ENDCHAR
STARTCHAR 0306
ENCODING 774
SWIDTH 394 0
DWIDTH 15 0
BBX 13 11 1 24
BITMAP
F8F8
F8F8
F8F8
F8F8
F8F8
F8F8
FFF8
FFF8
7FF0
3FE0
1FC0
ENDCHAR
STARTCHAR 030B
ENCODING 779
SWIDTH 526 0
DWIDTH 20 0
BBX 18 11 1 24
BITMAP
1F07C0
1F07C0
1F07C0
1F07C0
1F07C0
3F0FC0
FE3F80
FE3F80
FC3F00
F83E00
E03800
ENDCHAR
STARTCHAR 030F
ENCODING 783
SWIDTH 526 0
DWIDTH 20 0
BBX 18 11 1 24
BITMAP
F83E00
F83E00
F83E00
F83E00
F83E00
FC3F00
7F1FC0
7F1FC0
3F0FC0
1F07C0
0701C0
ENDCHAR
STARTCHAR 0311
ENCODING 785
SWIDTH 394 0
DWIDTH 15 0
BBX 13 10 1 24
BITMAP
1FC0
7FF0
7FF0
FFF8
FFF8
F8F8
F8F8
F8F8
F8F8
F8F8
ENDCHAR
STARTCHAR 0394
ENCODING 916
SWIDTH 605 0
DWIDTH 23 0
BBX 21 27 1 0
BITMAP
01FC00
07FF00
0FFF80
1FFFC0
3FFFE0
7F07F0
7E03F0
FC01F0
F800F8
F800F8
F800F8
F800F8
F800F8
F800F8
F800F8
F800F8
F800F8
F800F8
F800F8
F800F8
F800F8
F800F8
FFFFF8
FFFFF8
FFFFF8
FFFFF8
FFFFF8
ENDCHAR
STARTCHAR 03A9
ENCODING 937
SWIDTH 605 0
DWIDTH 23 0
BBX 22 27 1 0
BITMAP
03FE00
0FFF80
1FFFC0
3FFFE0
7FFFF0
7E03F0
FC01F0
F800F8
F800F8
F800F8
F800F8
F800F8
F800F8
F800F8
F800F8
FC01F8
7E03F0
7F8FF0
3F8FE0
1F8FC0
0F8F80
038E00
FF8FF8
FF8FF8
FF8FF8
FF8FF8
FF8FFC
ENDCHAR
STARTCHAR 03C0
ENCODING 960
SWIDTH 473 0
DWIDTH 18 0
BBX 16 21 1 0
BITMAP
FFFF
FFFF
FFFF
FFFF
FFFF
F81F
F81F
F81F
F81F
F81F
F81F
F81F
F81F
F81F
F81F
F81F
F81F
F81F
F81F
F81F
F81F
ENDCHAR
STARTCHAR 2013
ENCODING 8211
SWIDTH 631 0
DWIDTH 24 0
BBX 22 5 1 11
BITMAP
FFFFFC
FFFFFC
FFFFFC
FFFFFC
FFFFFC
ENDCHAR
STARTCHAR 2014
ENCODING 8212
SWIDTH 763 0
DWIDTH 29 0
BBX 27 5 1 11
BITMAP
FFFFFFE0
FFFFFFE0
FFFFFFE0
FFFFFFE0
FFFFFFE0
ENDCHAR
STARTCHAR 2018
ENCODING 8216
SWIDTH 289 0
DWIDTH 11 0
BBX 8 13 1 16
BITMAP
07
1F
3F
7F
7F
FE
F8
F8
F8
F8
F8
F8
F8
ENDCHAR
STARTCHAR 2019
ENCODING 8217
SWIDTH 263 0
DWIDTH 10 0
BBX 8 13 1 16
BITMAP
1F
1F
1F
1F
1F
1F
1F
3F
FE
FE
FC
F8
E0
ENDCHAR
STARTCHAR 201A
ENCODING 8218
SWIDTH 210 0
DWIDTH 8 0
BBX 8 13 -1 -8
BITMAP
1F
1F
1F
1F
1F
1F
1F
7F
FE
FE
FC
F8
E0
ENDCHAR
STARTCHAR 201C
ENCODING 8220
SWIDTH 526 0
DWIDTH 20 0
BBX 18 13 1 16
BITMAP
0701C0
1F07C0
3F0FC0
7F1FC0
7F1FC0
FC3F00
F83E00
F83E00
F83E00
F83E00
F83E00
F83E00
F83E00
ENDCHAR
STARTCHAR 201D
ENCODING 8221
SWIDTH 526 0
DWIDTH 20 0
BBX 18 13 1 16
BITMAP
1F07C0
1F07C0
1F07C0
1F07C0
1F07C0
1F07C0
1F07C0
3F0FC0
FE3F80
FE3F80
FC3F00
F83E00
E03800
ENDCHAR
STARTCHAR 201E
ENCODING 8222
SWIDTH 447 0
DWIDTH 17 0
BBX 17 13 -1 -8
BITMAP
1F0F80
1F0F80
1F0F80
1F0F80
1F0F80
1F0F80
1F0F80
3F1F80
FE7F00
FE7F00
FC7E00
F87C00
E07000
ENDCHAR
STARTCHAR 2020
ENCODING 8224
SWIDTH 500 0
DWIDTH 19 0
BBX 15 24 2 8
BITMAP
07C0
07C0
07C0
07C0
07C0
FFFE
FFFE
FFFE
FFFE
FFFE
07C0
07C0
07C0
07C0
07C0
07C0
07C0
07C0
07C0
07C0
07C0
07C0
07C0
07C0
ENDCHAR
STARTCHAR 2021
ENCODING 8225
SWIDTH 500 0
DWIDTH 19 0
BBX 15 26 2 3
BITMAP
07C0
07C0
07C0
07C0
07C0
FFFE
FFFE
FFFE
FFFE
FFFE
07C0
07C0
07C0
07C0
07C0
07C0
FFFE
FFFE
FFFE
FFFE
FFFE
07C0
07C0
07C0
07C0
07C0
ENDCHAR
STARTCHAR 2022
ENCODING 8226
SWIDTH 394 0
DWIDTH 15 0
BBX 12 12 1 7
BITMAP
1F80
3FE0
7FE0
7FF0
FFF0
FFF0
FFF0
FFF0
7FF0
7FE0
3FE0
1F80
ENDCHAR
STARTCHAR 2026
ENCODING 8230
SWIDTH 657 0
DWIDTH 25 0
BBX 23 5 1 0
BITMAP
F87C3E
F87C3E
F87C3E
F87C3E
F87C3E
ENDCHAR
STARTCHAR 2030
ENCODING 8240
SWIDTH 1605 0
DWIDTH 61 0
BBX 59 27 1 0
BITMAP
1FC0001F00000000
3FE0001F00000000
7FF0001F00000000
FFF8001F00000000
FFF8001F00000000
F8F8001F00000000
F8F8001F00000000
F8F8001F00000000
F8F8003F00000000
FFF8007E00000000
FFF800FE00000000
7FF03FFC00000000
3FE0FFF800000000
1FC1FFF000000000
0003FFE07F007F00
0007FF80FF80FF80
000FE001FFC1FFC0
000FC003FFE3FFE0
001F8003FFE3FFE0
001F0003E3E3E3E0
001F0003E3E3E3E0
001F0003E3E3E3E0
001F0003FFE3FFE0
001F0003FFE3FFE0
001F0001FFC1FFC0
001F0000FF80FF80
001F00007F007F00
ENDCHAR
STARTCHAR 2039
ENCODING 8249
SWIDTH 473 0
DWIDTH 18 0
BBX 16 21 1 3
BITMAP
001F
001F
003F
003E
007E
00FE
1FFC
3FF8
7FF0
7FE0
FF80
FF80
7FE0
7FF0
3FF8
1FFC
00FE
007E
003F
001F
001F
ENDCHAR
STARTCHAR 203A
ENCODING 8250
SWIDTH 500 0
DWIDTH 19 0
BBX 16 21 1 3
BITMAP
F800
F800
F800
7C00
7E00
7F00
3FF8
1FFC
0FFE
07FE
01FF
01FF
07FE
0FFE
1FFC
3FF8
7F00
7E00
FC00
F800
F800
ENDCHAR
STARTCHAR 2044
ENCODING 8260
SWIDTH 605 0
DWIDTH 23 0
BBX 21 27 1 0
BITMAP
0000F8
0000F8
0000F8
0000F8
0000F8
0000F8
0000F8
0000F8
0001F8
0003F0
0007F0
01FFE0
07FFC0
0FFF80
1FFF00
3FFC00
7F0000
7E0000
FC0000
F80000
F80000
F80000
F80000
F80000
F80000
F80000
F80000
ENDCHAR
STARTCHAR 20AC
ENCODING 8364
SWIDTH 500 0
DWIDTH 19 0
BBX 16 32 1 -3
BITMAP
01FF
07FF
0FFF
1FFF
3FFF
7F00
7E00
FC00
F800
FFFF
FFFF
FFFF
FFFF
FFFF
F800
F800
F800
FFFF
FFFF
FFFF
FFFF
FFFF
F800
FC00
FC00
7E00
7F00
3FFF
1FFF
0FFF
07FF
01FF
ENDCHAR
STARTCHAR 2122
ENCODING 8482
SWIDTH 947 0
DWIDTH 36 0
BBX 33 16 1 13
BITMAP
FFF9FF7F80
FFF9FFFF80
FFF9FFFF80
FFF9FFFF80
FFF9FFFF80
0F81F3EF80
0F81F3EF80
0F81F3EF80
0F81F3EF80
0F81F3EF80
0F81F3EF80
0F81F3EF80
0F81F3EF80
0F81F3EF80
0F81F3EF80
0F81F3EF80
ENDCHAR
STARTCHAR 2202
ENCODING 8706
SWIDTH 473 0
DWIDTH 18 0
BBX 16 29 1 0
BITMAP
07C0
07F8
07FC
07FE
07FE
003F
001F
001F
07FF
1FFF
3FFF
7FFF
7FFF
FC1F
F81F
F81F
F81F
F81F
F81F
F81F
F81F
F81F
F81F
FC3F
7FFE
7FFE
3FFC
1FF8
07E0
ENDCHAR
STARTCHAR 220F
ENCODING 8719
SWIDTH 552 0
DWIDTH 21 0
BBX 19 27 1 0
BITMAP
FFFFE0
FFFFE0
FFFFE0
FFFFE0
FFFFE0
F803E0
F803E0
F803E0
F803E0
F803E0
F803E0
F803E0
F803E0
F803E0
F803E0
F803E0
F803E0
F803E0
F803E0
F803E0
F803E0
F803E0
F803E0
F803E0
F803E0
F803E0
F803E0
ENDCHAR
STARTCHAR 2211
ENCODING 8721
SWIDTH 500 0
DWIDTH 19 0
BBX 16 27 1 0
BITMAP
FFFF
FFFF
FFFF
FFFF
FFFF
F800
F800
F800
FC00
7E00
7F00
3FFF
1FFF
0FFF
1FFF
3FFF
7F00
7E00
FC00
F800
F800
F800
FFFF
FFFF
FFFF
FFFF
FFFF
ENDCHAR
STARTCHAR 2212
ENCODING 8722
SWIDTH 500 0
DWIDTH 19 0
BBX 16 5 1 11
BITMAP
FFFF
FFFF
FFFF
FFFF
FFFF
ENDCHAR
STARTCHAR 221A
ENCODING 8730
SWIDTH 605 0
DWIDTH 23 0
BBX 21 27 1 0
BITMAP
0000F8
0000F8
0000F8
0000F8
0000F8
0000F8
F800F8
F800F8
F801F8
F803F0
F807F0
F9FFE0
FFFFC0
FFFF80
FFFF00
FFFC00
FF0000
FE0000
FC0000
F80000
F80000
F80000
F80000
F80000
F80000
F80000
F80000
ENDCHAR
STARTCHAR 221E
ENCODING 8734
SWIDTH 763 0
DWIDTH 29 0
BBX 27 17 1 4
BITMAP
07E0FC00
1FFBFF00
3FFFFF80
7FFFFFC0
7FFFFFC0
FC3F87E0
F81F03E0
F81F03E0
F81F03E0
F81F03E0
F81F03E0
FC3F87E0
7FFFFFC0
7FFFFFC0
3FFFFF80
1FFBFF00
07E0FC00
ENDCHAR
STARTCHAR 222B
ENCODING 8747
SWIDTH 421 0
DWIDTH 16 0
BBX 15 37 -1 -8
BITMAP
003E
00FE
01FE
03FE
03FE
07E0
07C0
07C0
07C0
07C0
07C0
07C0
07C0
07C0
07C0
07C0
07C0
07C0
07C0
07C0
07C0
07C0
07C0
07C0
07C0
07C0
07C0
07C0
07C0
07C0
07C0
0FC0
FF80
FF80
FF00
FE00
F800
ENDCHAR
STARTCHAR 2248
ENCODING 8776
SWIDTH 552 0
DWIDTH 21 0
BBX 19 22 1 3
BITMAP
F83F00
F8FF80
F9FFC0
F9FFE0
F9FFE0
FFFBE0
FFF3E0
FFF3E0
7FE3E0
3FC3E0
0E03E0
F80E00
F87F80
F8FFC0
F9FFE0
F9FFE0
FBFFE0
FFF3E0
FFF3E0
7FF3E0
3FE3E0
1F83E0
ENDCHAR
STARTCHAR 2260
ENCODING 8800
SWIDTH 500 0
DWIDTH 19 0
BBX 15 27 2 0
BITMAP
07C0
07C0
07C0
07C0
07C0
07C0
FFFE
FFFE
FFFE
FFFE
FFFE
07C0
07C0
07C0
07C0
07C0
07C0
FFFE
FFFE
FFFE
FFFE
FFFE
07C0
07C0
07C0
07C0
07C0
ENDCHAR
STARTCHAR 2264
ENCODING 8804
SWIDTH 500 0
DWIDTH 19 0
BBX 16 26 1 1
BITMAP
003E
003E
003E
007E
07FC
0FFC
1FF8
3FF0
3FC0
3FC0
3FF0
1FF8
0FFC
07FC
007E
003E
003E
003E
0000
0000
0000
FFFF
FFFF
FFFF
FFFF
FFFF
ENDCHAR
STARTCHAR 2265
ENCODING 8805
SWIDTH 500 0
DWIDTH 19 0
BBX 16 26 1 1
BITMAP
3E00
3E00
3E00
3F00
1FF0
1FF8
0FFC
07FE
01FE
01FE
07FE
0FFC
1FF8
1FF0
3F00
3E00
3E00
3E00
0000
0000
0000
FFFF
FFFF
FFFF
FFFF
FFFF
ENDCHAR
STARTCHAR 25CA
ENCODING 9674
SWIDTH 631 0
DWIDTH 24 0
BBX 20 27 2 0
BITMAP
00F000
01F800
03FC00
07FE00
07FE00
07FE00
07FE00
07FE00
0FFF00
1F9F80
3F9FC0
FF0FF0
FE07F0
FC03F0
FE07F0
FF0FF0
3F9FC0
1F9F80
0FFF00
07FE00
07FE00
07FE00
07FE00
07FE00
03FC00
01F800
00F000
ENDCHAR
STARTCHAR FB01
ENCODING 64257
SWIDTH 605 0
DWIDTH 23 0
BBX 21 29 1 0
BITMAP
00FFF8
03FFF8
07FFF8
0FFFF8
0FFFF8
1F8000
1F0000
1F0000
FFF8F8
FFF8F8
FFF8F8
FFF8F8
FFF8F8
1F00F8
1F00F8
1F00F8
1F00F8
1F00F8
1F00F8
1F00F8
1F00F8
1F00F8
1F00F8
1F00F8
1F00F8
1F00F8
1F00F8
1F00F8
1F00F8
ENDCHAR
STARTCHAR FB02
ENCODING 64258
SWIDTH 605 0
DWIDTH 23 0
BBX 21 29 1 0
BITMAP
00FFF8
03FFF8
07FFF8
0FFFF8
0FFFF8
1F80F8
1F00F8
1F00F8
FFF8F8
FFF8F8
FFF8F8
FFF8F8
FFF8F8
1F00F8
1F00F8
1F00F8
1F00F8
1F00F8
1F00F8
1F00F8
1F00F8
1F00F8
1F00F8
1F00F8
1F00F8
1F00F8
1F00F8
1F00F8
1F00F8
ENDCHAR
ENDFONT
